<svg width="116px" height="275px" viewBox="0 0 116 275" version="1.1" xmlns="http://www.w3.org/2000/svg" xmlns:xlink="http://www.w3.org/1999/xlink">
    <g id="Page-1" stroke="none" stroke-width="1" fill="none" fill-rule="evenodd">
        <g id="Group-2" transform="translate(-26.903939, -23.933770)" fill="#36302B" fill-rule="nonzero">
            <g id="Pinata" transform="translate(28.903939, 172.933770)">
                <path d="M36.2221817,33.7900217 C35.8042969,28.8868341 33.8914631,25.5349375 33.7728378,25.3299455 C33.6016398,25.0363082 33.2915963,24.8590178 32.9559405,24.8714836 C32.6216326,24.8825642 32.3210252,25.0778607 32.1673515,25.3811935 L25.7669745,38.074078 L36.2221817,33.7900217 Z" id="Shape"></path>
                <polygon id="Shape" points="38.3803543 106.009543 35.4268526 113.151022 39.7715061 114.221689 41.16131 107.258886"></polygon>
                <polygon id="Shape" points="53.3231046 113.954369 50.8885888 115.919799 44.9842816 111.545712 48.9784511 107.438947"></polygon>
                <polygon id="Shape" points="53.3231046 99.7628263 53.3231046 106.724245 57.1447282 105.11755 55.2345904 99.7628263"></polygon>
                <polygon id="Shape" points="43.0296593 118.309064 36.77352 122.678995 40.902491 125.379904 44.6567138 120.36591"></polygon>
                <path d="M55.2345904,72.6914135 C54.3449002,72.6914135 53.62506,71.9517801 53.62506,71.0376264 L53.62506,2.27249802 C53.62506,1.35972948 54.3449002,0.620096094 55.2345904,0.620096094 C56.1202365,0.620096094 56.8414247,1.35972948 56.8414247,2.27249802 L56.8414247,71.0362414 C56.8414247,71.9517801 56.1202365,72.6914135 55.2345904,72.6914135 Z" id="Shape"></path>
                <path d="M32.387078,54.9596034 C31.691502,54.9596034 31.0511947,54.492831 30.8436004,53.7739738 C30.5915215,52.8986025 31.0781551,51.9789086 31.9314488,51.7212834 L42.1210969,48.628397 C42.9730426,48.3680018 43.8681248,48.8707862 44.1202037,49.7461576 C44.3722826,50.622914 43.884301,51.5412229 43.0323553,51.8002331 L32.8413591,54.8917344 C32.6917294,54.9374421 32.5380557,54.9596034 32.387078,54.9596034 Z" id="Shape"></path>
                <path d="M33.441226,59.5608433 C32.7456501,59.5608433 32.1053428,59.0940709 31.8977484,58.3752137 C31.6456695,57.4998424 32.1336511,56.5801484 32.9855968,56.3225233 L43.1738969,53.2296369 C44.0258426,52.9706267 44.9222728,53.4720261 45.1730037,54.3487826 C45.4250826,55.225539 44.938449,56.1438479 44.0865033,56.402858 L33.8968552,59.4943594 C33.7445294,59.538682 33.5922037,59.5608433 33.441226,59.5608433 Z" id="Shape"></path>
                <path d="M36.0954682,68.9115267 C35.3998923,68.9115267 34.759585,68.4447544 34.5519906,67.7258972 C34.2999118,66.8491408 34.7865453,65.9308319 35.639839,65.6732068 L45.8294872,62.5817055 C46.6814329,62.3213102 47.5765151,62.8227096 47.827246,63.699466 C48.0806728,64.5762225 47.5926913,65.4945313 46.7407456,65.7521564 L36.5497494,68.8450428 C36.4001197,68.8893654 36.247794,68.9115267 36.0954682,68.9115267 Z" id="Shape"></path>
                <path d="M34.67466,64.1980953 C33.9790841,64.1980953 33.3387768,63.732708 33.1311825,63.0124657 C32.8791036,62.1370944 33.3657371,61.2174004 34.2190308,60.9583902 L44.408679,57.868274 C45.2606247,57.6078787 46.1557069,58.1092781 46.4077858,58.9860346 C46.6598646,59.8614059 46.1732311,60.7810998 45.3212854,61.04011 L35.1302892,64.1316114 C34.9793115,64.1773191 34.8242897,64.1980953 34.67466,64.1980953 Z" id="Shape"></path>
                <path d="M97.6134974,92.000831 C97.5730569,91.9675891 93.4184736,88.6461643 88.1207732,84.2914689 C87.1515502,83.4950471 85.9612526,82.3731313 84.5862769,81.0739251 C78.8167712,75.633326 70.0964598,67.4100987 60.990616,67.4100987 C60.2883,67.4100987 59.590028,67.4599616 58.9119763,67.5583024 C51.1352757,68.677448 45.115039,69.5680553 41.8744101,70.0528337 C38.5218959,62.4570482 34.8593381,50.8888496 33.7431814,47.2820981 C49.9544142,45.456561 50.3008541,32.107148 50.3022022,31.9700249 C50.3062462,31.6542264 50.1566165,31.3592041 49.9018416,31.1791435 C49.6497627,31.0018531 49.326239,30.9644559 49.0418078,31.0808028 L0.610311783,50.9234766 C0.191079005,51.0952267 -0.0434756685,51.5536886 0.0535814378,52.0052251 L1.40024879,58.2325504 C4.3497064,58.0234031 10.1569566,57.0455357 11.4294831,52.6063504 C11.6384255,51.8791827 12.4297105,51.4318015 13.1428106,51.6478741 C13.873435,51.8694871 14.2913197,52.6589834 14.0756373,53.4083124 C13.1845991,56.5136645 10.8457924,58.7339498 7.12122599,60.0109947 C5.28118502,60.6412066 3.42092382,60.9168378 2.0068557,61.0373399 L2.50562139,63.3435001 C2.60537452,63.8047322 3.02056325,64.1191456 3.47888848,64.0803634 L13.4582462,63.2257682 L12.0495702,88.2638819 L0.112894114,115.50843 C-0.0151673458,115.800682 0.00909693076,116.138642 0.178946867,116.407348 C0.348796803,116.677438 0.639968121,116.839493 0.951359671,116.839493 L5.39576633,116.839493 C5.63840909,116.839493 5.87296377,116.739767 6.04416172,116.562477 L18.9284926,103.370963 L15.9075901,121.756531 C15.8631056,122.030777 15.9372465,122.313334 16.1124885,122.525251 C16.2863825,122.737169 16.5438534,122.860441 16.8148045,122.860441 L22.6382309,122.860441 C22.9631026,122.860441 23.265058,122.683151 23.4308639,122.395054 L35.1181571,102.055136 L56.6324823,96.0009457 L73.7293612,112.796441 C73.973352,113.03606 74.325184,113.119165 74.6473596,113.013899 L82.7691522,110.335151 C83.0225791,110.250661 83.2288255,110.05952 83.3339707,109.807435 C83.4391159,109.555351 83.4323758,109.271409 83.3164465,109.024865 C80.8994549,103.882058 77.2948618,96.1062119 75.7904767,92.613037 C79.6188403,94.0673723 88.3795922,97.4137285 93.5101386,99.3736185 C93.9307194,99.5329028 94.4025248,99.3583826 94.6276434,98.9580941 L97.8467041,93.2155473 C98.0758667,92.8083334 97.9761135,92.2889279 97.6134974,92.000831 Z M22.4090682,52.038467 C23.8905371,52.038467 25.0902708,53.2725744 25.0902708,54.7933936 C25.0902708,56.3142128 23.8905371,57.5483202 22.4090682,57.5483202 C20.9275994,57.5483202 19.7265177,56.3128278 19.7265177,54.7933936 C19.7265177,53.2725744 20.9275994,52.038467 22.4090682,52.038467 Z M42.9245141,77.457478 L40.2500516,83.3648495 C40.0087568,83.8953356 39.4250662,84.1668115 38.8777719,83.9964466 L36.0550278,83.1266155 L37.831712,85.2928826 C38.2347686,85.7832014 38.180848,86.5159093 37.7117387,86.9411293 L32.21588,91.9024903 C31.7831671,92.2916981 31.1361197,92.2930832 30.7020588,91.9038754 L27.7337289,89.2459045 L28.4225648,92.664285 C28.5465822,93.2806461 28.177226,93.8914669 27.5814032,94.0479811 L19.0740782,96.2931978 C18.9797172,96.3167442 18.8840081,96.3292099 18.788299,96.3292099 C18.5658764,96.3292099 18.3474979,96.261341 18.1574278,96.1352986 C17.8878247,95.9510828 17.7044946,95.6616008 17.65327,95.3333365 L16.6058621,88.6004566 C16.506109,87.9563938 16.9334298,87.3511133 17.560257,87.2472322 C18.1884321,87.1447362 18.7761668,87.5824219 18.877268,88.2278697 L19.7251697,93.6809346 L25.9476086,92.0382282 L24.7910114,86.2915262 C24.6912583,85.7956671 24.9109848,85.2873423 25.3356096,85.0324873 C25.7615825,84.7762473 26.2994406,84.8302655 26.6714928,85.162685 L31.4529033,89.4453562 L35.3473197,85.93002 L31.8101274,81.6182621 C31.4825597,81.2193587 31.4488593,80.645935 31.7278985,80.2082494 C32.0082857,79.7705637 32.5326636,79.5752672 33.0192972,79.724856 L38.5825566,81.4382015 L40.3282365,77.5821353 L35.5427819,75.5709974 C34.9550472,75.3230678 34.673312,74.6346824 34.9132588,74.030787 C35.1545535,73.4268916 35.8258652,73.1374096 36.4122518,73.3853392 L42.3138631,75.8646346 C42.6036864,75.9879068 42.832849,76.2275259 42.9487783,76.5280885 C43.0647077,76.8286511 43.0579676,77.1652259 42.9245141,77.457478 Z M65.5523,81.8814275 C65.5523,82.2055365 65.4215425,82.5185649 65.1883358,82.742948 C64.9564772,82.964561 64.6477817,83.0809078 64.328302,83.0587465 L61.2238226,82.8509844 L62.7012475,83.952124 C63.2000132,84.3233257 63.3253786,85.0283321 62.9870267,85.556048 L59.0926104,91.6476353 C58.9227604,91.9108008 58.6585494,92.0922464 58.355246,92.1559601 C58.2797571,92.171196 58.2069643,92.1781214 58.1314754,92.1781214 C57.9009648,92.1781214 57.6744982,92.1060972 57.484428,91.9745145 L52.5372116,88.5076562 C52.0128337,88.1419947 51.8793801,87.4065166 52.2352562,86.8663349 C52.5938283,86.3289234 53.3082764,86.1904152 53.8340024,86.5560767 L57.8146918,89.3442452 L60.462194,85.2014672 L56.6513545,82.3606656 C56.2388618,82.0517925 56.0717079,81.4991451 56.2469499,81.0046711 C56.4194959,80.508812 56.8926493,80.1943985 57.4008511,80.2262554 L63.2525858,80.6182334 L63.2525858,75.7981507 L56.6500065,76.554405 C56.0204833,76.6278143 55.4502728,76.1596569 55.3815241,75.5114389 C55.3127753,74.8632208 55.7657084,74.2787166 56.3952316,74.2080774 L64.2770774,73.3063895 C64.6006011,73.2676072 64.9241248,73.3742585 65.1708116,73.5986417 C65.4134544,73.8230248 65.5523,74.1443637 65.5523,74.4795533 L65.5523,81.8814275 L65.5523,81.8814275 Z" id="Shape"></path>
                <path d="M87.9603594,60.1481177 L81.5006698,62.9390564 L91.2346887,53.6645524 C92.2591804,52.6894552 92.3198411,51.0439787 91.3694902,49.9927021 C90.4191394,48.9414254 88.8190452,48.8777117 87.7959015,49.8541939 L77.4943681,59.6716498 L81.4440531,51.3528518 C82.0547041,50.0619561 81.5343701,48.5065099 80.2807159,47.877683 C79.0230175,47.2488561 77.5105443,47.7848826 76.8971973,49.0730081 L67.0108526,69.8977046 C67.0041125,69.9087852 67.0027645,69.921251 66.9987205,69.9323316 C66.9421038,70.0556038 66.8922273,70.1844164 66.8544828,70.314614 C66.8504388,70.3298499 66.8477427,70.3437007 66.8423507,70.3617068 C66.8113463,70.4919044 66.78169,70.6248722 66.7695579,70.7619953 C66.7682098,70.7647654 66.7682098,70.7703058 66.7682098,70.774461 C66.7533817,70.9088139 66.7533817,71.0459369 66.7601217,71.1844451 C66.7601217,71.2024511 66.7601217,71.2163019 66.7628178,71.2329229 C66.7722539,71.3645056 66.7924741,71.4933182 66.8207824,71.6193606 C66.8261745,71.644292 66.8329146,71.6650683 66.8383066,71.6872296 C66.867963,71.8077316 66.9043594,71.9268486 66.9515399,72.0431954 C66.954236,72.0473507 66.955584,72.0515059 66.959628,72.0584313 C66.9744562,72.0944434 66.9933284,72.1276854 67.0108526,72.1636975 C67.0553371,72.2564979 67.0998216,72.3479133 67.1523942,72.4324033 C67.1766585,72.4698005 67.2049668,72.5071976 67.2319271,72.5445948 C67.2871958,72.6235445 67.3438124,72.6997239 67.4058211,72.7703631 C67.4381735,72.8063752 67.4691778,72.8396171 67.5015302,72.8728591 C67.571627,72.9421132 67.6430718,73.0099821 67.7185607,73.0695406 C67.7401289,73.0875467 67.7549571,73.1069378 67.7765253,73.1221737 C67.7940495,73.1360245 67.8115737,73.1457201 67.831794,73.1568007 C67.8978467,73.2052786 67.9679435,73.2482161 68.0366923,73.2911536 C68.0811768,73.3160851 68.1243133,73.3437867 68.1728418,73.3673331 C68.2429386,73.4019601 68.3143835,73.4310468 68.3898723,73.4601335 C68.4370529,73.4795247 68.4815374,73.4989158 68.5300659,73.5155368 C68.6149909,73.5418533 68.7039599,73.5598594 68.7888849,73.5792505 C68.8252813,73.5861759 68.8630257,73.5986417 68.8994221,73.604182 C69.0274836,73.6249582 69.152849,73.6360389 69.2836065,73.6360389 C69.4305402,73.6360389 69.5815179,73.6194179 69.7297996,73.5917163 C69.7365397,73.5903312 69.7446278,73.5903312 69.7513678,73.5889461 C69.8875174,73.5612445 70.0223189,73.5224622 70.1557725,73.4712142 C70.1773407,73.4629037 70.1962129,73.4573634 70.2164331,73.4476678 C70.2326093,73.4421275 70.2474375,73.4379722 70.2649617,73.4296618 L89.9203737,64.9349585 C91.2077284,64.380926 91.8129873,62.8573366 91.2697371,61.533199 C90.731879,60.2132165 89.2477141,59.5913151 87.9603594,60.1481177 Z" id="Shape"></path>
            </g>
            <g id="Taco" transform="translate(77.500000, 84.000000) rotate(-13.000000) translate(-77.500000, -84.000000) translate(15.000000, 13.000000)">
                <g id="Bottle" transform="translate(37.800161, 63.416414) rotate(13.000000) translate(-37.800161, -63.416414) translate(13.300161, 4.416414)">
                    <path d="M0.220575542,64.9771436 L0.220575542,111.825622 C0.220575542,115.002013 2.80404007,117.584017 5.97897046,117.584017 L43.1697605,117.584017 C46.3446909,117.584017 48.9281554,115.000552 48.9281554,111.825622 L48.9281554,64.9771436 C48.9281554,54.9558131 42.7696083,45.9859776 33.4974679,42.3364141 L33.4974679,21.8483282 C35.3711734,21.6467917 36.838885,20.075391 36.838885,18.1505712 L36.838885,9.16321075 C36.838885,7.23693053 35.3711734,5.66552984 33.4974679,5.46399332 L33.4974679,2.42196019 C33.4974679,1.6143537 32.8432044,0.961550623 32.0370584,0.961550623 L17.113133,0.961550623 C16.3069869,0.961550623 15.6527234,1.6143537 15.6527234,2.42196019 L15.6527234,5.46399332 C13.779018,5.66552984 12.3113063,7.23693053 12.3113063,9.16321075 L12.3113063,18.1505712 C12.3113063,20.075391 13.779018,21.6467917 15.6527234,21.8483282 L15.6527234,42.3364141 C6.38058309,45.9859776 0.220575542,54.9543527 0.220575542,64.9771436 Z M46.0073363,102.175236 L3.14139468,102.175236 L3.14139468,65.6401695 L46.0073363,65.6401695 L46.0073363,102.175236 Z M43.1697605,114.663198 L5.97897046,114.663198 C4.41487182,114.663198 3.14139468,113.389721 3.14139468,111.825622 L3.14139468,105.097515 L46.0073363,105.097515 L46.0073363,111.825622 C46.0073363,113.389721 44.7338591,114.663198 43.1697605,114.663198 Z M45.8729786,62.7193504 L3.27575236,62.7193504 C4.14469605,54.5322943 9.66942544,47.4653724 17.5892265,44.7344066 C18.1777716,44.5314096 18.5735426,43.976454 18.5735426,43.3543195 L18.5735426,36.499157 L30.5766488,36.499157 L30.5766488,43.3543195 C30.5766488,43.9779144 30.9724198,44.53287 31.5609648,44.7344066 C39.4793055,47.4653724 45.0040349,54.5322943 45.8729786,62.7193504 Z M30.5751884,21.8892197 L30.5751884,33.5768775 L18.5720822,33.5768775 L18.5720822,21.8892197 L30.5751884,21.8892197 L30.5751884,21.8892197 Z M30.5751884,3.88236976 L30.5751884,5.42456226 L18.5720822,5.42456226 L18.5720822,3.88236976 L30.5751884,3.88236976 L30.5751884,3.88236976 Z M15.2321255,18.1505712 L15.2321255,9.16321075 C15.2321255,8.71048378 15.5986883,8.34392098 16.0514152,8.34392098 L33.1002365,8.34392098 C33.5515031,8.34392098 33.9195263,8.71048378 33.9195263,9.16321075 L33.9195263,18.1505712 C33.9195263,18.6018378 33.5529635,18.9684006 33.1002365,18.9684006 L16.0499548,18.9684006 C15.5986883,18.9684006 15.2321255,18.6018378 15.2321255,18.1505712 Z" id="Shape"></path>
                    <path d="M24.4166412,90.7855014 C28.1246211,90.7855014 31.1403669,87.7697557 31.1403669,84.0617758 C31.1403669,80.3537959 28.1246211,77.3380501 24.4166412,77.3380501 C20.7086614,77.3380501 17.6929156,80.3537959 17.6929156,84.0617758 C17.6929156,87.7697557 20.7086614,90.7855014 24.4166412,90.7855014 Z M24.4166412,80.2574089 C26.5137894,80.2574089 28.2195478,81.9631672 28.2195478,84.0603154 C28.2195478,86.1574635 26.5137894,87.8632219 24.4166412,87.8632219 C22.3194931,87.8632219 20.6137347,86.1574635 20.6137347,84.0603154 C20.6137347,81.9631672 22.3194931,80.2574089 24.4166412,80.2574089 Z" id="Shape"></path>
                    <path d="M24.4166412,75.1912481 C25.2227873,75.1912481 25.8770508,74.538445 25.8770508,73.7308385 L25.8770508,70.1426122 C25.8770508,69.3350057 25.2227873,68.6822026 24.4166412,68.6822026 C23.6104952,68.6822026 22.9562317,69.3350057 22.9562317,70.1426122 L22.9562317,73.7308385 C22.9562317,74.5369846 23.6090347,75.1912481 24.4166412,75.1912481 Z" id="Shape"></path>
                    <path d="M28.8080928,76.3566549 C29.0359167,76.4866314 29.2841863,76.5479686 29.5295351,76.5479686 C30.0377577,76.5479686 30.5313761,76.282174 30.8000915,75.8104617 L32.5774099,72.6924873 C32.9761017,71.9929511 32.7322133,71.0991805 32.0312167,70.7004887 C31.3316805,70.3003364 30.4379099,70.5456852 30.0392181,71.2466818 L28.2618996,74.3646563 C27.8632078,75.0641924 28.1070962,75.9565027 28.8080928,76.3566549 Z" id="Shape"></path>
                    <path d="M32.0472812,79.5418082 C32.3203778,80.0018372 32.8066942,80.2574089 33.3046939,80.2574089 C33.5573447,80.2574089 33.8143768,80.1916904 34.0480423,80.0529515 L37.1368086,78.2230583 C37.8305031,77.8126832 38.0597874,76.9159918 37.6494123,76.2222972 C37.2390372,75.5286027 36.3438062,75.2993184 35.6486512,75.7096935 L32.559885,77.5395867 C31.8661904,77.9514222 31.6354457,78.8481136 32.0472812,79.5418082 Z" id="Shape"></path>
                    <path d="M33.2842481,83.912814 C33.2973918,84.711658 33.9487345,85.3483966 34.7446577,85.3483966 L34.7694847,85.3483966 L38.357711,85.2885198 C39.163857,85.2739157 39.8078977,84.6094294 39.7932936,83.8032833 C39.7801499,83.0044393 39.1288072,82.3677007 38.332884,82.3677007 L38.308057,82.3677007 L34.7198307,82.4275775 C33.9136847,82.443642 33.2711044,83.1081283 33.2842481,83.912814 Z" id="Shape"></path>
                    <path d="M37.3222806,89.4696724 L34.175098,87.7449287 C33.4667993,87.3549993 32.5803307,87.6149523 32.1933222,88.3232509 C31.8048532,89.0300891 32.0648061,89.9180181 32.7716444,90.3050267 L35.918827,92.0297704 C36.1408092,92.1524448 36.3817768,92.2094007 36.6183632,92.2094007 C37.1353482,92.2094007 37.6348082,91.9348438 37.9006028,91.4499878 C38.2905321,90.74461 38.0305792,89.8581413 37.3222806,89.4696724 Z" id="Shape"></path>
                    <path d="M31.0717276,92.0954888 C30.6482089,91.4061755 29.750057,91.1929557 29.0622041,91.6164745 C28.3758116,92.0385328 28.1611314,92.9366847 28.5831897,93.6245376 L30.4627368,96.6826353 C30.7387543,97.1324414 31.2177686,97.3792506 31.7084662,97.3792506 C31.9698795,97.3792506 32.2327532,97.309151 32.4722604,97.16311 C33.1586529,96.7410516 33.3733331,95.8428998 32.9512747,95.1550468 L31.0717276,92.0954888 Z" id="Shape"></path>
                    <path d="M24.711644,92.9264618 C23.9054979,92.9527492 23.274601,93.6274584 23.3008883,94.4336045 L23.4206419,98.0203704 C23.4469293,98.810452 24.0953511,99.4325865 24.8795911,99.4325865 C24.8956556,99.4325865 24.9117201,99.4325865 24.929245,99.4311261 C25.7353911,99.4048387 26.366288,98.7301295 26.3400006,97.9239834 L26.2202471,94.3372175 C26.1939597,93.529611 25.5119484,92.8987141 24.711644,92.9264618 Z" id="Shape"></path>
                    <path d="M20.2836822,91.9085564 C19.5680815,91.5317707 18.6859941,91.8077881 18.3106688,92.520468 L16.6384999,95.6968588 C16.2631746,96.4095387 16.5362712,97.2945469 17.2504115,97.6698721 C17.4665521,97.7837841 17.7002176,97.8378192 17.9295019,97.8378192 C18.453789,97.8378192 18.9620115,97.5544998 19.2234248,97.0579605 L20.8955938,93.8815697 C21.270919,93.1674294 20.996362,92.2838816 20.2836822,91.9085564 Z" id="Shape"></path>
                    <path d="M16.9393443,88.8314734 C16.507063,88.152383 15.6045299,87.9537673 14.9225186,88.3860485 L11.89655,90.31671 C11.2174596,90.7504516 11.0173835,91.6529847 11.4511251,92.3335356 C11.7286029,92.770198 12.2017756,93.0082448 12.6837108,93.0082448 C12.9524261,93.0082448 13.2240623,92.9337639 13.4679507,92.7789605 L16.4939193,90.848299 C17.1744702,90.4145574 17.3730859,89.5120243 16.9393443,88.8314734 Z" id="Shape"></path>
                    <path d="M10.5135422,86.2158799 C10.5383691,86.2158799 10.5631961,86.2158799 10.5880231,86.2144195 L14.1718681,86.0347891 C14.9765538,85.9938976 15.5972279,85.3089655 15.5563364,84.5028195 C15.5169053,83.695213 14.8363545,83.0672369 14.0243668,83.1168908 L10.4405217,83.2965212 C9.63583602,83.3374126 9.01516195,84.0223447 9.05605342,84.8284908 C9.09548448,85.6098099 9.74098551,86.2158799 10.5135422,86.2158799 Z" id="Shape"></path>
                    <path d="M11.3357528,79.0847 L14.5384309,80.7042942 C14.7501903,80.8109041 14.9750934,80.860558 15.1970756,80.860558 C15.7301251,80.860558 16.2441893,80.5684761 16.5012214,80.0587932 C16.8663238,79.3402716 16.5771627,78.4611051 15.8586412,78.0960027 L12.655963,76.4764085 C11.9345207,76.1127665 11.0568145,76.3990068 10.6931725,77.1204491 C10.3280702,77.840431 10.6157708,78.7195976 11.3357528,79.0847 Z" id="Shape"></path>
                    <path d="M17.4972207,76.2529658 C17.7776194,76.677945 18.24349,76.9072293 18.7166627,76.9072293 C18.9926801,76.9072293 19.2730787,76.8283672 19.5213484,76.6648013 C20.1931368,76.2193764 20.3786088,75.3139225 19.9331839,74.6406737 L17.9528685,71.6468341 C17.5074436,70.9735852 16.6005292,70.7881132 15.9287408,71.2349986 C15.2569524,71.6804235 15.0714804,72.5858774 15.5169053,73.2591262 L17.4972207,76.2529658 Z" id="Shape"></path>
                </g>
                <g transform="translate(77.714043, 108.443741) rotate(13.000000) translate(-77.714043, -108.443741) translate(35.714043, 84.443741)">
                    <path d="M49.2165537,0.0420666082 C46.7258374,0.0420666082 44.2351212,0.339537623 41.8440335,0.835322648 C39.4529459,0.339537623 36.9622296,0.0420666082 34.4715133,0.0420666082 C15.7413269,0.0420666082 0.597771908,15.2130884 0.597771908,33.7554483 C0.597771908,41.5888517 6.97400559,47.9349 14.844669,47.9349 L68.9430267,47.9349 C76.8136901,47.9349 83.1899238,41.5888517 83.1899238,33.7554483 C83.1899238,15.2130884 67.9467402,0.0420666082 49.2165537,0.0420666082 Z M68.9430267,44.0677768 L14.7450404,44.0677768 C9.06620727,44.0677768 4.48328931,39.5065546 4.48328931,33.8546053 C4.48328931,17.3945425 17.9331572,4.10750381 34.3718847,4.10750381 L34.571142,4.10750381 C32.578569,5.29738787 30.3867386,6.88389995 28.1949083,9.06535406 L21.42016,8.27209802 L22.7153325,13.2299483 C21.8186746,12.6350062 20.8223881,12.2383782 19.726473,12.2383782 C16.8372421,12.2383782 14.4461544,14.6181463 14.4461544,17.4936995 C14.4461544,19.5759966 15.7413269,21.4599797 17.5346426,22.2532357 L11.9554382,23.8397478 L15.4424409,28.599284 C15.143555,28.500127 14.844669,28.500127 14.5457831,28.500127 C11.6565522,28.500127 9.26546457,30.8798952 9.26546457,33.7554483 C9.26546457,36.6310015 11.6565522,39.0107696 14.5457831,39.0107696 C17.136128,39.0107696 19.3279583,37.1267865 19.726473,34.6478614 C24.3093909,10.0569241 41.4455189,5.09907386 42.4418054,4.90075985 C44.7332644,4.40497483 47.0247234,4.10750381 49.3161824,4.10750381 C65.8545385,4.10750381 79.2047778,17.4936995 79.2047778,33.8546053 C79.2047778,39.4073976 74.5222312,44.0677768 68.9430267,44.0677768 Z" id="Shape"></path>
                    <ellipse id="Oval" cx="54.0983576" cy="15.6097164" rx="2.09220168" ry="2.0822971"></ellipse>
                    <ellipse id="Oval" cx="58.282761" cy="29.3925401" rx="2.09220168" ry="2.0822971"></ellipse>
                    <ellipse id="Oval" cx="42.7406914" cy="24.0380618" rx="2.09220168" ry="2.0822971"></ellipse>
                </g>
            </g>
        </g>
    </g>
</svg>