<svg width="112px" height="381px" viewBox="0 0 112 381" version="1.1" xmlns="http://www.w3.org/2000/svg" xmlns:xlink="http://www.w3.org/1999/xlink">
    <g id="Page-1" stroke="none" stroke-width="1" fill="none" fill-rule="evenodd">
        <g id="mexicola-icon-set" fill="#36302B">
            <g id="Group" transform="translate(8.000000, 302.000000)" fill-rule="nonzero">
                <path d="M68.7614915,48.7100833 C71.6139492,48.7100833 74.4877797,48.160375 77.2695424,47.1679375 L78.7442712,42.60075 L81.9502034,33.663875 L72.6562881,36.5342083 C72.0808644,36.7070208 71.4594068,36.5605417 71.028661,36.1441458 C70.5962712,35.7261042 70.4269322,35.1072708 70.5847627,34.5279375 L73.3155593,24.5048125 L63.3031864,27.2385417 C62.7261186,27.39325 62.1063051,27.2270208 61.6887119,26.7941667 C61.2727627,26.3646042 61.1231525,25.7391875 61.2990678,25.1647917 L64.166322,15.8625417 L55.2883559,19.0538125 L51.0811864,20.1268958 C50.2394237,22.3290208 49.6837288,24.6035625 49.4552034,26.8995 C49.0589831,30.859375 49.6442712,34.58225 51.1157119,37.82125 L48.3997119,40.7788125 L45.7544068,37.8953125 C47.3195593,34.592125 47.9525254,30.7721458 47.5447966,26.6987083 C47.0910339,22.13975 45.3614746,17.6647292 42.5977966,13.6916875 L42.4070847,16.5669583 C41.7938475,21.1752917 37.8826102,27.5133958 32.1859153,33.2162083 C27.7074746,37.6978125 22.7637627,41.0964583 18.624,42.5349167 L13.7476949,43.9997083 C18.2228475,46.8930833 23.2652034,48.5109375 28.2385085,48.5109375 C31.2915424,48.5109375 34.1785254,47.874 36.7613559,46.7038125 L40.1218305,49.7963333 L29.8020169,61.0357292 C29.6113051,61.2496875 29.4025085,61.4274375 29.1674068,61.5772083 C27.2356271,62.7885417 21.1262712,66.4933125 21.1262712,66.4933125 C19.8965085,67.2339375 19.0892712,68.47325 18.9133559,69.9001875 C18.7390847,71.327125 19.2191525,72.7260833 20.2351864,73.7432083 L24.1299831,77.6421875 C25.0029831,78.5177708 26.165339,79 27.3983898,79 C29.0424576,79 30.5270508,78.1573333 31.3671695,76.7567292 C31.3671695,76.7567292 35.0728983,70.6342292 36.2829322,68.7020208 C36.4325424,68.4650208 36.6084576,68.2576458 36.8402712,68.0502708 L48.3997119,57.41325 L59.9772373,68.0634375 C60.1926102,68.2576458 60.3685254,68.4650208 60.5164915,68.700375 C61.7281695,70.6342292 65.4289661,76.7501458 65.4289661,76.7501458 C66.2740169,78.1573333 67.7586102,78.9983542 69.4010339,79 L69.402678,79 C70.6357288,79 71.7964407,78.5177708 72.6710847,77.6421875 L76.5658814,73.7432083 C77.5802712,72.7260833 78.0619831,71.327125 77.8877119,69.9018333 C77.7117966,68.4748958 76.9062034,67.2339375 75.6813729,66.4966042 C75.6797288,66.4966042 69.5654407,62.7901875 67.6320169,61.5739167 C67.3952712,61.4257917 67.1881186,61.2513333 66.9826102,61.0192708 L56.6792373,49.7963333 L59.9591525,46.7762292 C62.6110339,48.0287083 65.5983051,48.7100833 68.7614915,48.7100833 L68.7614915,48.7100833 Z M65.8860169,64.3619583 C67.827661,65.5831667 73.9781186,69.312625 73.9830508,69.3159167 C74.3398136,69.529875 74.5732712,69.8903125 74.6242373,70.3034167 C74.6735593,70.7165208 74.5354576,71.1213958 74.2411695,71.416 L70.3463729,75.3149792 C70.0915424,75.5684375 69.7577966,75.7083333 69.402678,75.7083333 C68.9242542,75.7083333 68.4935085,75.46475 68.2452542,75.05 C68.2452542,75.0483542 64.5214407,68.8945833 63.3015424,66.9508542 C62.9908136,66.4554583 62.6110339,66.0045 62.1868644,65.6259583 L50.8296441,55.1765625 L54.2575254,52.0231458 L64.5444576,63.2279792 C64.940678,63.6707083 65.3911525,64.0541875 65.8860169,64.3619583 L65.8860169,64.3619583 Z M42.3462542,47.3720208 L39.77,45.0020208 C39.867,44.9345417 39.9524915,44.8588333 40.0478475,44.7897083 C40.3487119,44.5708125 40.6495763,44.3535625 40.9372881,44.1149167 C41.3680339,43.7610625 41.7806949,43.3940417 42.1670508,43.0072708 C42.583,42.590875 42.9726441,42.1399167 43.3507797,41.6725 C43.528339,41.4568958 43.6960339,41.238 43.8620847,41.0158125 C43.9064746,40.9565625 43.9525085,40.9038958 43.9952542,40.8446458 L46.1670678,43.2113542 L42.3462542,47.3720208 L42.3462542,47.3720208 Z" id="Shape"></path>
                <path d="M91.5022373,6.49775 C87.9576271,2.94933333 83.0106271,0.994083333 77.575339,0.994083333 C70.5847627,0.994083333 63.4330678,4.14091667 57.9550339,9.62483333 C55.9377627,11.642625 54.2591695,13.8908333 52.9159661,16.2690625 L54.3265763,15.9102708 L66.1507119,11.6492083 C66.7343559,11.4401875 67.3919831,11.5767917 67.8424576,12.0096458 C68.2929322,12.4408542 68.4622712,13.0876667 68.2781356,13.6834583 L65.3221017,23.275375 L75.2259661,20.5712708 C75.7931695,20.4165625 76.4031186,20.5762083 76.8207119,20.9958958 C77.2383051,21.4139375 77.3994237,22.0228958 77.2448814,22.5923542 L74.543678,32.5052083 L84.1253051,29.546 C84.7221017,29.3666042 85.3682203,29.5311875 85.7989661,29.9837917 C86.2297119,30.4331042 86.3678136,31.0897917 86.1573729,31.6757083 L81.8564915,43.6623125 L81.3040847,45.3739792 C83.8425254,43.993125 86.2412203,42.2222083 88.3801525,40.0809792 C98.4895254,29.96075 99.8902712,14.8947917 91.5022373,6.49775" id="Shape"></path>
                <path d="M29.8612034,30.889 C34.9939831,25.7490625 38.6339492,20.0001667 39.1370339,16.2394375 L39.5546271,9.97539583 C39.3803559,9.79435417 39.2241695,9.60179167 39.0449661,9.42404167 C33.5669322,3.940125 26.4168814,0.7949375 19.4263051,0.7949375 C13.9893729,0.7949375 9.04237288,2.7501875 5.49776271,6.29860417 C-2.89027119,14.6956458 -1.48952542,29.7599583 8.61984746,39.8801875 C9.20842373,40.4710417 9.82659322,41.0191042 10.451339,41.554 L17.6112542,39.4028958 C21.2331356,38.1438333 25.7214407,35.0315625 29.8612034,30.889" id="Shape"></path>
            </g>
            <g id="Group-3" transform="translate(1.000000, 149.000000)">
                <path d="M41.7863352,31.9765855 C34.5869187,31.9765855 28.7506838,37.9416914 28.7506838,45.2999447 C28.7546828,49.1127691 30.6326407,52.4540356 33.1510856,55.2665654 C40.4792935,63.4515585 54.821985,80.9220706 54.821985,80.9220706 C54.821985,80.9220706 70.1937973,62.9662104 77.5749738,54.1608261 C79.656375,51.6775796 80.8883741,48.5695694 80.8932845,45.2999447 C80.8932845,37.9416914 75.0570496,31.9765855 67.8576347,31.9765855 C60.6582182,31.9765855 54.821985,37.8994799 54.821985,45.2572287 C54.821985,37.8994799 48.9857501,31.9765855 41.7863352,31.9765855 Z" id="Shape" fill-rule="nonzero"></path>
                <path d="M54.7913071,0.830391155 C53.5947167,0.849593245 52.638556,1.85599386 52.6526788,3.08139039 L52.6526788,9.69480427 C52.641589,10.4971501 53.0532433,11.2434559 53.730009,11.6479429 C54.4067747,12.0524298 55.2437989,12.0524298 55.9205646,11.6479429 C56.5973303,11.2434559 57.0089845,10.4971501 56.9978948,9.69480427 L56.9978948,3.08139039 C57.0048167,2.48074793 56.7742861,1.90275733 56.3587119,1.47881895 C55.9431376,1.05488057 55.3778304,0.82101569 54.7913071,0.830391155 L54.7913071,0.830391155 Z" id="Shape"></path>
                <path d="M9.20051177,23.0783695 C8.23758336,23.0786213 7.38967279,23.7278402 7.11710531,24.6735695 C6.84453784,25.6192987 7.21233598,26.6359292 8.02082447,27.1715388 L14.4877237,31.5864235 C15.1334715,32.0426348 15.9692313,32.1069606 16.6743184,31.7547187 C17.3794056,31.4024768 17.8443131,30.6883739 17.890654,29.8864143 C17.9369948,29.0844546 17.5575719,28.3191906 16.8979714,27.8842571 L10.4310722,23.4693724 C10.0690165,23.2143355 9.63995261,23.0777105 9.20050684,23.0775287 L9.20051177,23.0783695 Z" id="Shape"></path>
                <path d="M100.373674,23.0783695 C99.9603584,23.0938327 99.5599375,23.2297712 99.2194587,23.4702132 L92.7525595,27.8850979 C92.0913621,28.319319 91.7105005,29.0851628 91.7564272,29.8881396 C91.8023539,30.6911164 92.2679176,31.4061948 92.9740954,31.7584061 C93.6802732,32.1106174 94.5171061,32.0451186 95.1628072,31.5870962 L101.629706,27.1722115 C102.451445,26.6292384 102.817694,25.5910102 102.524525,24.6356176 C102.231355,23.680225 101.351016,23.0431185 100.373686,23.0790422 L100.373674,23.0783695 Z" id="Shape"></path>
                <path d="M17.8889025,40.874465 C17.8888156,42.1034688 16.9158606,43.0997276 15.715686,43.0997338 C14.5155114,43.0997276 13.5425564,42.1034688 13.5424695,40.874465 C13.5423806,40.2841868 13.7713042,39.7180535 14.1788707,39.3006304 C14.5864371,38.8832074 15.139254,38.6486947 15.715686,38.6486918 C16.292118,38.6486947 16.8449349,38.8832074 17.2525014,39.3006304 C17.6600678,39.7180535 17.8889914,40.2841868 17.8889025,40.874465 Z" id="Shape" fill-rule="nonzero"></path>
                <path d="M48.3054197,16.4017225 C48.3053328,17.6307262 47.3323779,18.6269851 46.1322032,18.6269912 C44.9320286,18.6269851 43.9590736,17.6307262 43.9589867,16.4017225 C43.9588978,15.8114442 44.1878214,15.2453109 44.5953879,14.8278879 C45.0029544,14.4104649 45.5557713,14.1759522 46.1322032,14.1759492 C46.7086352,14.1759522 47.2614521,14.4104649 47.6690186,14.8278879 C48.0765851,15.2453109 48.3055087,15.8114442 48.3054197,16.4017225 L48.3054197,16.4017225 Z" id="Shape" fill-rule="nonzero"></path>
                <path d="M65.6862872,16.4017225 C65.6862003,17.6307268 64.7132443,18.626986 63.513069,18.6269912 C62.3128944,18.6269851 61.3399394,17.6307262 61.3398526,16.4017225 C61.3397636,15.8114442 61.5686872,15.2453109 61.9762537,14.8278879 C62.3838202,14.4104649 62.9366371,14.1759522 63.513069,14.1759492 C64.0895013,14.1759517 64.6423186,14.4104642 65.0498855,14.8278873 C65.4574523,15.2453103 65.6863761,15.8114439 65.6862872,16.4017225 L65.6862872,16.4017225 Z" id="Shape" fill-rule="nonzero"></path>
                <path d="M87.4123707,25.3009475 C87.4121931,26.5298862 86.4392637,27.5260428 85.2391525,27.526048 C84.039042,27.5260419 83.0661136,26.5298855 83.0659361,25.3009475 C83.0658471,24.7106692 83.2947707,24.1445359 83.7023372,23.7271129 C84.1099037,23.3096899 84.6627206,23.0751772 85.2391525,23.0751742 C85.8155848,23.0751767 86.3684021,23.3096892 86.775969,23.7271123 C87.1835358,24.1445353 87.4124596,24.7106689 87.4123707,25.3009475 L87.4123707,25.3009475 Z" id="Shape" fill-rule="nonzero"></path>
                <path d="M96.1028028,40.874465 C96.1027159,42.1034688 95.1297609,43.0997276 93.9295863,43.0997338 C92.7294116,43.0997276 91.7564567,42.1034688 91.7563698,40.874465 C91.7562808,40.2841868 91.9852044,39.7180535 92.3927709,39.3006304 C92.8003374,38.8832074 93.3531543,38.6486947 93.9295863,38.6486918 C94.5060182,38.6486947 95.0588351,38.8832074 95.4664016,39.3006304 C95.8739681,39.7180535 96.1028917,40.2841868 96.1028028,40.874465 Z" id="Shape" fill-rule="nonzero"></path>
                <path d="M26.5793362,25.3009475 C26.5791586,26.5298855 25.6062302,27.5260419 24.4061197,27.526048 C23.2060092,27.5260419 22.2330808,26.5298855 22.2329032,25.3009475 C22.2328143,24.7106692 22.4617379,24.1445359 22.8693044,23.7271129 C23.2768709,23.3096899 23.8296878,23.0751772 24.4061197,23.0751742 C24.9825517,23.0751772 25.5353686,23.3096899 25.9429351,23.7271129 C26.3505016,24.1445359 26.5794252,24.7106692 26.5793362,25.3009475 L26.5793362,25.3009475 Z" id="Shape" fill-rule="nonzero"></path>
                <path d="M54.7913071,96.496429 C53.5947167,96.5156311 52.638556,97.5220317 52.6526788,98.7474283 L52.6526788,105.360842 C52.641589,106.163188 53.0532433,106.909494 53.730009,107.313981 C54.4067747,107.718468 55.2437989,107.718468 55.9205646,107.313981 C56.5973303,106.909494 57.0089845,106.163188 56.9978948,105.360842 L56.9978948,98.7474283 C57.0048167,98.1467858 56.7742861,97.5687952 56.3587119,97.1448568 C55.9431376,96.7209184 55.3778304,96.4870536 54.7913071,96.496429 L54.7913071,96.496429 Z" id="Shape"></path>
                <path d="M15.6419473,76.473383 C15.2286316,76.4888462 14.8282107,76.6247848 14.4877319,76.8652268 L8.02083268,81.2801115 C7.35963531,81.7143326 6.9787737,82.4801763 7.02470039,83.2831531 C7.07062708,84.0861299 7.53619082,84.8012084 8.24236861,85.1534196 C8.94854639,85.5056309 9.78537932,85.4401322 10.4310804,84.9821097 L16.8979796,80.567225 C17.7197215,80.0242504 18.0859706,78.9860174 17.7927965,78.0306225 C17.4996223,77.0752277 16.6192763,76.4381239 15.6419424,76.4740557 L15.6419473,76.473383 Z" id="Shape"></path>
                <path d="M93.9322369,76.473383 C92.9693085,76.4736348 92.1213979,77.1228537 91.8488305,78.068583 C91.576263,79.0143123 91.9440611,80.0309428 92.7525496,80.5665523 L99.2194488,84.981437 C99.8651967,85.4376484 100.700956,85.5019741 101.406044,85.1497322 C102.111131,84.7974903 102.576038,84.0833874 102.622379,83.2814278 C102.66872,82.4794682 102.289297,81.7142041 101.629697,81.2792706 L95.1627973,76.8643859 C94.8007416,76.609349 94.3716778,76.472724 93.932232,76.4725422 L93.9322369,76.473383 Z" id="Shape"></path>
                <path d="M17.8889025,67.5723082 C17.8889479,66.982059 17.660005,66.4159689 17.2524433,65.9985823 C16.8448815,65.5811956 16.2920895,65.346706 15.715686,65.3467031 C15.1392825,65.346706 14.5864905,65.5811956 14.1789287,65.9985823 C13.771367,66.4159689 13.5424241,66.982059 13.5424695,67.5723082 C13.5425564,68.8013119 14.5155114,69.7975708 15.715686,69.7975769 C16.9158606,69.7975708 17.8888156,68.8013119 17.8889025,67.5723082 L17.8889025,67.5723082 Z" id="Shape" fill-rule="nonzero"></path>
                <path d="M48.3054197,92.0450507 C48.3054651,91.4548016 48.0765223,90.8887115 47.6689605,90.4713248 C47.2613988,90.0539382 46.7086067,89.8194486 46.1322032,89.8194457 C45.5557997,89.8194486 45.0030077,90.0539382 44.595446,90.4713248 C44.1878842,90.8887115 43.9589414,91.4548016 43.9589867,92.0450507 C43.9590736,93.2740544 44.9320286,94.2703133 46.1322032,94.2703194 C47.3323779,94.2703133 48.3053328,93.2740544 48.3054197,92.0450507 L48.3054197,92.0450507 Z" id="Shape" fill-rule="nonzero"></path>
                <path d="M65.6862872,92.0450507 C65.6863326,91.4548013 65.4573895,90.8887109 65.0498274,90.4713242 C64.6422653,90.0539376 64.0894728,89.8194482 63.513069,89.8194457 C62.9366655,89.8194486 62.3838735,90.0539382 61.9763118,90.4713248 C61.56875,90.8887115 61.3398072,91.4548016 61.3398526,92.0450507 C61.3399394,93.2740544 62.3128944,94.2703133 63.513069,94.2703194 C64.7132443,94.2703142 65.6862003,93.2740551 65.6862872,92.0450507 L65.6862872,92.0450507 Z" id="Shape" fill-rule="nonzero"></path>
                <path d="M87.4123707,83.1459939 C87.4124596,82.5557154 87.1835358,81.9895818 86.775969,81.5721587 C86.3684021,81.1547357 85.8155848,80.9202232 85.2391525,80.9202207 C84.6627206,80.9202236 84.1099037,81.1547363 83.7023372,81.5721593 C83.2947707,81.9895823 83.0658471,82.5557157 83.0659361,83.1459939 C83.0661136,84.3749319 84.039042,85.3710884 85.2391525,85.3710945 C86.4392637,85.3710893 87.4121931,84.3749326 87.4123707,83.1459939 L87.4123707,83.1459939 Z" id="Shape" fill-rule="nonzero"></path>
                <path d="M96.1028028,67.5723082 C96.1028481,66.982059 95.8739053,66.4159689 95.4663436,65.9985823 C95.0587818,65.5811956 94.5059898,65.346706 93.9295863,65.3467031 C93.3531828,65.346706 92.8003908,65.5811956 92.392829,65.9985823 C91.9852672,66.4159689 91.7563244,66.982059 91.7563698,67.5723082 C91.7564567,68.8013119 92.7294116,69.7975708 93.9295863,69.7975769 C95.1297609,69.7975708 96.1027159,68.8013119 96.1028028,67.5723082 L96.1028028,67.5723082 Z" id="Shape" fill-rule="nonzero"></path>
                <path d="M26.5793362,83.1459939 C26.5794252,82.5557157 26.3505016,81.9895823 25.9429351,81.5721593 C25.5353686,81.1547363 24.9825517,80.9202236 24.4061197,80.9202207 C23.8296878,80.9202236 23.2768709,81.1547363 22.8693044,81.5721593 C22.4617379,81.9895823 22.2328143,82.5557157 22.2329032,83.1459939 C22.2330808,84.3749319 23.2060092,85.3710884 24.4061197,85.3710945 C25.6062302,85.3710884 26.5791586,84.3749319 26.5793362,83.1459939 Z" id="Shape" fill-rule="nonzero"></path>
                <path d="M78.6560632,87.5973722 C78.0922087,87.6134874 77.5565731,87.8535131 77.1624035,88.2667018 L70.6870301,94.8974376 C70.1221806,95.4560537 69.895621,96.2832974 70.0944272,97.0612257 C70.2932334,97.839154 70.8864676,98.4467072 71.6461261,98.6503783 C72.4057846,98.8540494 73.2136508,98.6221435 73.7592294,98.0437913 L80.2346011,91.4125511 C80.8738487,90.772436 81.0649274,89.7966838 80.7161159,88.9536736 C80.3673044,88.1106633 79.5498191,87.5725113 78.6560681,87.5975404 L78.6560632,87.5973722 Z" id="Shape"></path>
                <path d="M72.2061534,87.5973722 C71.3232641,87.5977183 70.5283588,88.1450956 70.1949981,88.9822676 C69.8616375,89.8194397 70.0561089,90.7799381 70.6870219,91.4123829 L77.1623953,98.0436231 C77.7079709,98.6219897 78.515844,98.8539065 79.2755112,98.6502371 C80.0351784,98.4465677 80.6284191,97.8390074 80.8272233,97.0610701 C81.0260274,96.2831328 80.7994567,95.4558821 80.2345929,94.8972694 L73.7592211,88.2665337 C73.3505281,87.838587 72.7906921,87.597312 72.20616,87.5972041 L72.2061534,87.5973722 Z" id="Shape"></path>
                <path d="M37.376505,87.5973722 C36.8126448,87.613483 36.2770026,87.8535091 35.882829,88.2667018 L29.4074572,94.8974376 C28.8426077,95.4560537 28.6160481,96.2832974 28.8148543,97.0612257 C29.0136605,97.839154 29.6068947,98.4467072 30.3665532,98.6503783 C31.1262117,98.8540494 31.9340779,98.6221435 32.4796564,98.0437913 L38.9550282,91.4125511 C39.5942757,90.772436 39.7853544,89.7966838 39.436543,88.9536736 C39.0877315,88.1106633 38.2702462,87.5725113 37.3764952,87.5975404 L37.376505,87.5973722 Z" id="Shape"></path>
                <path d="M30.9265953,87.5973722 C30.0437059,87.5977183 29.2488006,88.1450956 28.91544,88.9822676 C28.5820793,89.8194397 28.7765508,90.7799381 29.4074638,91.4123829 L35.8828355,98.0436231 C36.4284141,98.6219753 37.2362803,98.8538813 37.9959388,98.6502101 C38.7555973,98.446539 39.3488315,97.8389858 39.5476377,97.0610575 C39.7464439,96.2831292 39.5198843,95.4558855 38.9550348,94.8972694 L32.479663,88.2665337 C32.07097,87.838587 31.511134,87.597312 30.9266018,87.5972041 L30.9265953,87.5973722 Z" id="Shape"></path>
                <path d="M78.6560632,9.72961613 C78.0922087,9.74573128 77.5565731,9.98575701 77.1624035,10.3989458 L70.6870301,17.0296815 C70.1221806,17.5882976 69.895621,18.4155413 70.0944272,19.1934696 C70.2932334,19.9713979 70.8864676,20.5789511 71.6461261,20.7826222 C72.4057846,20.9862933 73.2136508,20.7543874 73.7592294,20.1760352 L80.2346011,13.544795 C80.8738487,12.9046799 81.0649274,11.9289277 80.7161159,11.0859175 C80.3673044,10.2429072 79.5498191,9.7047552 78.6560681,9.72978431 L78.6560632,9.72961613 Z" id="Shape"></path>
                <path d="M72.2061534,9.72961613 C71.3232641,9.72996223 70.5283588,10.2773395 70.1949981,11.1145115 C69.8616375,11.9516836 70.0561089,12.912182 70.6870219,13.5446268 L77.1623953,20.175867 C77.7079709,20.7542336 78.515844,20.9861504 79.2755112,20.782481 C80.0351784,20.5788116 80.6284191,19.9712513 80.8272233,19.193314 C81.0260274,18.4153767 80.7994567,17.588126 80.2345929,17.0295133 L73.7592211,10.3987776 C73.3505281,9.97083087 72.7906921,9.72955587 72.20616,9.72944796 L72.2061534,9.72961613 Z" id="Shape"></path>
                <path d="M37.376505,9.72961613 C36.8126448,9.74572695 36.2770026,9.98575302 35.882829,10.3989458 L29.4074572,17.0296815 C28.8426077,17.5882976 28.6160481,18.4155413 28.8148543,19.1934696 C29.0136605,19.9713979 29.6068947,20.5789511 30.3665532,20.7826222 C31.1262117,20.9862933 31.9340779,20.7543874 32.4796564,20.1760352 L38.9550282,13.544795 C39.5942757,12.9046799 39.7853544,11.9289277 39.436543,11.0859175 C39.0877315,10.2429072 38.2702462,9.7047552 37.3764952,9.72978431 L37.376505,9.72961613 Z" id="Shape"></path>
                <path d="M30.9265953,9.72961613 C30.0437059,9.72996223 29.2488006,10.2773395 28.91544,11.1145115 C28.5820793,11.9516836 28.7765508,12.912182 29.4074638,13.5446268 L35.8828355,20.175867 C36.4284141,20.7542192 37.2362803,20.9861252 37.9959388,20.782454 C38.7555973,20.5787829 39.3488315,19.9712297 39.5476377,19.1933014 C39.7464439,18.4153731 39.5198843,17.5881294 38.9550348,17.0295133 L32.479663,10.3987776 C32.07097,9.97083087 31.511134,9.72955587 30.9266018,9.72944796 L30.9265953,9.72961613 Z" id="Shape"></path>
                <path d="M9.13259665,48.6634101 C8.5687364,48.6795209 8.0330942,48.919547 7.63892058,49.3327397 L1.1635488,55.9636436 C0.597357196,56.5219641 0.369775639,57.3498878 0.568421591,58.1286695 C0.767067543,58.9074511 1.36096515,59.5156512 2.12146757,59.7191167 C2.88197,59.9225822 3.6904883,59.6895856 4.23574804,59.1098292 L10.7111198,52.4785889 C11.3503674,51.8384739 11.5414461,50.8627217 11.1926346,50.0197114 C10.8438231,49.1767012 10.0263378,48.6385492 9.13258679,48.6635783 L9.13259665,48.6634101 Z" id="Shape"></path>
                <path d="M2.68268688,48.6634101 C1.79979753,48.6637562 1.00489224,49.2111335 0.671531593,50.0483055 C0.338170946,50.8854775 0.532642406,51.8459759 1.16355537,52.4784207 L7.63892714,59.109661 C8.18418688,59.6894174 8.99270518,59.922414 9.75320761,59.7189485 C10.51371,59.5154831 11.1076076,58.9072829 11.3062536,58.1285013 C11.5048995,57.3497197 11.277318,56.5217959 10.7111264,55.9634754 L4.23575461,49.3325715 C3.82706161,48.9046248 3.26722559,48.6633498 2.68269345,48.6632419 L2.68268688,48.6634101 Z" id="Shape"></path>
                <path d="M106.899972,48.6634101 C106.336117,48.6795252 105.800482,48.919551 105.406312,49.3327397 L98.9309385,55.9636436 C98.3647469,56.5219641 98.1371653,57.3498878 98.3358113,58.1286695 C98.5344573,58.9074511 99.1283549,59.5156512 99.8888573,59.7191167 C100.64936,59.9225822 101.457878,59.6895856 102.003138,59.1098292 L108.47851,52.4785889 C109.117757,51.8384739 109.308836,50.8627217 108.960024,50.0197114 C108.611213,49.1767012 107.793728,48.6385492 106.899977,48.6635783 L106.899972,48.6634101 Z" id="Shape"></path>
                <path d="M100.450062,48.6634101 C99.5671725,48.6637562 98.7722672,49.2111335 98.4389065,50.0483055 C98.1055459,50.8854775 98.3000173,51.8459759 98.9309303,52.4784207 L105.406304,59.109661 C105.951561,59.6894306 106.760085,59.9224373 107.520596,59.7189734 C108.281106,59.5155094 108.87501,58.9073027 109.073654,58.1285128 C109.272298,57.3497229 109.044706,56.5217928 108.478501,55.9634754 L102.00313,49.3325715 C101.594437,48.9046248 101.034601,48.6633498 100.450068,48.6632419 L100.450062,48.6634101 Z" id="Shape"></path>
            </g>
            <g id="Group-8">
                <path d="M55.890624,24.4532 C55.5624347,24.4687603 55.2431318,24.5649268 54.960936,24.7332 L0.9609376,57.4052 C0.363331331,57.7686068 -0.00104319393,58.417774 -2.89768197e-14,59.1172 L-2.89768197e-14,75.4452 C4.92663109e-06,76.1238837 0.344155854,76.7562649 0.9140624,77.1248 L54.914064,112.1248 C55.574978,112.552073 56.425022,112.552073 57.085936,112.1248 L111.085936,77.1248 C111.655843,76.7562653 111.999995,76.123884 112,75.4452 L112,59.1172 C112.000624,58.4182016 111.636304,57.7695854 111.039064,57.4064 L57.039064,24.7344 C56.6932019,24.5274971 56.2929039,24.4299009 55.890624,24.4544 L55.890624,24.4532 Z M55.999984,28.7892 L107.999984,60.242 L107.999984,74.3592 L55.999984,108.0624 L3.999984,74.3592 L3.999984,60.25 L55.999984,28.7892 L55.999984,28.7892 Z" id="Shape"></path>
                <polygon id="Path" points="2 75 56 110 110 75 110 58 56 94 2 59"></polygon>
                <path d="M2.0078124,56.4452 C1.11994027,56.4419588 0.336199604,57.0244026 0.0832201044,57.8754777 C-0.169759395,58.7265528 0.168579743,59.6425314 0.9140624,60.1248 L54.890624,96.1092 C55.5624279,96.5569904 56.4375721,96.5569904 57.109376,96.1092 L111.085936,60.1248 C111.694199,59.7342777 112.044439,59.0459595 112.002058,58.3243674 C111.959678,57.6027753 111.531271,56.9601887 110.881475,56.6435547 C110.23168,56.3269207 109.461603,56.3855075 108.867188,56.7968 L56,92.0468 L3.1328124,56.7968 C2.80168551,56.569122 2.40965758,56.4464608 2.0078124,56.4448 L2.0078124,56.4452 Z" id="Shape"></path>
                <path d="M55.968752,0.4532 C54.8673567,0.470444474 53.9871988,1.37494414 54,2.4764 L54,26.422 C53.9897932,27.1432759 54.368743,27.8141732 54.9917407,28.1777898 C55.6147383,28.5414063 56.3852617,28.5414063 57.0082593,28.1777898 C57.631257,27.8141732 58.0102068,27.1432759 58,26.422 L58,2.4764 C58.006274,1.93651379 57.7940198,1.41702172 57.4114797,1.03599733 C57.0289397,0.654972936 56.508609,0.44478269 55.968752,0.4532 L55.968752,0.4532 Z" id="Shape"></path>
                <path d="M55.890624,4.4532 C55.5617423,4.47118976 55.2423927,4.57011832 54.960936,4.7412 L0.9609376,37.5696 C0.374406708,37.9265531 0.011955744,38.5594001 0.000857112998,39.2459209 C-0.010241518,39.9324417 0.331563553,40.5766741 0.9062496,40.9524 L54.9062476,76.124 C55.5708231,76.5580452 56.4291761,76.5580452 57.0937516,76.124 L111.093752,40.9524 C111.668438,40.5766755 112.010245,39.9324439 111.999148,39.2459231 C111.988051,38.5594024 111.625602,37.9265545 111.039072,37.5696 L57.0390716,4.7412 C56.6940946,4.53150202 56.2937371,4.43110237 55.8906316,4.4532 L55.890624,4.4532 Z M56,8.7892 L106.25,39.336 L56,72.0624 L5.75,39.336 L56,8.7892 Z" id="Shape"></path>
                <path d="M2.0078124,46.4452 C1.11994027,46.4419588 0.336199604,47.0244026 0.0832201044,47.8754777 C-0.169759395,48.7265528 0.168579743,49.6425314 0.9140624,50.1248 L54.890624,86.1092 C55.5624279,86.5569904 56.4375721,86.5569904 57.109376,86.1092 L111.085936,50.1248 C111.694199,49.7342777 112.044439,49.0459595 112.002058,48.3243674 C111.959678,47.6027753 111.531271,46.9601887 110.881475,46.6435547 C110.23168,46.3269207 109.461603,46.3855075 108.867188,46.7968 L56,82.0468 L3.1328124,46.7968 C2.80168551,46.569122 2.40965758,46.4464608 2.0078124,46.4448 L2.0078124,46.4452 Z" id="Shape"></path>
                <path d="M55.867188,14.4532 C55.5530482,14.4725335 55.2479042,14.5657256 54.976564,14.7252 L1.0078124,46.7096 C0.392257964,47.0738159 0.0177833208,47.7387728 0.0254616056,48.4539661 C0.0331398904,49.1691595 0.421804469,49.8259233 1.04503653,50.1768397 C1.6682686,50.5277561 2.43137463,50.519507 3.0468752,50.1552 L56,18.7736 L108.953124,50.1564 C109.568628,50.5207647 110.331772,50.5290486 110.95504,50.1781305 C111.578307,49.8272125 111.966992,49.1704159 111.974655,48.4551903 C111.982317,47.7399647 111.607794,47.0749911 110.992188,46.7108 L57.023436,14.7264 C56.6744534,14.5207461 56.2712547,14.4258961 55.867188,14.4544 L55.867188,14.4532 Z" id="Shape"></path>
                <path d="M109.968752,32.4532 C108.867357,32.4704446 107.987199,33.3749442 108,34.4764 L108,58.422 C107.989787,59.1432799 108.368736,59.8141837 108.991736,60.1778041 C109.614736,60.5414245 110.385264,60.5414245 111.008264,60.1778041 C111.631264,59.8141837 112.010213,59.1432799 112,58.422 L112,34.4764 C112.006274,33.9365138 111.79402,33.4170218 111.41148,33.0359974 C111.02894,32.654973 110.508609,32.4447828 109.968752,32.4532 L109.968752,32.4532 Z" id="Shape"></path>
                <path d="M1.96875,32.4532 C0.867355585,32.4704457 -0.0128010631,33.374945 1.40692308e-14,34.4764 L1.40692308e-14,58.422 C-0.0102129276,59.1432799 0.368735505,59.8141837 0.991735692,60.1778041 C1.61473588,60.5414245 2.38526412,60.5414245 3.00826431,60.1778041 C3.6312645,59.8141837 4.01021293,59.1432799 4,58.422 L4,34.4764 C4.00627399,33.9365135 3.79401942,33.4170211 3.41147894,33.0359967 C3.02893847,32.6549722 2.50860737,32.4447822 1.96875,32.4532 L1.96875,32.4532 Z" id="Shape"></path>
                <path d="M55.968752,64.4532 C54.8673568,64.4704446 53.9871989,65.3749442 54,66.4764 L54,90.422 C53.9897871,91.1432799 54.3687355,91.8141837 54.9917357,92.1778041 C55.6147359,92.5414245 56.3852641,92.5414245 57.0082643,92.1778041 C57.6312645,91.8141837 58.0102129,91.1432799 58,90.422 L58,66.4764 C58.006274,65.9365138 57.7940197,65.4170218 57.4114796,65.0359974 C57.0289396,64.654973 56.508609,64.4447828 55.968752,64.4532 L55.968752,64.4532 Z" id="Shape"></path>
            </g>
        </g>
    </g>
</svg>