<svg xmlns="http://www.w3.org/2000/svg" version="1.1" width="1024" height="1024">
<rect x="0" y="0" width="1024" height="1024" fill="#6a6a6a" />
<g transform="scale(4.000000) translate(0.5 0.5)">
<polygon fill="#ffffff" fill-opacity="0.501961" points="-15,-11 92,-16 -3,204" />
<polygon fill="#ffffff" fill-opacity="0.501961" points="177,-16 251,196 271,-1" />
<polygon fill="#000000" fill-opacity="0.501961" points="262,266 172,264 198,27" />
<polygon fill="#000000" fill-opacity="0.501961" points="112,-16 13,153 215,51" />
<polygon fill="#000000" fill-opacity="0.501961" points="-16,206 23,271 103,177" />
<polygon fill="#ffffff" fill-opacity="0.501961" points="271,174 222,192 155,173" />
<polygon fill="#ffffff" fill-opacity="0.501961" points="160,-16 271,3 240,96" />
<polygon fill="#ffffff" fill-opacity="0.501961" points="5,176 -16,-12 83,-16" />
<polygon fill="#000000" fill-opacity="0.501961" points="-16,251 47,183 73,266" />
<polygon fill="#000000" fill-opacity="0.501961" points="241,271 157,189 271,191" />
<polygon fill="#000000" fill-opacity="0.501961" points="59,61 170,6 62,159" />
<polygon fill="#dedede" fill-opacity="0.501961" points="-8,163 118,172 -16,199" />
<polygon fill="#ffffff" fill-opacity="0.501961" points="111,-16 191,4 32,7" />
<polygon fill="#000000" fill-opacity="0.501961" points="142,-2 211,52 224,175" />
<polygon fill="#797979" fill-opacity="0.501961" points="92,201 93,82 179,59" />
<polygon fill="#000000" fill-opacity="0.501961" points="88,187 -6,269 13,190" />
<polygon fill="#000000" fill-opacity="0.501961" points="179,181 271,235 175,271" />
<polygon fill="#fbfbfb" fill-opacity="0.501961" points="229,157 211,32 247,114" />
<polygon fill="#ffffff" fill-opacity="0.501961" points="254,-16 271,102 160,-9" />
<polygon fill="#f5f5f5" fill-opacity="0.501961" points="176,183 221,171 271,190" />
<polygon fill="#282828" fill-opacity="0.501961" points="35,94 31,150 98,149" />
<polygon fill="#7e7e7e" fill-opacity="0.501961" points="49,270 195,110 168,251" />
<polygon fill="#000000" fill-opacity="0.501961" points="238,172 189,170 198,62" />
<polygon fill="#bebebe" fill-opacity="0.501961" points="-10,258 30,116 -16,155" />
<polygon fill="#ebebeb" fill-opacity="0.501961" points="92,168 75,141 71,182" />
<polygon fill="#000000" fill-opacity="0.501961" points="81,32 51,127 182,10" />
<polygon fill="#f6f6f6" fill-opacity="0.501961" points="-6,-16 17,124 77,31" />
<polygon fill="#505050" fill-opacity="0.501961" points="66,9 75,32 149,3" />
<polygon fill="#000000" fill-opacity="0.501961" points="67,271 -16,244 57,188" />
<polygon fill="#797979" fill-opacity="0.501961" points="245,73 271,164 240,175" />
<polygon fill="#292929" fill-opacity="0.501961" points="78,135 132,207 102,196" />
<polygon fill="#000000" fill-opacity="0.501961" points="265,183 171,245 254,271" />
<polygon fill="#f1f1f1" fill-opacity="0.501961" points="225,150 246,102 238,160" />
<polygon fill="#e5e5e5" fill-opacity="0.501961" points="13,174 45,188 89,178" />
<polygon fill="#585858" fill-opacity="0.501961" points="141,122 110,55 96,109" />
<polygon fill="#505050" fill-opacity="0.501961" points="31,180 1,170 64,170" />
<polygon fill="#808080" fill-opacity="0.501961" points="195,28 206,56 181,34" />
<polygon fill="#161616" fill-opacity="0.501961" points="88,11 206,47 221,94" />
<polygon fill="#d5d5d5" fill-opacity="0.501961" points="12,201 13,179 -12,216" />
<polygon fill="#707070" fill-opacity="0.501961" points="67,271 119,167 64,207" />
<polygon fill="#ededed" fill-opacity="0.501961" points="52,99 -16,59 43,-16" />
<polygon fill="#000000" fill-opacity="0.501961" points="-6,262 96,177 8,204" />
<polygon fill="#0d0d0d" fill-opacity="0.501961" points="168,105 185,118 158,117" />
<polygon fill="#000000" fill-opacity="0.501961" points="271,256 189,263 175,178" />
<polygon fill="#c1c1c1" fill-opacity="0.501961" points="235,107 213,93 226,128" />
<polygon fill="#8a8a8a" fill-opacity="0.501961" points="194,109 142,141 187,162" />
<polygon fill="#000000" fill-opacity="0.501961" points="66,57 52,83 96,140" />
<polygon fill="#606060" fill-opacity="0.501961" points="34,122 80,143 18,140" />
<polygon fill="#e3e3e3" fill-opacity="0.501961" points="58,175 6,175 17,188" />
<polygon fill="#a0a0a0" fill-opacity="0.501961" points="75,25 85,9 101,26" />
<polygon fill="#959595" fill-opacity="0.501961" points="101,99 126,85 179,102" />
<polygon fill="#0f0f0f" fill-opacity="0.501961" points="69,39 174,8 130,84" />
<polygon fill="#d1d1d1" fill-opacity="0.501961" points="258,171 202,188 271,190" />
<polygon fill="#090909" fill-opacity="0.501961" points="67,103 81,147 32,97" />
<polygon fill="#7e7e7e" fill-opacity="0.501961" points="155,49 169,93 112,176" />
<polygon fill="#ffffff" fill-opacity="0.501961" points="38,0 104,6 127,-16" />
<polygon fill="#0a0a0a" fill-opacity="0.501961" points="123,116 132,103 106,113" />
<polygon fill="#0c0c0c" fill-opacity="0.501961" points="199,169 246,172 191,111" />
<polygon fill="#1a1a1a" fill-opacity="0.501961" points="87,6 65,16 110,12" />
<polygon fill="#0c0c0c" fill-opacity="0.501961" points="156,48 186,27 116,0" />
<polygon fill="#919191" fill-opacity="0.501961" points="97,119 134,124 108,177" />
<polygon fill="#383838" fill-opacity="0.501961" points="72,150 28,164 75,166" />
<polygon fill="#515151" fill-opacity="0.501961" points="195,104 130,66 173,44" />
<polygon fill="#000000" fill-opacity="0.501961" points="60,271 62,191 13,188" />
<polygon fill="#cecece" fill-opacity="0.501961" points="142,7 145,-16 182,7" />
<polygon fill="#d6d6d6" fill-opacity="0.501961" points="249,135 259,170 243,163" />
<polygon fill="#6f6f6f" fill-opacity="0.501961" points="69,33 58,69 78,49" />
<polygon fill="#6c6c6c" fill-opacity="0.501961" points="98,166 179,154 173,252" />
<polygon fill="#cdcdcd" fill-opacity="0.501961" points="207,188 171,180 217,171" />
<polygon fill="#444444" fill-opacity="0.501961" points="61,124 42,93 31,120" />
<polygon fill="#f5f5f5" fill-opacity="0.501961" points="210,57 258,17 229,109" />
<polygon fill="#f3f3f3" fill-opacity="0.501961" points="254,50 265,-12 191,39" />
<polygon fill="#222222" fill-opacity="0.501961" points="174,2 164,86 192,61" />
<polygon fill="#909090" fill-opacity="0.501961" points="229,103 222,131 244,92" />
<polygon fill="#9b9b9b" fill-opacity="0.501961" points="47,68 55,75 62,59" />
<polygon fill="#000000" fill-opacity="0.501961" points="90,159 71,132 87,142" />
<polygon fill="#cfcfcf" fill-opacity="0.501961" points="-5,133 35,134 33,78" />
<polygon fill="#5e5e5e" fill-opacity="0.501961" points="236,165 245,128 246,153" />
<polygon fill="#010101" fill-opacity="0.501961" points="185,192 172,271 271,189" />
<polygon fill="#555555" fill-opacity="0.501961" points="88,204 92,171 163,209" />
<polygon fill="#040404" fill-opacity="0.501961" points="191,158 196,76 228,139" />
<polygon fill="#cdcdcd" fill-opacity="0.501961" points="234,145 239,155 219,152" />
<polygon fill="#808080" fill-opacity="0.501961" points="193,171 112,171 132,198" />
<polygon fill="#7f7f7f" fill-opacity="0.501961" points="64,161 26,162 64,147" />
<polygon fill="#f3f3f3" fill-opacity="0.501961" points="67,-16 63,59 -4,-7" />
<polygon fill="#454545" fill-opacity="0.501961" points="20,137 22,166 45,122" />
<polygon fill="#7d7d7d" fill-opacity="0.501961" points="252,75 239,77 245,89" />
<polygon fill="#717171" fill-opacity="0.501961" points="100,9 127,-6 139,8" />
<polygon fill="#f5f5f5" fill-opacity="0.501961" points="243,88 220,102 221,116" />
<polygon fill="#fefefe" fill-opacity="0.501961" points="267,87 251,90 250,35" />
<polygon fill="#f6f6f6" fill-opacity="0.501961" points="209,-16 247,58 177,13" />
<polygon fill="#575757" fill-opacity="0.501961" points="71,117 102,169 95,132" />
<polygon fill="#848484" fill-opacity="0.501961" points="95,236 157,271 157,208" />
<polygon fill="#6e6e6e" fill-opacity="0.501961" points="190,130 148,64 193,101" />
<polygon fill="#010101" fill-opacity="0.501961" points="88,46 88,132 51,87" />
<polygon fill="#434343" fill-opacity="0.501961" points="234,160 250,170 221,172" />
<polygon fill="#343434" fill-opacity="0.501961" points="21,171 6,170 5,175" />
<polygon fill="#464646" fill-opacity="0.501961" points="218,193 243,203 231,206" />
<polygon fill="#d3d3d3" fill-opacity="0.501961" points="54,168 81,167 91,177" />
<polygon fill="#545454" fill-opacity="0.501961" points="162,207 185,170 142,203" />
<polygon fill="#bebebe" fill-opacity="0.501961" points="2,173 -16,192 66,185" />
<polygon fill="#0c0c0c" fill-opacity="0.501961" points="73,116 29,132 73,131" />
<polygon fill="#cacaca" fill-opacity="0.501961" points="22,145 -10,118 -3,187" />
<polygon fill="#bdbdbd" fill-opacity="0.501961" points="2,228 -16,228 0,172" />
<polygon fill="#eeeeee" fill-opacity="0.501961" points="73,10 32,-16 109,0" />
<polygon fill="#d6d6d6" fill-opacity="0.501961" points="74,148 82,172 82,149" />
<polygon fill="#6b6b6b" fill-opacity="0.501961" points="111,65 112,108 90,125" />
<polygon fill="#2e2e2e" fill-opacity="0.501961" points="117,57 88,79 148,84" />
<polygon fill="#545454" fill-opacity="0.501961" points="50,172 74,170 66,175" />
<polygon fill="#474747" fill-opacity="0.501961" points="141,105 114,99 141,122" />
<polygon fill="#ffffff" fill-opacity="0.501961" points="166,6 124,-16 179,-10" />
<polygon fill="#efefef" fill-opacity="0.501961" points="215,80 256,26 235,95" />
<polygon fill="#b6b6b6" fill-opacity="0.501961" points="101,23 81,14 90,13" />
<polygon fill="#c4c4c4" fill-opacity="0.501961" points="233,190 271,174 189,172" />
<polygon fill="#9b9b9b" fill-opacity="0.501961" points="189,29 202,36 207,30" />
<polygon fill="#838383" fill-opacity="0.501961" points="148,126 147,67 164,64" />
<polygon fill="#000000" fill-opacity="0.501961" points="-2,271 85,271 5,207" />
<polygon fill="#d9d9d9" fill-opacity="0.501961" points="0,161 34,168 -16,171" />
<polygon fill="#e2e2e2" fill-opacity="0.501961" points="46,92 59,66 -16,99" />
<polygon fill="#0a0a0a" fill-opacity="0.501961" points="179,38 212,70 216,137" />
<polygon fill="#313131" fill-opacity="0.501961" points="21,150 72,146 50,135" />
<polygon fill="#5f5f5f" fill-opacity="0.501961" points="169,180 162,143 122,164" />
<polygon fill="#2f2f2f" fill-opacity="0.501961" points="79,11 129,27 130,11" />
<polygon fill="#717171" fill-opacity="0.501961" points="161,206 69,236 67,201" />
<polygon fill="#b5b5b5" fill-opacity="0.501961" points="14,197 -13,225 -2,160" />
<polygon fill="#ffffff" fill-opacity="0.501961" points="45,170 58,169 48,167" />
<polygon fill="#000000" fill-opacity="0.501961" points="196,271 178,184 221,192" />
<polygon fill="#7e7e7e" fill-opacity="0.501961" points="247,107 238,98 269,88" />
<polygon fill="#6f6f6f" fill-opacity="0.501961" points="246,133 271,103 245,118" />
<polygon fill="#000000" fill-opacity="0.501961" points="23,193 -2,243 92,182" />
<polygon fill="#c7c7c7" fill-opacity="0.501961" points="89,168 92,180 60,169" />
<polygon fill="#525252" fill-opacity="0.501961" points="71,10 71,29 83,30" />
<polygon fill="#464646" fill-opacity="0.501961" points="180,37 212,60 206,45" />
<polygon fill="#8d8d8d" fill-opacity="0.501961" points="34,137 49,134 23,132" />
<polygon fill="#cacaca" fill-opacity="0.501961" points="222,106 213,95 218,97" />
<polygon fill="#a9a9a9" fill-opacity="0.501961" points="76,52 74,56 72,49" />
<polygon fill="#4d4d4d" fill-opacity="0.501961" points="177,13 187,43 190,27" />
<polygon fill="#dddddd" fill-opacity="0.501961" points="63,35 78,35 68,24" />
<polygon fill="#262626" fill-opacity="0.501961" points="218,104 211,133 209,94" />
<polygon fill="#8d8d8d" fill-opacity="0.501961" points="50,151 37,158 20,151" />
<polygon fill="#050505" fill-opacity="0.501961" points="87,56 68,135 63,58" />
<polygon fill="#d1d1d1" fill-opacity="0.501961" points="212,190 183,176 254,175" />
<polygon fill="#efefef" fill-opacity="0.501961" points="231,114 241,138 243,100" />
<polygon fill="#333333" fill-opacity="0.501961" points="64,130 33,111 52,96" />
<polygon fill="#696969" fill-opacity="0.501961" points="88,142 76,132 78,116" />
<polygon fill="#1b1b1b" fill-opacity="0.501961" points="109,13 96,32 147,44" />
<polygon fill="#989898" fill-opacity="0.501961" points="112,4 108,9 91,5" />
<polygon fill="#3c3c3c" fill-opacity="0.501961" points="10,170 38,171 23,175" />
<polygon fill="#393939" fill-opacity="0.501961" points="116,25 137,22 118,-4" />
<polygon fill="#181818" fill-opacity="0.501961" points="198,146 184,161 233,156" />
<polygon fill="#1c1c1c" fill-opacity="0.501961" points="182,116 168,110 160,120" />
<polygon fill="#858585" fill-opacity="0.501961" points="174,178 174,114 192,135" />
<polygon fill="#080808" fill-opacity="0.501961" points="2,215 17,242 10,202" />
<polygon fill="#cbcbcb" fill-opacity="0.501961" points="271,173 216,187 256,190" />
<polygon fill="#818181" fill-opacity="0.501961" points="271,147 246,153 254,134" />
<polygon fill="#1c1c1c" fill-opacity="0.501961" points="85,9 71,11 70,16" />
<polygon fill="#000000" fill-opacity="0.501961" points="69,185 89,191 88,180" />
<polygon fill="#989898" fill-opacity="0.501961" points="68,166 91,168 73,175" />
<polygon fill="#3b3b3b" fill-opacity="0.501961" points="131,202 107,193 93,170" />
<polygon fill="#cfcfcf" fill-opacity="0.501961" points="59,186 85,176 24,175" />
<polygon fill="#0c0c0c" fill-opacity="0.501961" points="143,8 111,89 177,15" />
<polygon fill="#777777" fill-opacity="0.501961" points="45,69 60,66 56,63" />
<polygon fill="#000000" fill-opacity="0.501961" points="78,140 85,140 91,162" />
<polygon fill="#212121" fill-opacity="0.501961" points="39,108 66,98 33,100" />
<polygon fill="#000000" fill-opacity="0.501961" points="217,112 212,127 228,142" />
<polygon fill="#080808" fill-opacity="0.501961" points="49,162 54,165 63,163" />
<polygon fill="#e3e3e3" fill-opacity="0.501961" points="-16,-15 42,91 6,116" />
<polygon fill="#f0f0f0" fill-opacity="0.501961" points="262,-4 209,48 258,81" />
<polygon fill="#313131" fill-opacity="0.501961" points="61,210 70,195 87,190" />
<polygon fill="#4f4f4f" fill-opacity="0.501961" points="159,105 151,117 190,106" />
<polygon fill="#7e7e7e" fill-opacity="0.501961" points="176,180 143,200 104,162" />
<polygon fill="#4c4c4c" fill-opacity="0.501961" points="178,94 192,90 185,60" />
<polygon fill="#2e2e2e" fill-opacity="0.501961" points="23,156 36,165 20,165" />
<polygon fill="#393939" fill-opacity="0.501961" points="177,28 195,32 188,39" />
<polygon fill="#cecece" fill-opacity="0.501961" points="258,160 245,149 243,166" />
<polygon fill="#6f6f6f" fill-opacity="0.501961" points="29,129 35,133 34,107" />
<polygon fill="#f7f7f7" fill-opacity="0.501961" points="172,-12 271,4 183,18" />
<polygon fill="#777777" fill-opacity="0.501961" points="181,170 191,151 123,163" />
<polygon fill="#cecece" fill-opacity="0.501961" points="210,61 217,55 215,70" />
<polygon fill="#4b4b4b" fill-opacity="0.501961" points="140,-1 151,6 150,12" />
<polygon fill="#2a2a2a" fill-opacity="0.501961" points="90,110 98,91 92,68" />
<polygon fill="#5b5b5b" fill-opacity="0.501961" points="68,260 70,220 61,228" />
<polygon fill="#e4e4e4" fill-opacity="0.501961" points="237,160 228,136 242,104" />
<polygon fill="#383838" fill-opacity="0.501961" points="125,73 144,92 137,57" />
<polygon fill="#4e4e4e" fill-opacity="0.501961" points="61,130 71,138 65,167" />
<polygon fill="#4e4e4e" fill-opacity="0.501961" points="94,106 96,159 86,140" />
<polygon fill="#7a7a7a" fill-opacity="0.501961" points="49,99 38,95 55,92" />
<polygon fill="#434343" fill-opacity="0.501961" points="164,169 153,173 136,167" />
<polygon fill="#454545" fill-opacity="0.501961" points="19,135 65,135 23,152" />
<polygon fill="#a2a2a2" fill-opacity="0.501961" points="227,132 226,120 223,130" />
<polygon fill="#050505" fill-opacity="0.501961" points="209,269 181,212 174,232" />
<polygon fill="#858585" fill-opacity="0.501961" points="156,127 145,98 148,149" />
<polygon fill="#7b7b7b" fill-opacity="0.501961" points="183,20 170,6 174,0" />
<polygon fill="#5c5c5c" fill-opacity="0.501961" points="90,192 92,167 121,211" />
<polygon fill="#808080" fill-opacity="0.501961" points="12,189 -9,188 0,192" />
<polygon fill="#2e2e2e" fill-opacity="0.501961" points="50,174 42,171 37,173" />
<polygon fill="#4c4c4c" fill-opacity="0.501961" points="174,244 170,220 179,202" />
<polygon fill="#626262" fill-opacity="0.501961" points="60,124 51,118 41,120" />
<polygon fill="#050505" fill-opacity="0.501961" points="114,110 126,110 124,116" />
<polygon fill="#7f7f7f" fill-opacity="0.501961" points="242,166 251,173 270,165" />
<polygon fill="#e7e7e7" fill-opacity="0.501961" points="30,170 45,167 30,166" />
<polygon fill="#070707" fill-opacity="0.501961" points="95,92 50,93 60,70" />
<polygon fill="#545454" fill-opacity="0.501961" points="7,170 13,175 20,169" />
<polygon fill="#7c7c7c" fill-opacity="0.501961" points="94,263 66,212 155,262" />
<polygon fill="#171717" fill-opacity="0.501961" points="158,7 165,58 189,44" />
<polygon fill="#979797" fill-opacity="0.501961" points="213,97 220,105 219,89" />
<polygon fill="#575757" fill-opacity="0.501961" points="70,34 71,56 75,41" />
<polygon fill="#525252" fill-opacity="0.501961" points="131,87 106,80 106,67" />
<polygon fill="#545454" fill-opacity="0.501961" points="36,175 62,174 48,170" />
<polygon fill="#d9d9d9" fill-opacity="0.501961" points="178,181 185,174 201,177" />
<polygon fill="#5e5e5e" fill-opacity="0.501961" points="225,146 230,155 221,154" />
<polygon fill="#0a0a0a" fill-opacity="0.501961" points="98,81 81,29 121,42" />
<polygon fill="#6e6e6e" fill-opacity="0.501961" points="111,8 115,1 123,10" />
<polygon fill="#ffffff" fill-opacity="0.501961" points="140,2 130,-4 136,-7" />
<polygon fill="#484848" fill-opacity="0.501961" points="139,145 148,150 133,157" />
<polygon fill="#121212" fill-opacity="0.501961" points="69,161 73,166 72,149" />
<polygon fill="#a0a0a0" fill-opacity="0.501961" points="-16,208 -16,235 4,226" />
<polygon fill="#070707" fill-opacity="0.501961" points="224,247 250,198 271,266" />
<polygon fill="#ececec" fill-opacity="0.501961" points="248,145 246,141 250,132" />
<polygon fill="#040404" fill-opacity="0.501961" points="166,38 152,8 119,32" />
<polygon fill="#585858" fill-opacity="0.501961" points="139,70 164,46 142,92" />
<polygon fill="#101010" fill-opacity="0.501961" points="69,145 72,140 72,156" />
<polygon fill="#8f8f8f" fill-opacity="0.501961" points="75,23 68,13 73,30" />
<polygon fill="#878787" fill-opacity="0.501961" points="138,106 118,88 181,102" />
<polygon fill="#080808" fill-opacity="0.501961" points="89,129 52,93 90,114" />
<polygon fill="#c0c0c0" fill-opacity="0.501961" points="-11,165 21,143 12,166" />
<polygon fill="#f0f0f0" fill-opacity="0.501961" points="32,74 60,-16 62,56" />
<polygon fill="#777777" fill-opacity="0.501961" points="178,20 187,22 193,34" />
<polygon fill="#696969" fill-opacity="0.501961" points="113,201 63,218 92,187" />
<polygon fill="#dadada" fill-opacity="0.501961" points="88,178 90,162 79,176" />
<polygon fill="#000000" fill-opacity="0.501961" points="86,150 68,116 73,138" />
<polygon fill="#000000" fill-opacity="0.501961" points="223,150 197,139 226,137" />
<polygon fill="#c7c7c7" fill-opacity="0.501961" points="-6,174 59,176 35,188" />
<polygon fill="#090909" fill-opacity="0.501961" points="44,115 53,111 55,118" />
<polygon fill="#4b4b4b" fill-opacity="0.501961" points="32,129 54,128 38,124" />
<polygon fill="#eeeeee" fill-opacity="0.501961" points="207,42 219,34 195,35" />
<polygon fill="#252525" fill-opacity="0.501961" points="208,94 209,73 219,90" />
<polygon fill="#484848" fill-opacity="0.501961" points="171,88 154,48 176,72" />
<polygon fill="#959595" fill-opacity="0.501961" points="219,174 206,171 195,176" />
<polygon fill="#e7e7e7" fill-opacity="0.501961" points="234,98 222,117 219,107" />
<polygon fill="#000000" fill-opacity="0.501961" points="51,127 40,124 52,123" />
<polygon fill="#6c6c6c" fill-opacity="0.501961" points="160,260 173,210 174,254" />
<polygon fill="#e6e6e6" fill-opacity="0.501961" points="192,21 190,30 213,26" />
<polygon fill="#5a5a5a" fill-opacity="0.501961" points="118,234 113,226 97,228" />
<polygon fill="#6c6c6c" fill-opacity="0.501961" points="103,81 100,109 124,108" />
<polygon fill="#c1c1c1" fill-opacity="0.501961" points="81,13 83,24 84,15" />
<polygon fill="#1f1f1f" fill-opacity="0.501961" points="254,190 241,209 224,210" />
<polygon fill="#6b6b6b" fill-opacity="0.501961" points="87,158 84,165 83,153" />
<polygon fill="#6f6f6f" fill-opacity="0.501961" points="120,119 163,115 165,149" />
<polygon fill="#181818" fill-opacity="0.501961" points="99,19 109,40 136,39" />
<polygon fill="#000000" fill-opacity="0.501961" points="234,209 188,242 177,182" />
<polygon fill="#d1d1d1" fill-opacity="0.501961" points="226,81 215,72 217,84" />
<polygon fill="#8e8e8e" fill-opacity="0.501961" points="241,76 247,96 247,74" />
<polygon fill="#000000" fill-opacity="0.501961" points="224,124 208,148 218,114" />
<polygon fill="#434343" fill-opacity="0.501961" points="84,28 89,27 89,19" />
<polygon fill="#676767" fill-opacity="0.501961" points="191,115 169,110 191,100" />
<polygon fill="#131313" fill-opacity="0.501961" points="190,157 185,171 242,170" />
<polygon fill="#4f4f4f" fill-opacity="0.501961" points="173,117 171,122 185,118" />
<polygon fill="#828282" fill-opacity="0.501961" points="130,240 170,229 151,260" />
<polygon fill="#7f7f7f" fill-opacity="0.501961" points="242,98 254,100 249,111" />
<polygon fill="#030303" fill-opacity="0.501961" points="48,207 13,189 47,193" />
<polygon fill="#020202" fill-opacity="0.501961" points="195,127 215,92 193,109" />
<polygon fill="#bcbcbc" fill-opacity="0.501961" points="73,151 80,147 73,146" />
<polygon fill="#5a5a5a" fill-opacity="0.501961" points="94,98 91,114 122,117" />
<polygon fill="#000000" fill-opacity="0.501961" points="11,202 58,188 36,271" />
<polygon fill="#dddddd" fill-opacity="0.501961" points="62,38 72,44 60,27" />
<polygon fill="#333333" fill-opacity="0.501961" points="90,6 101,21 143,19" />
<polygon fill="#878787" fill-opacity="0.501961" points="230,108 228,117 237,101" />
<polygon fill="#c7c7c7" fill-opacity="0.501961" points="71,176 64,187 28,177" />
<polygon fill="#757575" fill-opacity="0.501961" points="67,151 26,159 48,162" />
<polygon fill="#474747" fill-opacity="0.501961" points="65,49 74,51 79,41" />
<polygon fill="#494949" fill-opacity="0.501961" points="235,163 235,172 228,166" />
<polygon fill="#020202" fill-opacity="0.501961" points="49,188 -16,254 69,271" />
<polygon fill="#313131" fill-opacity="0.501961" points="165,51 126,66 153,46" />
<polygon fill="#737373" fill-opacity="0.501961" points="183,170 125,173 163,191" />
<polygon fill="#3e3e3e" fill-opacity="0.501961" points="142,168 126,165 132,169" />
<polygon fill="#878787" fill-opacity="0.501961" points="97,112 110,156 137,133" />
<polygon fill="#000000" fill-opacity="0.501961" points="51,188 68,197 88,186" />
<polygon fill="#585858" fill-opacity="0.501961" points="145,235 171,227 159,226" />
<polygon fill="#e6e6e6" fill-opacity="0.501961" points="254,109 259,80 270,109" />
<polygon fill="#3a3a3a" fill-opacity="0.501961" points="63,156 65,164 78,168" />
<polygon fill="#adadad" fill-opacity="0.501961" points="45,69 59,67 49,72" />
<polygon fill="#b9b9b9" fill-opacity="0.501961" points="50,93 37,95 38,89" />
<polygon fill="#717171" fill-opacity="0.501961" points="105,151 99,159 91,128" />
<polygon fill="#454545" fill-opacity="0.501961" points="42,127 40,120 29,130" />
<polygon fill="#161616" fill-opacity="0.501961" points="92,7 82,10 97,15" />
<polygon fill="#b5b5b5" fill-opacity="0.501961" points="67,17 64,12 68,6" />
<polygon fill="#828282" fill-opacity="0.501961" points="167,218 111,216 125,236" />
<polygon fill="#4f4f4f" fill-opacity="0.501961" points="141,206 124,199 168,197" />
<polygon fill="#545454" fill-opacity="0.501961" points="254,208 267,172 265,231" />
<polygon fill="#393939" fill-opacity="0.501961" points="119,74 112,96 112,68" />
<polygon fill="#eeeeee" fill-opacity="0.501961" points="69,170 63,167 58,171" />
<polygon fill="#efefef" fill-opacity="0.501961" points="45,89 52,70 31,78" />
<polygon fill="#292929" fill-opacity="0.501961" points="115,22 125,5 139,11" />
<polygon fill="#aaaaaa" fill-opacity="0.501961" points="93,20 94,24 99,27" />
<polygon fill="#060606" fill-opacity="0.501961" points="184,49 201,98 212,78" />
<polygon fill="#707070" fill-opacity="0.501961" points="67,149 70,160 71,154" />
<polygon fill="#969696" fill-opacity="0.501961" points="248,154 241,164 236,161" />
<polygon fill="#747474" fill-opacity="0.501961" points="265,139 253,146 263,189" />
<polygon fill="#b4b4b4" fill-opacity="0.501961" points="197,182 188,184 209,189" />
<polygon fill="#ececec" fill-opacity="0.501961" points="245,109 241,100 228,119" />
<polygon fill="#3f3f3f" fill-opacity="0.501961" points="134,117 133,105 118,100" />
<polygon fill="#0f0f0f" fill-opacity="0.501961" points="176,113 165,118 164,112" />
<polygon fill="#8c8c8c" fill-opacity="0.501961" points="195,42 190,42 192,38" />
<polygon fill="#f5f5f5" fill-opacity="0.501961" points="27,166 22,169 16,167" />
<polygon fill="#686868" fill-opacity="0.501961" points="138,11 134,1 142,5" />
<polygon fill="#050505" fill-opacity="0.501961" points="80,181 12,208 -16,265" />
<polygon fill="#f9f9f9" fill-opacity="0.501961" points="49,169 49,167 42,168" />
<polygon fill="#f0f0f0" fill-opacity="0.501961" points="225,40 246,94 221,76" />
<polygon fill="#d7d7d7" fill-opacity="0.501961" points="16,90 27,135 -16,122" />
<polygon fill="#f3f3f3" fill-opacity="0.501961" points="54,0 75,9 111,-10" />
<polygon fill="#cbcbcb" fill-opacity="0.501961" points="80,168 68,171 91,175" />
<polygon fill="#1a1a1a" fill-opacity="0.501961" points="218,101 197,129 210,137" />
<polygon fill="#030303" fill-opacity="0.501961" points="232,155 236,163 224,157" />
<polygon fill="#7d7d7d" fill-opacity="0.501961" points="172,90 157,95 190,107" />
<polygon fill="#171717" fill-opacity="0.501961" points="77,38 104,28 78,56" />
<polygon fill="#717171" fill-opacity="0.501961" points="143,92 167,77 155,57" />
<polygon fill="#333333" fill-opacity="0.501961" points="192,77 172,47 165,66" />
<polygon fill="#383838" fill-opacity="0.501961" points="69,149 42,150 30,139" />
<polygon fill="#b8b8b8" fill-opacity="0.501961" points="-9,180 11,198 -12,224" />
<polygon fill="#a0a0a0" fill-opacity="0.501961" points="70,175 90,166 84,173" />
<polygon fill="#6a6a6a" fill-opacity="0.501961" points="99,250 81,235 120,245" />
<polygon fill="#3d3d3d" fill-opacity="0.501961" points="116,35 125,39 129,35" />
<polygon fill="#9e9e9e" fill-opacity="0.501961" points="241,94 251,90 248,104" />
<polygon fill="#575757" fill-opacity="0.501961" points="190,150 195,152 186,154" />
<polygon fill="#666666" fill-opacity="0.501961" points="171,11 161,8 167,7" />
<polygon fill="#464646" fill-opacity="0.501961" points="108,10 91,5 102,20" />
<polygon fill="#141414" fill-opacity="0.501961" points="46,163 39,165 32,163" />
<polygon fill="#000000" fill-opacity="0.501961" points="192,149 193,133 216,149" />
<polygon fill="#464646" fill-opacity="0.501961" points="72,210 70,201 82,217" />
<polygon fill="#c8c8c8" fill-opacity="0.501961" points="216,94 221,104 214,97" />
<polygon fill="#1c1c1c" fill-opacity="0.501961" points="170,10 162,38 181,30" />
<polygon fill="#7d7d7d" fill-opacity="0.501961" points="63,136 64,133 54,134" />
<polygon fill="#626262" fill-opacity="0.501961" points="74,119 81,138 87,131" />
<polygon fill="#393939" fill-opacity="0.501961" points="157,6 160,11 145,7" />
<polygon fill="#515151" fill-opacity="0.501961" points="77,30 81,17 81,33" />
<polygon fill="#676767" fill-opacity="0.501961" points="122,83 138,88 112,93" />
<polygon fill="#e0e0e0" fill-opacity="0.501961" points="244,111 236,159 226,128" />
<polygon fill="#7a7a7a" fill-opacity="0.501961" points="51,84 53,98 49,97" />
<polygon fill="#dadada" fill-opacity="0.501961" points="104,-8 105,5 89,5" />
<polygon fill="#242424" fill-opacity="0.501961" points="67,66 61,65 69,53" />
<polygon fill="#cfcfcf" fill-opacity="0.501961" points="74,162 74,154 84,163" />
<polygon fill="#181818" fill-opacity="0.501961" points="117,20 99,10 112,11" />
<polygon fill="#545454" fill-opacity="0.501961" points="44,115 47,109 38,110" />
<polygon fill="#efefef" fill-opacity="0.501961" points="249,89 271,42 271,93" />
<polygon fill="#050505" fill-opacity="0.501961" points="185,271 175,231 189,202" />
<polygon fill="#4a4a4a" fill-opacity="0.501961" points="240,156 242,150 240,146" />
<polygon fill="#303030" fill-opacity="0.501961" points="76,200 87,191 74,194" />
<polygon fill="#444444" fill-opacity="0.501961" points="103,29 93,30 95,26" />
<polygon fill="#898989" fill-opacity="0.501961" points="142,6 151,4 145,-1" />
<polygon fill="#000000" fill-opacity="0.501961" points="226,143 212,131 226,134" />
<polygon fill="#686868" fill-opacity="0.501961" points="179,201 175,186 146,216" />
<polygon fill="#7e7e7e" fill-opacity="0.501961" points="73,47 73,56 69,57" />
<polygon fill="#131313" fill-opacity="0.501961" points="35,132 31,128 36,128" />
<polygon fill="#e6e6e6" fill-opacity="0.501961" points="34,170 47,169 39,167" />
<polygon fill="#464646" fill-opacity="0.501961" points="90,158 109,187 94,182" />
<polygon fill="#515151" fill-opacity="0.501961" points="204,49 201,43 193,48" />
<polygon fill="#878787" fill-opacity="0.501961" points="216,89 217,100 221,94" />
<polygon fill="#cdcdcd" fill-opacity="0.501961" points="73,29 67,32 80,34" />
<polygon fill="#e1e1e1" fill-opacity="0.501961" points="223,119 229,106 219,96" />
<polygon fill="#cbcbcb" fill-opacity="0.501961" points="20,156 -16,141 19,142" />
<polygon fill="#c3c3c3" fill-opacity="0.501961" points="44,189 -4,181 21,176" />
<polygon fill="#838383" fill-opacity="0.501961" points="191,122 159,123 180,162" />
<polygon fill="#fefefe" fill-opacity="0.501961" points="168,5 159,-2 180,-13" />
<polygon fill="#6a6a6a" fill-opacity="0.501961" points="93,129 94,108 110,109" />
<polygon fill="#1b1b1b" fill-opacity="0.501961" points="220,197 243,190 211,190" />
<polygon fill="#878787" fill-opacity="0.501961" points="105,99 129,89 146,98" />
<polygon fill="#878787" fill-opacity="0.501961" points="254,138 255,118 244,114" />
<polygon fill="#828282" fill-opacity="0.501961" points="130,169 149,198 103,163" />
<polygon fill="#434343" fill-opacity="0.501961" points="97,87 106,66 116,74" />
<polygon fill="#1d1d1d" fill-opacity="0.501961" points="116,111 125,115 120,118" />
<polygon fill="#a1a1a1" fill-opacity="0.501961" points="124,2 135,3 119,-15" />
<polygon fill="#5d5d5d" fill-opacity="0.501961" points="187,79 152,93 188,89" />
<polygon fill="#595959" fill-opacity="0.501961" points="69,175 65,171 57,172" />
<polygon fill="#838383" fill-opacity="0.501961" points="150,91 144,123 156,146" />
<polygon fill="#8f8f8f" fill-opacity="0.501961" points="68,13 64,11 74,10" />
<polygon fill="#545454" fill-opacity="0.501961" points="150,152 158,159 160,147" />
<polygon fill="#575757" fill-opacity="0.501961" points="130,143 140,133 142,139" />
<polygon fill="#767676" fill-opacity="0.501961" points="144,140 113,150 113,170" />
<polygon fill="#bebebe" fill-opacity="0.501961" points="217,55 213,52 211,54" />
<polygon fill="#9d9d9d" fill-opacity="0.501961" points="225,132 222,130 229,119" />
<polygon fill="#010101" fill-opacity="0.501961" points="86,146 76,143 68,122" />
<polygon fill="#ececec" fill-opacity="0.501961" points="-2,-16 67,45 40,75" />
<polygon fill="#202020" fill-opacity="0.501961" points="209,52 204,46 198,52" />
<polygon fill="#adadad" fill-opacity="0.501961" points="107,2 109,5 117,-1" />
<polygon fill="#cccccc" fill-opacity="0.501961" points="271,169 196,185 254,189" />
<polygon fill="#151515" fill-opacity="0.501961" points="52,165 44,165 48,163" />
<polygon fill="#676767" fill-opacity="0.501961" points="95,160 141,200 116,192" />
<polygon fill="#ededed" fill-opacity="0.501961" points="69,37 61,-16 -16,-13" />
<polygon fill="#696969" fill-opacity="0.501961" points="64,217 69,200 78,230" />
<polygon fill="#595959" fill-opacity="0.501961" points="188,31 188,23 184,20" />
<polygon fill="#747474" fill-opacity="0.501961" points="192,35 199,43 190,43" />
<polygon fill="#0f0f0f" fill-opacity="0.501961" points="34,129 48,130 34,133" />
<polygon fill="#5f5f5f" fill-opacity="0.501961" points="19,141 33,142 21,135" />
<polygon fill="#5f5f5f" fill-opacity="0.501961" points="126,-16 118,14 115,3" />
<polygon fill="#191919" fill-opacity="0.501961" points="135,58 118,80 115,51" />
<polygon fill="#6e6e6e" fill-opacity="0.501961" points="109,77 112,88 100,105" />
<polygon fill="#bababa" fill-opacity="0.501961" points="246,143 243,158 255,166" />
<polygon fill="#171717" fill-opacity="0.501961" points="178,41 185,47 197,45" />
<polygon fill="#555555" fill-opacity="0.501961" points="216,93 221,91 213,78" />
</g>
</svg>