<svg xmlns="http://www.w3.org/2000/svg" version="1.1" width="1024" height="940">
<rect x="0" y="0" width="1024" height="940" fill="#6a6056" />
<g transform="scale(4.000000) translate(0.5 0.5)">
<polygon fill="#ffead8" fill-opacity="0.501961" points="166,98 122,204 47,-16" />
<polygon fill="#000000" fill-opacity="0.501961" points="155,250 271,230 151,-16" />
<polygon fill="#fffff9" fill-opacity="0.501961" points="271,203 184,47 251,-9" />
<polygon fill="#000000" fill-opacity="0.501961" points="-16,247 65,113 169,241" />
<polygon fill="#ffffff" fill-opacity="0.501961" points="-2,223 -16,88 58,85" />
<polygon fill="#262e1f" fill-opacity="0.501961" points="12,55 222,34 187,-16" />
<polygon fill="#ffbcb0" fill-opacity="0.501961" points="72,115 149,202 122,20" />
<polygon fill="#ffffec" fill-opacity="0.501961" points="167,-16 55,33 59,-16" />
<polygon fill="#000005" fill-opacity="0.501961" points="271,250 136,225 186,72" />
<polygon fill="#fffff5" fill-opacity="0.501961" points="59,130 -16,168 29,77" />
<polygon fill="#000000" fill-opacity="0.501961" points="76,171 71,36 47,89" />
<polygon fill="#142f15" fill-opacity="0.501961" points="-16,83 6,-16 67,68" />
<polygon fill="#00030a" fill-opacity="0.501961" points="81,128 -8,246 153,250" />
<polygon fill="#ffc0ad" fill-opacity="0.501961" points="108,26 163,104 144,173" />
<polygon fill="#ffeed1" fill-opacity="0.501961" points="271,148 215,88 225,-16" />
<polygon fill="#ffe4d8" fill-opacity="0.501961" points="105,36 68,84 141,79" />
<polygon fill="#da9d8b" fill-opacity="0.501961" points="114,190 156,198 73,101" />
<polygon fill="#ffffff" fill-opacity="0.501961" points="15,178 -9,250 -16,139" />
<polygon fill="#120f10" fill-opacity="0.501961" points="128,42 183,131 179,44" />
<polygon fill="#3c3132" fill-opacity="0.501961" points="160,11 87,16 44,68" />
<polygon fill="#161718" fill-opacity="0.501961" points="5,208 163,206 24,162" />
<polygon fill="#d8caaf" fill-opacity="0.501961" points="121,-16 39,18 63,41" />
<polygon fill="#978e56" fill-opacity="0.501961" points="271,141 205,100 262,196" />
<polygon fill="#aaa198" fill-opacity="0.501961" points="46,74 53,97 -16,85" />
<polygon fill="#d4bfa5" fill-opacity="0.501961" points="215,121 269,29 221,-16" />
<polygon fill="#faeadc" fill-opacity="0.501961" points="181,42 218,39 211,71" />
<polygon fill="#6e554d" fill-opacity="0.501961" points="55,176 48,137 6,163" />
<polygon fill="#ffffff" fill-opacity="0.501961" points="247,75 240,117 271,125" />
<polygon fill="#fff8ec" fill-opacity="0.501961" points="-14,148 53,116 3,102" />
<polygon fill="#0c0f10" fill-opacity="0.501961" points="271,217 89,211 246,173" />
<polygon fill="#b38a71" fill-opacity="0.501961" points="130,197 106,163 159,147" />
<polygon fill="#5d6b53" fill-opacity="0.501961" points="62,32 50,86 9,18" />
<polygon fill="#090606" fill-opacity="0.501961" points="54,84 62,130 77,39" />
<polygon fill="#eeab9e" fill-opacity="0.501961" points="75,55 155,134 74,118" />
<polygon fill="#fdcfbb" fill-opacity="0.501961" points="120,172 119,191 143,197" />
<polygon fill="#967162" fill-opacity="0.501961" points="133,94 111,82 71,97" />
<polygon fill="#5b523f" fill-opacity="0.501961" points="225,113 248,177 215,144" />
<polygon fill="#ffccbf" fill-opacity="0.501961" points="76,59 110,129 97,44" />
<polygon fill="#bce67b" fill-opacity="0.501961" points="181,21 160,15 192,15" />
<polygon fill="#050502" fill-opacity="0.501961" points="78,169 111,174 63,101" />
<polygon fill="#0a250c" fill-opacity="0.501961" points="157,14 205,6 119,-7" />
<polygon fill="#f0e7cf" fill-opacity="0.501961" points="201,78 213,63 207,101" />
<polygon fill="#5f4439" fill-opacity="0.501961" points="168,195 155,126 149,194" />
<polygon fill="#847d51" fill-opacity="0.501961" points="219,39 203,8 221,6" />
<polygon fill="#655851" fill-opacity="0.501961" points="67,126 53,139 47,93" />
<polygon fill="#1e261f" fill-opacity="0.501961" points="43,71 -12,81 -16,-5" />
<polygon fill="#ffebd6" fill-opacity="0.501961" points="74,12 113,4 54,-16" />
<polygon fill="#e5d7c9" fill-opacity="0.501961" points="41,87 53,129 30,154" />
<polygon fill="#7f6f5f" fill-opacity="0.501961" points="42,83 -8,101 -15,87" />
<polygon fill="#2e2829" fill-opacity="0.501961" points="122,50 201,76 150,0" />
<polygon fill="#ffbeb4" fill-opacity="0.501961" points="153,83 80,119 158,114" />
<polygon fill="#f9e1bf" fill-opacity="0.501961" points="238,-11 219,2 271,6" />
<polygon fill="#ffc7c3" fill-opacity="0.501961" points="137,139 102,161 96,150" />
<polygon fill="#888255" fill-opacity="0.501961" points="55,-16 57,30 32,33" />
<polygon fill="#7c6b5e" fill-opacity="0.501961" points="121,-16 124,58 138,11" />
<polygon fill="#0b1116" fill-opacity="0.501961" points="111,188 157,250 201,224" />
<polygon fill="#685b54" fill-opacity="0.501961" points="74,96 91,88 93,104" />
<polygon fill="#39342e" fill-opacity="0.501961" points="91,22 143,18 58,58" />
<polygon fill="#766f65" fill-opacity="0.501961" points="252,7 249,43 263,31" />
<polygon fill="#ca857f" fill-opacity="0.501961" points="96,149 79,119 139,124" />
<polygon fill="#716859" fill-opacity="0.501961" points="216,120 206,104 213,77" />
<polygon fill="#231f1e" fill-opacity="0.501961" points="15,185 110,162 109,198" />
<polygon fill="#9c6956" fill-opacity="0.501961" points="160,95 135,52 136,72" />
<polygon fill="#373c2b" fill-opacity="0.501961" points="137,13 220,25 178,43" />
<polygon fill="#f7e6d6" fill-opacity="0.501961" points="271,41 244,52 271,112" />
<polygon fill="#292019" fill-opacity="0.501961" points="222,128 233,131 234,150" />
<polygon fill="#191715" fill-opacity="0.501961" points="245,234 200,77 156,124" />
<polygon fill="#a8947b" fill-opacity="0.501961" points="229,128 211,106 243,109" />
<polygon fill="#41502c" fill-opacity="0.501961" points="28,33 52,-16 -16,1" />
<polygon fill="#a69f91" fill-opacity="0.501961" points="6,116 31,116 28,122" />
<polygon fill="#fffffe" fill-opacity="0.501961" points="271,89 254,130 243,80" />
<polygon fill="#c3c8b2" fill-opacity="0.501961" points="207,17 222,13 211,8" />
<polygon fill="#c69a90" fill-opacity="0.501961" points="145,70 114,34 98,43" />
<polygon fill="#111111" fill-opacity="0.501961" points="50,72 75,96 65,134" />
<polygon fill="#93715f" fill-opacity="0.501961" points="132,172 110,187 110,164" />
<polygon fill="#d4aa94" fill-opacity="0.501961" points="105,90 72,92 71,80" />
<polygon fill="#1d1f21" fill-opacity="0.501961" points="59,211 6,203 30,157" />
<polygon fill="#ffffef" fill-opacity="0.501961" points="-9,153 -16,198 15,177" />
<polygon fill="#b8aa9d" fill-opacity="0.501961" points="45,132 54,131 52,101" />
<polygon fill="#b59f95" fill-opacity="0.501961" points="43,149 23,135 -4,135" />
<polygon fill="#c7ae8f" fill-opacity="0.501961" points="135,-15 81,18 130,6" />
<polygon fill="#6d5747" fill-opacity="0.501961" points="221,12 206,28 218,32" />
<polygon fill="#060708" fill-opacity="0.501961" points="223,161 266,214 252,181" />
<polygon fill="#233f17" fill-opacity="0.501961" points="163,13 228,-10 204,15" />
<polygon fill="#aab282" fill-opacity="0.501961" points="271,199 236,163 271,181" />
<polygon fill="#fffff3" fill-opacity="0.501961" points="-1,226 -16,219 7,199" />
<polygon fill="#988774" fill-opacity="0.501961" points="6,201 -12,194 10,193" />
<polygon fill="#86625e" fill-opacity="0.501961" points="110,101 110,90 128,92" />
<polygon fill="#554f4a" fill-opacity="0.501961" points="96,14 170,12 106,39" />
<polygon fill="#fdb9ac" fill-opacity="0.501961" points="118,155 93,100 141,147" />
<polygon fill="#b0a9a3" fill-opacity="0.501961" points="47,89 11,80 44,74" />
<polygon fill="#acd07e" fill-opacity="0.501961" points="190,21 196,17 178,16" />
<polygon fill="#ffd1c3" fill-opacity="0.501961" points="140,83 105,41 73,74" />
<polygon fill="#fffaeb" fill-opacity="0.501961" points="44,138 6,118 -16,133" />
<polygon fill="#dcbe9f" fill-opacity="0.501961" points="225,11 248,83 250,-16" />
<polygon fill="#ebc0ac" fill-opacity="0.501961" points="111,185 139,183 139,197" />
<polygon fill="#6b5853" fill-opacity="0.501961" points="13,149 30,163 68,151" />
<polygon fill="#cabbaa" fill-opacity="0.501961" points="85,18 62,-1 60,42" />
<polygon fill="#4a5942" fill-opacity="0.501961" points="74,62 57,30 -16,39" />
<polygon fill="#cdc6bf" fill-opacity="0.501961" points="191,40 178,45 195,57" />
<polygon fill="#1d1b1a" fill-opacity="0.501961" points="137,25 194,63 223,178" />
<polygon fill="#a99a8a" fill-opacity="0.501961" points="223,70 201,76 191,60" />
<polygon fill="#e3e4da" fill-opacity="0.501961" points="34,90 50,125 44,84" />
<polygon fill="#000000" fill-opacity="0.501961" points="206,15 205,34 202,21" />
<polygon fill="#946e59" fill-opacity="0.501961" points="156,162 156,138 136,154" />
<polygon fill="#ffcdc3" fill-opacity="0.501961" points="90,118 113,107 95,83" />
<polygon fill="#30320c" fill-opacity="0.501961" points="263,-16 251,14 269,17" />
<polygon fill="#f4bead" fill-opacity="0.501961" points="137,72 105,89 148,88" />
<polygon fill="#c3c07f" fill-opacity="0.501961" points="253,129 271,184 236,137" />
<polygon fill="#4d473b" fill-opacity="0.501961" points="47,93 54,90 48,108" />
<polygon fill="#656865" fill-opacity="0.501961" points="81,34 50,41 34,64" />
<polygon fill="#221f1e" fill-opacity="0.501961" points="145,178 219,133 178,193" />
<polygon fill="#0b120f" fill-opacity="0.501961" points="28,61 22,76 -1,70" />
<polygon fill="#8d7e6a" fill-opacity="0.501961" points="210,-5 218,37 206,31" />
<polygon fill="#83965d" fill-opacity="0.501961" points="22,27 13,29 38,41" />
<polygon fill="#150f0d" fill-opacity="0.501961" points="156,129 201,107 160,168" />
<polygon fill="#e4b6af" fill-opacity="0.501961" points="77,124 73,106 95,105" />
<polygon fill="#f1eada" fill-opacity="0.501961" points="208,95 212,69 202,80" />
<polygon fill="#3e2f2c" fill-opacity="0.501961" points="45,181 51,131 61,178" />
<polygon fill="#fdfcf3" fill-opacity="0.501961" points="1,112 52,121 40,107" />
<polygon fill="#807c59" fill-opacity="0.501961" points="230,161 269,178 233,149" />
<polygon fill="#33312d" fill-opacity="0.501961" points="125,49 142,13 209,32" />
<polygon fill="#a48d7b" fill-opacity="0.501961" points="28,165 23,154 -15,163" />
<polygon fill="#ffcec7" fill-opacity="0.501961" points="121,111 146,83 140,118" />
<polygon fill="#506833" fill-opacity="0.501961" points="142,-7 219,-16 221,12" />
<polygon fill="#e9a88e" fill-opacity="0.501961" points="120,166 149,145 154,95" />
<polygon fill="#cfc7b7" fill-opacity="0.501961" points="222,14 213,104 243,108" />
<polygon fill="#a87d6f" fill-opacity="0.501961" points="95,136 82,127 110,119" />
<polygon fill="#feffee" fill-opacity="0.501961" points="70,28 60,32 58,25" />
<polygon fill="#090a0a" fill-opacity="0.501961" points="107,165 75,141 100,183" />
<polygon fill="#1c1f22" fill-opacity="0.501961" points="-10,250 22,169 65,200" />
<polygon fill="#b3a89a" fill-opacity="0.501961" points="46,125 41,119 26,120" />
<polygon fill="#908d7f" fill-opacity="0.501961" points="212,100 230,110 215,118" />
<polygon fill="#ac9876" fill-opacity="0.501961" points="38,19 51,27 32,28" />
<polygon fill="#819865" fill-opacity="0.501961" points="175,14 166,19 155,14" />
<polygon fill="#c9a28b" fill-opacity="0.501961" points="146,196 153,189 118,175" />
<polygon fill="#f0edcf" fill-opacity="0.501961" points="10,189 7,169 21,168" />
<polygon fill="#060908" fill-opacity="0.501961" points="56,80 69,71 74,126" />
<polygon fill="#c69681" fill-opacity="0.501961" points="78,47 89,48 72,70" />
<polygon fill="#3b2d2d" fill-opacity="0.501961" points="50,84 53,53 101,22" />
<polygon fill="#c6baad" fill-opacity="0.501961" points="13,155 33,147 6,148" />
<polygon fill="#1d291a" fill-opacity="0.501961" points="133,5 195,15 140,-16" />
<polygon fill="#5c684b" fill-opacity="0.501961" points="55,-12 56,10 -16,-5" />
<polygon fill="#fffeed" fill-opacity="0.501961" points="2,139 24,143 6,146" />
<polygon fill="#d59a91" fill-opacity="0.501961" points="128,93 116,94 107,124" />
<polygon fill="#565c4c" fill-opacity="0.501961" points="14,59 -1,36 26,60" />
<polygon fill="#928d7f" fill-opacity="0.501961" points="-16,119 -16,111 14,117" />
<polygon fill="#634335" fill-opacity="0.501961" points="139,53 144,80 157,85" />
<polygon fill="#43342e" fill-opacity="0.501961" points="166,176 159,118 152,146" />
<polygon fill="#141618" fill-opacity="0.501961" points="77,227 271,242 236,165" />
<polygon fill="#847770" fill-opacity="0.501961" points="99,39 126,39 130,28" />
<polygon fill="#796c64" fill-opacity="0.501961" points="81,21 90,26 111,11" />
<polygon fill="#c3bfb7" fill-opacity="0.501961" points="-16,102 13,95 47,108" />
<polygon fill="#12120f" fill-opacity="0.501961" points="70,113 64,176 94,148" />
<polygon fill="#c19480" fill-opacity="0.501961" points="112,185 136,181 152,134" />
<polygon fill="#f0f4f5" fill-opacity="0.501961" points="39,109 -2,113 -14,100" />
<polygon fill="#7b5e4a" fill-opacity="0.501961" points="77,86 86,89 92,98" />
<polygon fill="#97837c" fill-opacity="0.501961" points="53,89 52,80 23,84" />
<polygon fill="#785345" fill-opacity="0.501961" points="147,189 156,194 143,170" />
<polygon fill="#ca7681" fill-opacity="0.501961" points="97,140 94,130 124,130" />
<polygon fill="#7c6b5c" fill-opacity="0.501961" points="20,154 13,173 21,162" />
<polygon fill="#2f2521" fill-opacity="0.501961" points="36,11 31,29 22,22" />
<polygon fill="#f3e4cd" fill-opacity="0.501961" points="94,-12 81,15 60,-2" />
<polygon fill="#ced1c2" fill-opacity="0.501961" points="209,12 223,11 213,15" />
<polygon fill="#c48572" fill-opacity="0.501961" points="122,78 98,86 108,94" />
<polygon fill="#335132" fill-opacity="0.501961" points="33,32 46,29 46,59" />
<polygon fill="#998672" fill-opacity="0.501961" points="70,6 65,13 63,10" />
<polygon fill="#bfb6b0" fill-opacity="0.501961" points="203,35 197,43 222,38" />
<polygon fill="#c8927d" fill-opacity="0.501961" points="150,130 161,101 154,90" />
<polygon fill="#898877" fill-opacity="0.501961" points="271,77 243,77 271,88" />
<polygon fill="#ccb799" fill-opacity="0.501961" points="240,83 241,131 228,114" />
<polygon fill="#edf0e9" fill-opacity="0.501961" points="35,97 37,104 10,99" />
<polygon fill="#dba39a" fill-opacity="0.501961" points="113,164 96,142 98,157" />
<polygon fill="#817e5f" fill-opacity="0.501961" points="215,60 213,79 217,70" />
<polygon fill="#d2c4b8" fill-opacity="0.501961" points="77,18 114,-16 113,7" />
<polygon fill="#2c2322" fill-opacity="0.501961" points="113,12 124,13 125,25" />
<polygon fill="#202020" fill-opacity="0.501961" points="159,94 179,44 184,126" />
<polygon fill="#2e2d27" fill-opacity="0.501961" points="80,29 113,27 87,44" />
<polygon fill="#fbc4b6" fill-opacity="0.501961" points="105,48 86,86 79,54" />
<polygon fill="#faf4e7" fill-opacity="0.501961" points="-16,115 35,123 35,139" />
<polygon fill="#6a745f" fill-opacity="0.501961" points="49,28 61,33 60,56" />
<polygon fill="#131518" fill-opacity="0.501961" points="190,225 108,186 15,233" />
<polygon fill="#37302c" fill-opacity="0.501961" points="57,121 52,86 60,98" />
<polygon fill="#3b3029" fill-opacity="0.501961" points="96,193 113,186 107,177" />
<polygon fill="#6b6354" fill-opacity="0.501961" points="233,135 238,129 248,129" />
<polygon fill="#ffddd4" fill-opacity="0.501961" points="133,65 121,80 101,50" />
<polygon fill="#6f6f40" fill-opacity="0.501961" points="22,12 25,40 14,18" />
<polygon fill="#d4a292" fill-opacity="0.501961" points="138,82 159,100 131,56" />
<polygon fill="#fffcef" fill-opacity="0.501961" points="7,202 -1,221 -16,194" />
<polygon fill="#362d25" fill-opacity="0.501961" points="159,57 158,72 123,42" />
<polygon fill="#2f331e" fill-opacity="0.501961" points="13,6 15,48 -1,35" />
<polygon fill="#66534d" fill-opacity="0.501961" points="39,140 51,135 40,155" />
<polygon fill="#b4a483" fill-opacity="0.501961" points="45,29 45,19 69,18" />
<polygon fill="#5a5239" fill-opacity="0.501961" points="215,16 221,16 216,34" />
<polygon fill="#cc8276" fill-opacity="0.501961" points="108,112 123,118 125,125" />
<polygon fill="#1b1916" fill-opacity="0.501961" points="222,154 238,216 251,180" />
<polygon fill="#af9892" fill-opacity="0.501961" points="41,146 39,139 19,139" />
<polygon fill="#050504" fill-opacity="0.501961" points="152,71 166,71 170,89" />
<polygon fill="#fdfeed" fill-opacity="0.501961" points="242,119 243,84 271,86" />
<polygon fill="#485451" fill-opacity="0.501961" points="29,52 59,47 40,74" />
<polygon fill="#46332d" fill-opacity="0.501961" points="157,196 148,171 171,193" />
<polygon fill="#7f655b" fill-opacity="0.501961" points="121,90 115,96 131,91" />
<polygon fill="#766c67" fill-opacity="0.501961" points="62,40 81,39 76,29" />
<polygon fill="#131211" fill-opacity="0.501961" points="54,135 95,150 90,178" />
<polygon fill="#ffffff" fill-opacity="0.501961" points="-8,158 -16,139 8,155" />
<polygon fill="#c79e95" fill-opacity="0.501961" points="73,104 87,99 93,105" />
<polygon fill="#a38d67" fill-opacity="0.501961" points="112,8 130,9 133,-12" />
<polygon fill="#cfc3b0" fill-opacity="0.501961" points="219,39 216,73 261,38" />
<polygon fill="#63463f" fill-opacity="0.501961" points="122,38 125,51 136,52" />
<polygon fill="#ddd5b4" fill-opacity="0.501961" points="257,110 230,114 246,107" />
<polygon fill="#4a4434" fill-opacity="0.501961" points="244,167 212,134 223,155" />
<polygon fill="#ccc4bf" fill-opacity="0.501961" points="11,97 41,84 48,92" />
<polygon fill="#1f2b1c" fill-opacity="0.501961" points="203,-1 167,13 199,14" />
<polygon fill="#0d0c04" fill-opacity="0.501961" points="-10,61 11,70 2,57" />
<polygon fill="#9abd84" fill-opacity="0.501961" points="178,1 193,-13 207,-6" />
<polygon fill="#f5bead" fill-opacity="0.501961" points="152,126 99,147 140,148" />
<polygon fill="#141312" fill-opacity="0.501961" points="74,152 114,180 47,166" />
<polygon fill="#282420" fill-opacity="0.501961" points="234,141 190,122 214,120" />
<polygon fill="#b1a69c" fill-opacity="0.501961" points="14,137 -16,141 -16,131" />
<polygon fill="#677d48" fill-opacity="0.501961" points="31,43 42,32 24,35" />
<polygon fill="#6f785c" fill-opacity="0.501961" points="237,111 239,108 229,110" />
<polygon fill="#a3a373" fill-opacity="0.501961" points="239,149 265,204 271,179" />
<polygon fill="#7a6c65" fill-opacity="0.501961" points="184,40 192,35 198,37" />
<polygon fill="#dbb7a1" fill-opacity="0.501961" points="125,193 151,197 137,185" />
<polygon fill="#191614" fill-opacity="0.501961" points="68,127 53,80 65,51" />
<polygon fill="#100d0a" fill-opacity="0.501961" points="198,93 210,114 169,136" />
<polygon fill="#737e4a" fill-opacity="0.501961" points="198,-16 221,12 177,-16" />
<polygon fill="#fffff9" fill-opacity="0.501961" points="13,184 4,188 8,194" />
<polygon fill="#b6afa2" fill-opacity="0.501961" points="47,104 23,104 45,110" />
<polygon fill="#cfc0ab" fill-opacity="0.501961" points="235,85 242,65 271,66" />
<polygon fill="#a87f6e" fill-opacity="0.501961" points="88,124 99,136 75,121" />
<polygon fill="#000f03" fill-opacity="0.501961" points="22,51 28,52 26,64" />
<polygon fill="#e0cbb5" fill-opacity="0.501961" points="240,49 238,109 221,109" />
<polygon fill="#2e3624" fill-opacity="0.501961" points="6,60 31,48 17,35" />
<polygon fill="#e9e3d5" fill-opacity="0.501961" points="51,134 21,134 33,127" />
<polygon fill="#a89c8d" fill-opacity="0.501961" points="248,39 251,14 266,16" />
<polygon fill="#80817a" fill-opacity="0.501961" points="11,78 -16,88 28,87" />
<polygon fill="#665f5a" fill-opacity="0.501961" points="182,42 180,48 176,40" />
<polygon fill="#c09b8c" fill-opacity="0.501961" points="73,62 72,90 78,71" />
<polygon fill="#1f3111" fill-opacity="0.501961" points="187,39 183,23 170,24" />
<polygon fill="#9f8d7d" fill-opacity="0.501961" points="211,110 223,106 239,136" />
<polygon fill="#a59283" fill-opacity="0.501961" points="58,134 43,128 54,122" />
<polygon fill="#f1c1b1" fill-opacity="0.501961" points="136,75 153,94 113,87" />
<polygon fill="#436133" fill-opacity="0.501961" points="195,19 184,19 188,34" />
<polygon fill="#dbbd9c" fill-opacity="0.501961" points="229,42 246,55 254,-16" />
<polygon fill="#988e88" fill-opacity="0.501961" points="50,121 57,126 52,108" />
<polygon fill="#7a645f" fill-opacity="0.501961" points="157,94 165,103 162,109" />
<polygon fill="#5e6b4e" fill-opacity="0.501961" points="-11,5 3,31 -2,3" />
<polygon fill="#fffff5" fill-opacity="0.501961" points="239,115 271,109 248,121" />
<polygon fill="#f9f1e3" fill-opacity="0.501961" points="202,81 200,76 212,82" />
<polygon fill="#fcc1b7" fill-opacity="0.501961" points="96,88 119,109 92,122" />
<polygon fill="#493937" fill-opacity="0.501961" points="42,148 61,160 66,146" />
<polygon fill="#c39182" fill-opacity="0.501961" points="105,97 116,92 122,105" />
<polygon fill="#aca89e" fill-opacity="0.501961" points="-16,87 29,105 -16,100" />
<polygon fill="#1c270e" fill-opacity="0.501961" points="191,32 197,36 199,22" />
<polygon fill="#16181a" fill-opacity="0.501961" points="51,250 239,196 123,198" />
<polygon fill="#69615d" fill-opacity="0.501961" points="98,23 101,13 115,21" />
<polygon fill="#bab5ad" fill-opacity="0.501961" points="236,22 224,20 228,-14" />
<polygon fill="#ddb6a6" fill-opacity="0.501961" points="138,197 116,178 117,189" />
<polygon fill="#798e72" fill-opacity="0.501961" points="38,7 25,-16 5,-16" />
<polygon fill="#102b14" fill-opacity="0.501961" points="50,37 42,39 42,35" />
<polygon fill="#ffffee" fill-opacity="0.501961" points="-16,197 14,179 -16,157" />
<polygon fill="#352f2d" fill-opacity="0.501961" points="77,176 67,185 30,159" />
<polygon fill="#dde3d3" fill-opacity="0.501961" points="7,43 8,46 6,43" />
<polygon fill="#5d514e" fill-opacity="0.501961" points="233,130 219,126 211,116" />
<polygon fill="#d3cfba" fill-opacity="0.501961" points="-10,171 13,165 0,162" />
<polygon fill="#6f634a" fill-opacity="0.501961" points="212,86 213,101 208,101" />
<polygon fill="#748076" fill-opacity="0.501961" points="24,63 18,61 21,59" />
<polygon fill="#7f7b60" fill-opacity="0.501961" points="216,77 211,89 214,66" />
<polygon fill="#292422" fill-opacity="0.501961" points="62,112 58,147 73,124" />
<polygon fill="#957066" fill-opacity="0.501961" points="83,47 95,45 89,51" />
<polygon fill="#d9cfc4" fill-opacity="0.501961" points="212,76 183,44 204,37" />
<polygon fill="#655f58" fill-opacity="0.501961" points="112,11 152,12 133,5" />
<polygon fill="#dabaa3" fill-opacity="0.501961" points="73,93 83,91 71,87" />
<polygon fill="#b4ad98" fill-opacity="0.501961" points="205,76 213,63 213,76" />
<polygon fill="#111211" fill-opacity="0.501961" points="236,166 253,183 254,214" />
<polygon fill="#1d1815" fill-opacity="0.501961" points="141,58 138,46 160,51" />
<polygon fill="#a59c95" fill-opacity="0.501961" points="53,96 48,104 51,103" />
<polygon fill="#ada383" fill-opacity="0.501961" points="245,141 240,152 230,125" />
<polygon fill="#9b8a6c" fill-opacity="0.501961" points="61,2 64,6 68,7" />
<polygon fill="#e6b3a3" fill-opacity="0.501961" points="114,132 105,122 97,132" />
<polygon fill="#232122" fill-opacity="0.501961" points="198,76 175,122 165,29" />
<polygon fill="#8d7f73" fill-opacity="0.501961" points="207,33 211,26 217,39" />
<polygon fill="#242b2f" fill-opacity="0.501961" points="14,250 -1,243 12,190" />
<polygon fill="#8a844f" fill-opacity="0.501961" points="221,4 214,9 230,4" />
<polygon fill="#393b2a" fill-opacity="0.501961" points="54,-16 30,5 44,1" />
<polygon fill="#979e9b" fill-opacity="0.501961" points="12,28 18,31 21,29" />
<polygon fill="#7f6554" fill-opacity="0.501961" points="149,145 156,143 154,166" />
<polygon fill="#090708" fill-opacity="0.501961" points="175,157 173,113 163,125" />
<polygon fill="#816754" fill-opacity="0.501961" points="109,174 108,164 123,174" />
<polygon fill="#739080" fill-opacity="0.501961" points="40,56 38,49 46,59" />
<polygon fill="#1e1c1e" fill-opacity="0.501961" points="159,151 161,191 206,120" />
<polygon fill="#c0caa4" fill-opacity="0.501961" points="271,214 271,189 252,180" />
<polygon fill="#0b0c0a" fill-opacity="0.501961" points="65,106 74,101 65,71" />
<polygon fill="#695456" fill-opacity="0.501961" points="48,60 52,79 45,85" />
<polygon fill="#2b2725" fill-opacity="0.501961" points="216,126 218,144 192,169" />
<polygon fill="#212006" fill-opacity="0.501961" points="253,15 252,8 254,9" />
<polygon fill="#312f31" fill-opacity="0.501961" points="95,184 82,200 88,179" />
<polygon fill="#bbbaa2" fill-opacity="0.501961" points="5,189 -4,189 13,183" />
<polygon fill="#85785b" fill-opacity="0.501961" points="54,11 33,29 56,-10" />
<polygon fill="#c5b8ae" fill-opacity="0.501961" points="43,74 34,78 46,78" />
<polygon fill="#ad8878" fill-opacity="0.501961" points="153,155 149,168 112,174" />
<polygon fill="#14120f" fill-opacity="0.501961" points="165,197 213,149 235,182" />
<polygon fill="#21321f" fill-opacity="0.501961" points="140,-7 163,14 179,1" />
<polygon fill="#e8dfd4" fill-opacity="0.501961" points="246,67 247,49 257,52" />
<polygon fill="#bbac95" fill-opacity="0.501961" points="242,129 249,122 221,110" />
<polygon fill="#3a3434" fill-opacity="0.501961" points="133,53 172,18 130,22" />
<polygon fill="#88775f" fill-opacity="0.501961" points="230,124 216,108 224,110" />
<polygon fill="#e1d9ce" fill-opacity="0.501961" points="33,134 41,140 44,133" />
<polygon fill="#1b140e" fill-opacity="0.501961" points="112,13 114,16 107,16" />
<polygon fill="#1d2d27" fill-opacity="0.501961" points="43,63 38,60 42,70" />
<polygon fill="#eeae98" fill-opacity="0.501961" points="132,123 155,96 142,142" />
<polygon fill="#403d34" fill-opacity="0.501961" points="35,13 25,12 23,32" />
<polygon fill="#c6beb3" fill-opacity="0.501961" points="221,114 213,111 210,106" />
<polygon fill="#cb9b84" fill-opacity="0.501961" points="143,167 109,164 135,150" />
<polygon fill="#443c34" fill-opacity="0.501961" points="201,93 212,105 209,109" />
<polygon fill="#343819" fill-opacity="0.501961" points="215,3 223,6 212,-4" />
<polygon fill="#907e73" fill-opacity="0.501961" points="11,85 20,91 46,78" />
<polygon fill="#998179" fill-opacity="0.501961" points="122,32 111,41 95,43" />
<polygon fill="#5c5945" fill-opacity="0.501961" points="222,133 223,153 229,139" />
<polygon fill="#0c0c0e" fill-opacity="0.501961" points="183,167 203,144 188,139" />
<polygon fill="#47653c" fill-opacity="0.501961" points="55,29 42,32 61,33" />
<polygon fill="#696249" fill-opacity="0.501961" points="243,155 226,158 248,171" />
<polygon fill="#5a4a40" fill-opacity="0.501961" points="76,93 77,98 86,94" />
<polygon fill="#e1e3d8" fill-opacity="0.501961" points="221,2 233,4 219,-5" />
<polygon fill="#727262" fill-opacity="0.501961" points="1,74 -16,79 -10,42" />
<polygon fill="#d0cbbe" fill-opacity="0.501961" points="214,91 231,106 221,36" />
<polygon fill="#5b4536" fill-opacity="0.501961" points="156,167 145,180 158,151" />
<polygon fill="#ab9e97" fill-opacity="0.501961" points="83,21 76,31 79,16" />
<polygon fill="#89a571" fill-opacity="0.501961" points="185,18 198,19 199,15" />
<polygon fill="#695852" fill-opacity="0.501961" points="17,156 47,162 41,146" />
<polygon fill="#c09a91" fill-opacity="0.501961" points="81,96 93,101 91,110" />
<polygon fill="#faf9ef" fill-opacity="0.501961" points="241,105 256,86 244,80" />
<polygon fill="#6e6a4d" fill-opacity="0.501961" points="55,2 48,-16 33,26" />
<polygon fill="#161616" fill-opacity="0.501961" points="17,180 29,169 43,224" />
<polygon fill="#151414" fill-opacity="0.501961" points="59,173 52,190 94,204" />
<polygon fill="#6b6661" fill-opacity="0.501961" points="189,57 177,43 185,48" />
<polygon fill="#79767a" fill-opacity="0.501961" points="251,38 271,37 249,32" />
<polygon fill="#876a5c" fill-opacity="0.501961" points="161,118 155,127 157,113" />
<polygon fill="#beb4a6" fill-opacity="0.501961" points="63,30 60,42 66,35" />
<polygon fill="#8d7d72" fill-opacity="0.501961" points="201,75 192,65 203,72" />
<polygon fill="#ffffe4" fill-opacity="0.501961" points="248,124 258,123 266,135" />
<polygon fill="#5f663a" fill-opacity="0.501961" points="15,32 20,3 23,17" />
<polygon fill="#aba367" fill-opacity="0.501961" points="242,143 269,129 253,130" />
<polygon fill="#4d4039" fill-opacity="0.501961" points="27,166 58,175 30,156" />
<polygon fill="#9ea6af" fill-opacity="0.501961" points="1,221 -16,223 -12,250" />
<polygon fill="#3d362c" fill-opacity="0.501961" points="65,53 72,33 72,75" />
<polygon fill="#3b2a26" fill-opacity="0.501961" points="146,67 161,99 160,82" />
<polygon fill="#372a25" fill-opacity="0.501961" points="168,118 160,117 166,99" />
<polygon fill="#e9b7aa" fill-opacity="0.501961" points="107,80 92,93 82,80" />
<polygon fill="#0b0b07" fill-opacity="0.501961" points="71,148 90,142 80,127" />
<polygon fill="#fac1b9" fill-opacity="0.501961" points="117,158 106,148 131,136" />
<polygon fill="#b2a29c" fill-opacity="0.501961" points="27,88 29,93 17,93" />
<polygon fill="#e4e1d1" fill-opacity="0.501961" points="57,26 75,30 58,31" />
<polygon fill="#a8a397" fill-opacity="0.501961" points="232,1 233,-16 188,-5" />
<polygon fill="#403a33" fill-opacity="0.501961" points="162,70 149,68 151,55" />
<polygon fill="#fffffa" fill-opacity="0.501961" points="211,78 208,83 204,76" />
<polygon fill="#ca9783" fill-opacity="0.501961" points="85,125 88,116 74,118" />
<polygon fill="#9f7262" fill-opacity="0.501961" points="122,44 134,55 126,56" />
<polygon fill="#65554e" fill-opacity="0.501961" points="61,137 59,125 52,121" />
<polygon fill="#fdb9b1" fill-opacity="0.501961" points="96,94 144,116 124,120" />
<polygon fill="#e6b1a2" fill-opacity="0.501961" points="130,56 116,51 133,67" />
<polygon fill="#322b1d" fill-opacity="0.501961" points="48,101 50,108 48,105" />
<polygon fill="#ffd9cc" fill-opacity="0.501961" points="133,78 102,50 103,76" />
<polygon fill="#e6e7dc" fill-opacity="0.501961" points="46,107 46,98 32,96" />
<polygon fill="#aa7f79" fill-opacity="0.501961" points="98,134 91,127 97,154" />
<polygon fill="#5a4d4a" fill-opacity="0.501961" points="162,188 170,188 165,193" />
<polygon fill="#bfb8b4" fill-opacity="0.501961" points="200,48 198,37 211,35" />
<polygon fill="#1c221f" fill-opacity="0.501961" points="31,74 7,77 19,60" />
<polygon fill="#404d32" fill-opacity="0.501961" points="25,48 21,30 13,43" />
<polygon fill="#ba9681" fill-opacity="0.501961" points="148,191 135,181 137,153" />
<polygon fill="#93975b" fill-opacity="0.501961" points="212,12 217,5 209,8" />
<polygon fill="#fffff3" fill-opacity="0.501961" points="39,123 22,124 23,132" />
<polygon fill="#afa59c" fill-opacity="0.501961" points="190,49 194,59 181,45" />
<polygon fill="#cec3af" fill-opacity="0.501961" points="222,7 242,19 224,77" />
<polygon fill="#f68ca3" fill-opacity="0.501961" points="97,137 109,140 119,134" />
<polygon fill="#5c784e" fill-opacity="0.501961" points="190,2 178,-2 180,5" />
<polygon fill="#cc9580" fill-opacity="0.501961" points="150,105 150,136 159,104" />
<polygon fill="#f7f0ea" fill-opacity="0.501961" points="190,46 185,44 190,41" />
<polygon fill="#25292d" fill-opacity="0.501961" points="258,233 196,250 133,233" />
<polygon fill="#696c5c" fill-opacity="0.501961" points="226,111 217,111 209,105" />
<polygon fill="#3b2a26" fill-opacity="0.501961" points="58,137 51,155 52,133" />
<polygon fill="#3a342d" fill-opacity="0.501961" points="105,37 79,47 95,20" />
<polygon fill="#232a1c" fill-opacity="0.501961" points="19,6 23,12 35,15" />
<polygon fill="#cbbfaf" fill-opacity="0.501961" points="102,9 96,14 87,-2" />
<polygon fill="#966a5b" fill-opacity="0.501961" points="141,70 148,82 141,76" />
<polygon fill="#151415" fill-opacity="0.501961" points="265,188 245,235 126,200" />
<polygon fill="#97776c" fill-opacity="0.501961" points="74,83 80,89 70,86" />
<polygon fill="#5f7c5e" fill-opacity="0.501961" points="48,30 54,46 55,26" />
<polygon fill="#75786c" fill-opacity="0.501961" points="6,73 5,76 7,79" />
<polygon fill="#d5cbb9" fill-opacity="0.501961" points="208,85 209,97 200,75" />
<polygon fill="#857a5f" fill-opacity="0.501961" points="246,165 234,148 231,155" />
<polygon fill="#59463e" fill-opacity="0.501961" points="113,92 117,90 124,92" />
<polygon fill="#a5aaa3" fill-opacity="0.501961" points="37,79 25,77 11,85" />
<polygon fill="#d2cfc8" fill-opacity="0.501961" points="47,88 36,103 37,87" />
<polygon fill="#b0a397" fill-opacity="0.501961" points="-2,188 -16,199 9,200" />
<polygon fill="#282522" fill-opacity="0.501961" points="21,170 47,195 51,176" />
<polygon fill="#130f0b" fill-opacity="0.501961" points="71,82 72,64 62,87" />
<polygon fill="#282527" fill-opacity="0.501961" points="201,131 183,144 200,113" />
<polygon fill="#fffff3" fill-opacity="0.501961" points="30,138 23,138 37,129" />
</g>
</svg>