<svg width="153px" height="110px" viewBox="0 0 153 110" version="1.1" xmlns="http://www.w3.org/2000/svg" xmlns:xlink="http://www.w3.org/1999/xlink">
    <g id="Page-1" stroke="none" stroke-width="1" fill="none" fill-rule="evenodd">
        <path d="M65.3788388,55.7409032 L65.56,55.72 L65.4665161,55.7252258 L65.4665161,55.7252258 L65.3788388,55.7409032 L65.3788388,55.7409032 Z M65.3788388,55.7409032 C64.9662778,55.8426308 64.76,56.3156598 64.76,57.16 C64.76,57.9066704 64.92,58.94666 65.24,60.28 C65.5600016,61.61334 65.9333312,62.3866656 66.36,62.6 C66.4666672,63.133336 66.52,63.7733296 66.52,64.52 L66.52,65.48 C66.52,65.9066688 66.253336,66.386664 65.72,66.92 L66.68,68.68 C67.4266704,70.1733408 68.2266624,71.6666592 69.08,73.16 C69.9333376,74.6533408 70.893328,76.0933264 71.96,77.48 C74.8400144,81.4266864 77.8266512,84.8933184 80.92,87.88 C80.386664,87.5599984 80.0133344,87.4 79.8,87.4 C79.3733312,87.4 79.1066672,87.4533328 79,87.56 C78.6799984,87.6666672 78.4400008,87.7999992 78.28,87.96 C78.1199992,88.1200008 77.8800016,88.4133312 77.56,88.84 C77.4177771,89.1244459 77.2637038,89.4088889 77.0977781,89.6933329 L76.84,90.12 C76.573332,90.5466688 76.3866672,90.9199984 76.28,91.24 C75.9599984,91.773336 75.8,92.2533312 75.8,92.68 C75.5866656,92.8933344 75.3200016,93.266664 75,93.8 C74.6799984,94.333336 74.0933376,94.6 73.24,94.6 L71.48,94.44 C71.0533312,94.44 70.7866672,94.4933328 70.68,94.6 C70.0399968,95.2400032 69.6666672,95.9333296 69.56,96.68 C69.4533328,97.213336 69.3733336,97.6933312 69.32,98.12 C69.2666664,98.5466688 69.24,98.9733312 69.24,99.4 C69.1333328,100.040003 68.7066704,100.573331 67.96,101 L67.4,101.56 C67.2399992,101.720001 67.16,101.906666 67.16,102.12 C64.9199888,100.19999 62.8933424,98.1200112 61.08,95.88 C59.2666576,93.6399888 57.6133408,91.2933456 56.12,88.84 C53.45332,84.9999808 51.1066768,81.213352 49.08,77.48 C47.3733248,77.6933344 45.6933416,77.8266664 44.04,77.88 C42.3866584,77.9333336 40.6533424,78.0133328 38.84,78.12 C36.3866544,78.3333344 33.960012,78.4666664 31.56,78.52 C29.159988,78.5733336 26.7333456,78.6 24.28,78.6 C23.746664,81.0533456 23.2933352,83.5066544 22.92,85.96 C22.5466648,88.4133456 22.2533344,90.8666544 22.04,93.32 C21.7199984,96.0933472 21.4533344,98.81332 21.24,101.48 L20.6,109.48 C20.6,108.093326 20.0133392,107.4 18.84,107.4 L17.72,107.56 C17.0088853,107.737779 16.3348162,107.97111 15.6977788,108.259999 L14.9688877,108.611112 C14.4207384,108.870372 14.0577787,109 13.88,109 C13.5599984,109.106667 13.0266704,109.16 12.28,109.16 C11.746664,109.16 11.3200016,109.053334 11,108.84 C10.533331,108.466665 10.1891669,108.072918 9.9675002,107.658751 L9.88,107.48 C9.6666656,106.999998 9.3466688,106.653334 8.92,106.44 L8.12,106.28 C7.44799664,106.28 6.8408017,106.474398 6.29840061,106.863199 L6.12,107 C5.5333304,107.480002 4.8666704,107.879998 4.12,108.2 C3.9066656,108.520002 3.6400016,108.68 3.32,108.68 L1.56,108.2 C1.2399984,108.2 1.0266672,108.359998 0.92,108.68 C1.0266672,105.586651 1.213332,102.626681 1.48,99.8 C1.746668,96.9733192 2.0933312,94.1733472 2.52,91.4 C2.9466688,88.6266528 3.3466648,85.8533472 3.72,83.08 C4.0933352,80.3066528 4.546664,77.5333472 5.08,74.76 C5.81143223,70.6456937 6.60162998,66.6098069 7.45061087,62.6522509 L7.88,60.68 C8.8933384,56.0933104 9.8266624,51.5066896 10.68,46.92 C10.7653338,46.6639987 10.8165335,46.425067 10.8336001,46.2032004 L10.84,46.04 C10.84,45.773332 10.8933328,45.4266688 11,45 C11.6400032,41.5866496 12.2799968,38.2266832 12.92,34.92 C13.5600032,31.6133168 14.146664,28.3066832 14.68,25 C15.213336,21.266648 15.6399984,17.6400176 15.96,14.12 C16.2800016,10.5999824 16.4933328,6.973352 16.6,3.24 C17.3466704,2.9199984 18.1466624,2.76 19,2.76 C19.4266688,2.76 19.7999984,2.7866664 20.12,2.84 L20.6799996,2.9399999 C20.8933324,2.9799998 21.133332,3.0266664 21.4,3.08 C22.2533376,3.2933344 23.0533296,3.4799992 23.8,3.64 C24.5466704,3.8000008 25.2933296,3.88 26.04,3.88 L28.12,4.04 C28.8666704,4.04 29.4533312,3.773336 29.88,3.24 C30.3066688,2.9199984 30.5999992,2.4133368 30.76,1.72 C30.92,1.0266632 31.1066656,0.68 31.32,0.68 C31.5333344,0.68 31.7466656,0.9999968 31.96,1.64 C32.0666672,2.2800032 32.12,2.8933304 32.12,3.48 L32.12,5.64 L35.16,5.64 L35.16,5.32 C35.2666672,4.5733296 35.3466664,3.8533368 35.4,3.16 C35.4533336,2.4666632 35.48,1.6933376 35.48,0.84 L35.64,5.48 L36.76,5.48 C37.4000032,5.2666656 38.0933296,5.1333336 38.84,5.08 C39.5866704,5.0266664 40.1199984,4.5733376 40.44,3.72 C40.6266676,3.4399986 40.7520834,3.0375021 40.81625,2.51250085 L40.84,2.28 C40.8933336,1.6399968 41.0266656,1.32 41.24,1.32 C41.5600016,1.32 41.8266656,1.6399968 42.04,2.28 L43.96,9.32 C44.3866688,10.1733376 44.866664,10.7066656 45.4,10.92 L47,11.56 C46.5151491,9.62059636 46.2066116,7.8795643 46.0743802,6.33686113 L46.04,5.88 C45.9333328,4.2266584 45.7733344,2.4933424 45.56,0.68 C46.026669,2.8266774 46.5749977,4.87124431 47.204999,6.81374736 L47.48,7.64 C48.2266704,9.8266776 48.866664,12.1999872 49.4,14.76 C50.2533376,18.493352 51.1333288,22.1733152 52.04,25.8 C52.9466712,29.4266848 53.9866608,33.0533152 55.16,36.68 L58.52,47.72 C59.3733376,50.8133488 60.333328,53.6399872 61.4,56.2 L65.3788388,55.7409032 L65.3788388,55.7409032 Z M34.04,58.28 C35.2133392,58.1733328 36.333328,58.12 37.4,58.12 L40.76,58.12 C40.226664,56.519992 39.693336,54.9733408 39.16,53.48 C38.626664,51.9866592 38.1466688,50.4933408 37.72,49 C36.8666624,46.5466544 36.1200032,44.0666792 35.48,41.56 L34.2000007,36.5822249 C33.9866677,35.7585226 33.7733344,34.9377819 33.56,34.12 L31.96,43.56 C30.9999952,48.4666912 29.8800064,53.4799744 28.6,58.6 C29.4533376,58.4933328 30.3599952,58.4133336 31.32,58.36 C32.2800048,58.3066664 33.1866624,58.28 34.04,58.28 Z M139.941372,65.9855183 L140.12,65.96 L140.02704,65.9663796 L140.02704,65.9663796 L139.941372,65.9855183 L139.941372,65.9855183 Z M123.96,21.48 C124.315557,23.080008 124.726665,24.624441 125.193332,26.1133309 L125.48,27 C126.06667,28.7600088 126.626664,30.706656 127.16,32.84 C127.8,35.9333488 128.49333,38.9199856 129.24,41.8 C129.98667,44.6800144 130.839995,47.6133184 131.8,50.6 L134.52,59.56 C134.840002,60.7333392 135.186665,61.8799944 135.56,63 C135.933335,64.1200056 136.333331,65.2666608 136.76,66.44 L139.941372,65.9855183 C139.633789,66.0812109 139.48,66.4460359 139.48,67.08 C139.48,67.6560029 139.587999,68.4047963 139.804,69.3263988 L139.88,69.64 C140.146668,70.706672 140.439998,71.3466656 140.76,71.56 C140.866667,71.9866688 140.92,72.5199968 140.92,73.16 L140.92,73.8 C140.92,74.2266688 140.706669,74.6533312 140.28,75.08 L141.08,76.52 C142.253339,79.0800128 143.693325,81.426656 145.4,83.56 C146.573339,85.160008 147.746661,86.6533264 148.92,88.04 C150.093339,89.4266736 151.319994,90.7599936 152.6,92.04 C152.279998,91.7199984 151.960002,91.56 151.64,91.56 C151.319998,91.56 151.106667,91.6133328 151,91.72 C150.786666,91.8266672 150.413336,92.1999968 149.88,92.84 C149.666666,93.1600016 149.453334,93.5066648 149.24,93.88 C149.026666,94.2533352 148.92,94.5466656 148.92,94.76 C148.599998,95.0800016 148.44,95.4533312 148.44,95.88 C148.226666,96.0933344 147.986668,96.4133312 147.72,96.84 C147.453332,97.2666688 147.000003,97.48 146.36,97.48 L144.92,97.32 C144.599998,97.32 144.386667,97.3733328 144.28,97.48 C143.746664,98.013336 143.48,98.546664 143.48,99.08 C143.266666,100.146672 143.16,100.893331 143.16,101.32 C143.053333,101.746669 142.680003,102.173331 142.04,102.6 C141.954666,102.770668 141.852266,102.9072 141.7328,103.0096 L141.64,103.08 C141.479999,103.186667 141.4,103.346666 141.4,103.56 C139.586658,101.959992 137.960007,100.253342 136.52,98.44 C135.079993,96.6266576 133.773339,94.7600096 132.6,92.84 C131.533328,91.3466592 130.520005,89.8266744 129.56,88.28 C128.599995,86.7333256 127.693338,85.160008 126.84,83.56 C124.066653,83.8800016 121.293347,84.04 118.52,84.04 C116.59999,84.2533344 114.68001,84.3866664 112.76,84.44 C110.83999,84.4933336 108.866677,84.52 106.84,84.52 C106.09333,88.253352 105.453336,92.1999792 104.92,96.36 C104.706666,98.7066784 104.520001,100.946656 104.36,103.08 C104.199999,105.213344 104.013334,107.346656 103.8,109.48 C103.8,108.306661 103.320005,107.72 102.36,107.72 L101.4,107.88 C100.759997,108.062858 100.198368,108.284897 99.7151027,108.546122 L99.48,108.68 C98.946664,109.000002 98.5733344,109.16 98.36,109.16 L97.08,109.16 C96.6533312,109.16 96.2800016,109.106667 95.96,109 C95.7039987,108.743999 95.4821335,108.453868 95.2944003,108.129601 L95.16,107.88 C94.9466656,107.453331 94.6800016,107.186667 94.36,107.08 L93.72,106.92 C93.186664,106.92 92.653336,107.106665 92.12,107.48 C91.586664,107.853335 91.053336,108.199998 90.52,108.52 C90.3066656,108.733334 90.0933344,108.84 89.88,108.84 L88.44,108.52 C88.1199984,108.52 87.9066672,108.626666 87.8,108.84 C87.9066672,106.386654 88.0666656,104.013345 88.28,101.72 C88.4933344,99.4266552 88.7599984,97.1600112 89.08,94.92 C89.5066688,92.5733216 89.8799984,90.2800112 90.2,88.04 L91.16,81.32 C91.6577803,78.8310987 92.1674073,76.3422222 92.6888879,73.8533375 L93.48,70.12 C94.280004,66.386648 95.0533296,62.653352 95.8,58.92 C95.9066672,58.4933312 95.96,57.9600032 95.96,57.32 C96.493336,54.5466528 97.026664,51.82668 97.56,49.16 C97.960002,47.15999 98.3299998,45.1600025 98.6699995,43.1600037 L99,41.16 C99.533336,38.0666512 99.9066656,35.1333472 100.12,32.36 C100.333334,29.5866528 100.493333,26.6533488 100.6,23.56 C101.240003,23.2399984 101.879997,23.08 102.52,23.08 C102.840002,23.08 103.133332,23.1066664 103.4,23.16 L103.7584,23.2368 C103.956799,23.2815998 104.183999,23.3359997 104.44,23.4 C104.866669,23.4711115 105.293333,23.554074 105.719999,23.6488887 L106.36,23.8 C107.000003,23.9600008 107.586664,24.04 108.12,24.04 L109.88,24.2 C110.413336,24.2 110.893331,23.9866688 111.32,23.56 C111.640002,23.2399984 111.879999,22.813336 112.04,22.28 C112.200001,21.746664 112.333333,21.48 112.44,21.48 C112.760002,21.48 112.92,21.746664 112.92,22.28 C113.026667,22.813336 113.08,23.3199976 113.08,23.8 L113.08,25.48 L115.64,25.48 L115.64,25.16 C115.64,24.759998 115.655,24.3450006 115.685,23.9150009 L115.72,23.48 C115.76,23.0399978 115.785,22.5850007 115.795,22.1150009 L115.8,21.645 L115.96,25.32 L116.92,25.32 C117.364447,25.1422213 117.827406,25.0385182 118.308888,25.0088888 L118.6,25 C119.18667,25 119.586666,24.6266704 119.8,23.88 C119.986668,23.6933324 120.091667,23.3841685 120.115,22.9525007 L120.12,22.76 C120.12,22.226664 120.226666,21.96 120.44,21.96 C120.760002,21.96 120.973333,22.226664 121.08,22.76 L122.68,28.36 C123.000002,29.1066704 123.373331,29.5599992 123.8,29.72 C124.226669,29.8800008 124.653331,30.0666656 125.08,30.28 C124.791999,28.6479918 124.5904,27.2320036 124.4752,26.0320013 L124.44,25.64 C124.333333,24.3599936 124.173334,22.9733408 123.96,21.48 Z M114.2,48.52 L112.92,56.2 C112.279997,60.0400192 111.373339,64.093312 110.2,68.36 C110.94667,68.2533328 111.69333,68.1733336 112.44,68.12 C113.18667,68.0666664 113.93333,68.04 114.68,68.04 C115.640005,67.9333328 116.573329,67.88 117.48,67.88 L117.48,67.88 L120.12,67.88 C119.693331,66.5999936 119.266669,65.3466728 118.84,64.12 C118.413331,62.8933272 118.040002,61.6933392 117.72,60.52 C116.97333,58.4933232 116.333336,56.4666768 115.8,54.44 C115.266664,52.4133232 114.733336,50.4400096 114.2,48.52 L114.2,48.52 Z" id="Aa" fill="#2C2C2C" fill-rule="nonzero"></path>
    </g>
</svg>