<svg width="202px" height="104px" viewBox="0 0 202 104" version="1.1" xmlns="http://www.w3.org/2000/svg" xmlns:xlink="http://www.w3.org/1999/xlink">
    <g id="Page-1" stroke="none" stroke-width="1" fill="none" fill-rule="evenodd">
        <path d="M77.64,101 C77.64,97.266648 77.5,93.6966837 77.22,90.29 C76.9399986,86.8833163 76.566669,83.546683 76.1,80.28 L12.26,80.28 C11.793331,83.546683 11.4200014,86.8833163 11.14,90.29 C10.8599986,93.6966837 10.72,97.266648 10.72,101 L0.5,101 C0.5,85.7865906 2.5533128,71.4600672 6.66,58.02 C9.90415415,47.5666144 14.3228512,37.9834468 19.916216,29.2702301 L20.52,28.34 C23.0400126,24.4199804 25.5133212,21.0366809 27.94,18.19 C30.3666788,15.3433191 32.5599902,12.986676 34.52,11.12 L35.2375026,10.4418725 C36.8708395,8.91061887 38.218328,7.73667075 39.28,6.92 L40.7361957,5.79079439 C41.0281441,5.56085272 41.1960782,5.42392179 41.24,5.38 L44.32,3.28 L47.26,5.52 L47.3118518,5.56753083 C47.5054313,5.73806524 48.1414761,6.25888453 49.22,7.13 L49.6914076,7.52046975 C50.829638,8.48515786 52.235825,9.82499142 53.91,11.54 L54.6877801,12.3488912 C56.3999304,14.1554114 58.287323,16.3124319 60.35,18.82 C62.5713444,21.5204579 64.8536349,24.668044 67.1969313,28.2628412 L67.7,29.04 C70.6866816,33.6133562 73.3233219,38.3733086 75.61,43.32 C77.8966781,48.2666914 79.8799916,53.3999734 81.56,58.72 C85.760021,72.0667334 87.86,86.1599258 87.86,101 L77.64,101 Z M74,70.06 C72.133324,62.3132946 69.8466802,55.5233625 67.14,49.69 C64.4333198,43.8566375 61.7733464,38.840021 59.16,34.64 C56.1733184,30.0666438 53.3266802,26.2633485 50.62,23.23 L49.4914248,21.9742814 C47.297135,19.5514194 45.4800072,17.6600068 44.04,16.3 L43.5198983,16.7963015 C41.9112957,18.3461038 39.8680124,20.4439868 37.39,23.09 C34.6366529,26.0300147 31.8133478,29.7866438 28.92,34.36 C26.2133198,38.4666872 23.5300133,43.4599706 20.87,49.34 C18.2099867,55.2200294 15.946676,62.126627 14.08,70.06 L74,70.06 Z M201.4,51.86 C201.4,57.6466956 200.443343,63.1999734 198.53,68.52 C196.703627,73.5982072 194.090656,78.2936596 190.691015,82.606485 L190.2,83.22 C187.773321,86.3000154 185.020015,89.0533212 181.94,91.48 C178.859985,93.9066788 175.546684,96.0066578 172,97.78 C171.75111,97.9044451 171.502222,98.0185186 171.253334,98.1222221 L170.88,98.27 C170.506665,98.4100007 170.133335,98.5733324 169.76,98.76 C164.159972,101.093345 158.326697,102.493331 152.26,102.96 L152.12,102.96 C151.995555,102.96 151.871111,102.97037 151.746667,102.991111 L151.56,103.03 C151.373332,103.076667 151.186668,103.1 151,103.1 L145.54,103.1 C145.415555,103.1 145.291111,103.08963 145.166667,103.068889 L144.98,103.03 C144.793332,102.983333 144.606668,102.96 144.42,102.96 L144.28,102.96 C141.479986,102.773332 138.72668,102.37667 136.02,101.77 C133.31332,101.16333 130.653346,100.346672 128.04,99.32 L126.92,98.76 L126.78,98.76 C126.499999,98.6199993 126.233125,98.493125 125.979375,98.3793752 L125.73,98.27 C125.403332,98.1299993 125.006669,97.9666676 124.54,97.78 C120.993316,96.0066578 117.680015,93.9066788 114.6,91.48 C111.519985,89.0533212 108.766679,86.3000154 106.34,83.22 C102.793316,78.7399776 100.063343,73.8400266 98.15,68.52 C96.2366571,63.1999734 95.28,57.6466956 95.28,51.86 C95.28,45.6999692 96.3299895,39.820028 98.43,34.22 C100.530011,28.619972 103.633313,23.48669 107.74,18.82 C110.166679,15.9266522 112.896652,13.3833443 115.93,11.19 C118.963349,8.9966557 122.159983,7.1066746 125.52,5.52 L125.66,5.52 C125.66,5.4266662 125.706666,5.38 125.8,5.38 C125.893334,5.2866662 125.986666,5.24 126.08,5.24 C126.173334,5.24 126.313332,5.1933338 126.5,5.1 C126.57,5.02999965 126.64,4.98624982 126.71,4.96874993 L126.78,4.96 C126.873334,4.96 126.966666,4.9133338 127.06,4.82 C127.13,4.82 127.186875,4.80687513 127.230625,4.7806251 L127.27,4.75 C127.316667,4.7033331 127.386666,4.68 127.48,4.68 C127.620001,4.60999965 127.746875,4.55312496 127.860625,4.50937503 L127.97,4.47 C128.075001,4.43499982 128.193125,4.38687517 128.324375,4.32562516 L128.74,4.12 C129.113335,3.9333324 129.439999,3.84 129.72,3.84 C129.813334,3.7466662 129.906666,3.7 130,3.7 L130.385001,3.56874967 C130.735001,3.44624965 130.979999,3.35000035 131.12,3.28 L131.26,3.28 C132.380006,2.9066648 133.499994,2.5566683 134.62,2.23 C135.740006,1.9033317 136.906661,1.6466676 138.12,1.46 L138.4,1.46 C138.586668,1.3666662 138.726666,1.32 138.82,1.32 C139.006668,1.32 139.193332,1.2733338 139.38,1.18 L139.94,1.18 C140.080001,1.18 140.19375,1.16687513 140.28125,1.1406251 L140.36,1.11 C140.453334,1.0633331 140.593332,1.04 140.78,1.04 L141.34,1.04 C141.526668,0.9466662 141.759999,0.9 142.04,0.9 L142.74,0.9 C142.926668,0.8066662 143.159999,0.76 143.44,0.76 L144.14,0.76 C144.326668,0.6666662 144.559999,0.62 144.84,0.62 L146.94,0.62 C147.406669,0.62 147.733332,0.5733338 147.92,0.48 L148.76,0.48 C148.946668,0.5733338 149.226665,0.62 149.6,0.62 L151.84,0.62 C152.120001,0.62 152.306666,0.6666662 152.4,0.76 L153.24,0.76 C153.520001,0.76 153.706666,0.8066662 153.8,0.9 L154.5,0.9 C154.873335,0.9 155.106666,0.9466662 155.2,1.04 L155.9,1.04 C156.040001,1.04 156.15375,1.05312487 156.24125,1.0793749 L156.32,1.11 C156.413334,1.1566669 156.553332,1.18 156.74,1.18 L157.16,1.18 C157.300001,1.25000035 157.44,1.29375017 157.58,1.31125007 L157.72,1.32 C157.906668,1.32 158.093332,1.3666662 158.28,1.46 L158.56,1.46 C159.493338,1.6466676 160.403329,1.8566655 161.29,2.09 C162.176671,2.3233345 163.086662,2.5799986 164.02,2.86 L165.28,3.28 L165.42,3.28 L166.68,3.7 L166.82,3.84 C167.100001,3.84 167.426665,3.9333324 167.8,4.12 C167.893334,4.2133338 168.033332,4.26 168.22,4.26 C168.593335,4.4466676 168.873332,4.54 169.06,4.54 C169.246668,4.7266676 169.433332,4.82 169.62,4.82 L170.46,5.24 C170.553334,5.24 170.693332,5.2866662 170.88,5.38 L171.02,5.52 C174.380017,7.1066746 177.576652,8.9966557 180.61,11.19 C183.643349,13.3833443 186.419987,15.9266522 188.94,18.82 L188.8,18.82 C192.906687,23.48669 196.033323,28.619972 198.18,34.22 C200.326677,39.820028 201.4,45.6999692 201.4,51.86 Z M150.44,92.74 C156.133362,92.4599986 161.453309,91.2000112 166.4,88.96 C171.346691,86.7199888 175.639982,83.7566851 179.28,80.07 C182.920018,76.3833149 185.789989,72.1366907 187.89,67.33 C189.990011,62.5233093 191.04,57.3666942 191.04,51.86 C191.04,46.3533058 189.990011,41.1733576 187.89,36.32 C185.789989,31.4666424 182.920018,27.1966851 179.28,23.51 C175.639982,19.8233149 171.346691,16.8600112 166.4,14.62 C161.453309,12.3799888 156.133362,11.1200014 150.44,10.84 L146.1,10.84 C140.499972,11.1200014 135.226691,12.3799888 130.28,14.62 C125.333309,16.8600112 121.016685,19.8233149 117.33,23.51 C113.643315,27.1966851 110.750011,31.4666424 108.65,36.32 C106.549989,41.1733576 105.5,46.3533058 105.5,51.86 C105.5,57.3666942 106.549989,62.5233093 108.65,67.33 C110.750011,72.1366907 113.643315,76.3833149 117.33,80.07 C121.016685,83.7566851 125.333309,86.7199888 130.28,88.96 C135.226691,91.2000112 140.499972,92.4599986 146.1,92.74 L146.24,92.74 C146.380001,92.74 146.506875,92.7531249 146.620625,92.7793749 L146.73,92.81 C146.870001,92.8566669 147.033332,92.88 147.22,92.88 L149.46,92.88 C149.600001,92.88 149.726875,92.8668751 149.840625,92.8406251 L149.95,92.81 C150.090001,92.7633331 150.253332,92.74 150.44,92.74 Z M148.9,40.1 C152.166683,40.2866676 154.919989,41.4999888 157.16,43.74 C159.400011,45.9800112 160.52,48.6866508 160.52,51.86 C160.52,55.0333492 159.400011,57.7399888 157.16,59.98 C154.919989,62.2200112 152.166683,63.4333324 148.9,63.62 L147.64,63.62 C144.373317,63.4333324 141.620011,62.2200112 139.38,59.98 C137.139989,57.7399888 136.02,55.0333492 136.02,51.86 C136.02,48.6866508 137.139989,45.9800112 139.38,43.74 C141.620011,41.4999888 144.373317,40.2866676 147.64,40.1 L148.9,40.1 Z" id="AO" fill="#2C2C2C" fill-rule="nonzero"></path>
    </g>
</svg>