<svg width="178px" height="107px" viewBox="0 0 178 107" version="1.1" xmlns="http://www.w3.org/2000/svg" xmlns:xlink="http://www.w3.org/1999/xlink">
    <g stroke="none" stroke-width="1" fill="none" fill-rule="evenodd">
        <path d="M74.1,105 L65.7,78.3 L28.5,78.3 L20.25,105 L0.15,105 L35.25,0.3 L59.85,0.3 L94.65,105 L74.1,105 Z M47.4,18.3 L46.65,18.3 L33.3,61.35 L60.9,61.35 L47.4,18.3 Z M136.95,24.9 C147.550053,24.9 155.599972,27.299976 161.1,32.1 C166.600027,36.900024 169.35,43.799955 169.35,52.8 L169.35,89.7 L177.15,89.7 L177.15,105 L166.5,105 C162.299979,105 158.975012,103.775012 156.525,101.325 C154.074988,98.8749878 152.550003,95.6000205 151.95,91.5 L151.05,91.5 C149.749993,96.6000255 147.10002,100.424987 143.1,102.975 C139.09998,105.525013 134.150029,106.8 128.25,106.8 C120.24996,106.8 114.100021,104.700021 109.8,100.5 C105.499978,96.299979 103.35,90.700035 103.35,83.7 C103.35,75.5999595 106.249971,69.5750198 112.05,65.625 C117.850029,61.6749803 126.099946,59.7 136.8,59.7 L150.15,59.7 L150.15,54 C150.15,49.599978 149.000011,46.200012 146.7,43.8 C144.399988,41.399988 140.700025,40.2 135.6,40.2 C131.099977,40.2 127.475014,41.1749902 124.725,43.125 C121.974986,45.0750098 119.650009,47.3999865 117.75,50.1 L106.35,39.9 C109.250015,35.3999775 113.099976,31.7750138 117.9,29.025 C122.700024,26.2749863 129.04996,24.9 136.95,24.9 Z M150.15,71.25 L137.85,71.25 C127.84995,71.25 122.85,74.449968 122.85,80.85 L122.85,80.85 L122.85,83.4 C122.85,86.600016 123.87499,88.9749923 125.925,90.525 C127.97501,92.0750077 130.899981,92.85 134.7,92.85 C139.000022,92.85 142.649985,91.9000095 145.65,90 C148.650015,88.0999905 150.15,85.3000185 150.15,81.6 L150.15,81.6 L150.15,71.25 Z" fill="#2C2C2C" fill-rule="nonzero"></path>
    </g>
</svg>