<svg width="183px" height="28px" viewBox="0 0 183 28" version="1.1" xmlns="http://www.w3.org/2000/svg" xmlns:xlink="http://www.w3.org/1999/xlink">
    <g stroke="none" stroke-width="1" fill="none" fill-rule="evenodd">
        <path d="M15.1940459,27.2209952 L15.1940459,21.9692273 L6.49455261,21.9692273 L6.49455261,0.481077971 L0,0.481077971 L0,27.2209952 L15.1940459,27.2209952 Z M23.6752724,27.9426121 C26.3212012,27.9426121 28.4459622,27.3011749 30.0094657,26.0583901 C31.5729691,24.7755155 32.2144064,23.1719223 32.2144064,20.3255443 L32.2144064,8.65940348 L26.1207521,8.65940348 L26.1207521,20.3255443 C26.1207521,21.9291375 25.1986859,22.8912935 23.6752724,22.8912935 C22.0315893,22.8912935 21.1095232,21.808868 21.1095232,19.8845561 L21.1095232,8.65940348 L15.0158689,8.65940348 L15.0158689,20.3255443 C15.0158689,22.8912935 15.6573062,24.6953358 17.0604503,25.8980308 C18.543774,27.2209952 20.909074,27.9426121 23.6752724,27.9426121 Z M39.8136565,27.2209952 L39.8136565,15.9557527 C39.8136565,14.1517103 40.8159023,12.9891052 42.3794057,12.9891052 C43.9429091,12.9891052 44.9050651,14.0715307 44.9050651,15.875573 L44.9050651,27.2209952 L50.9987194,27.2209952 L50.9987194,15.8354832 C50.9987194,12.5481171 50.5577312,11.0247035 49.3149465,9.74182891 C48.1523414,8.61931365 46.3883888,7.93778652 44.5442566,7.93778652 C42.299226,7.93778652 41.0163515,8.69949331 39.8136565,10.7440747 L39.8136565,8.65940348 L33.7200022,8.65940348 L33.7200022,27.2209952 L39.8136565,27.2209952 Z M60.6425509,27.9426121 C63.2884797,27.9426121 65.2528815,27.0606359 66.9366544,25.136324 L66.9366544,27.2209952 L73.0303087,27.2209952 L73.0303087,8.65940348 L66.9366544,8.65940348 L66.9366544,10.663895 C65.132612,8.69949331 63.5290187,7.93778652 61.1637187,7.93778652 C55.5912322,7.93778652 51.5421593,12.2674883 51.5421593,18.2007832 C51.5421593,23.8935392 55.3506932,27.9426121 60.6425509,27.9426121 Z M62.4465933,23.1318324 C59.9610238,23.1318324 58.0367119,20.9268917 58.0367119,18.0805137 C58.0367119,15.1138663 59.8808441,12.9891052 62.4866831,12.9891052 C65.132612,12.9891052 67.016834,15.0336866 67.016834,18.0003341 C67.016834,20.8066222 64.9722526,23.1318324 62.4465933,23.1318324 Z M80.9101876,27.2209952 L80.9101876,16.2363815 C80.9101876,14.9535069 81.0304571,14.4323391 81.3912656,13.8710815 C81.7921639,13.3098239 82.473691,12.9891052 83.195308,12.9891052 C84.7187216,12.9891052 85.6006979,14.1918001 85.6006979,16.2363815 L85.6006979,27.2209952 L91.6943522,27.2209952 L91.6943522,16.0359324 C91.6943522,14.1517103 92.5763284,12.9891052 94.0596522,12.9891052 C95.5429759,12.9891052 96.4249522,14.1517103 96.4249522,16.0359324 L96.4249522,27.2209952 L102.518607,27.2209952 L102.518607,14.9535069 C102.518607,12.1472188 102.077618,10.7841645 100.874923,9.58146959 C99.792498,8.49904415 98.2289946,7.93778652 96.465042,7.93778652 C93.9393827,7.93778652 92.2556098,8.85985263 91.012825,10.904434 C90.1308488,8.98012213 88.2867165,7.93778652 85.9214165,7.93778652 C83.5160267,7.93778652 81.9926131,8.85985263 80.9101876,10.904434 L80.9101876,8.65940348 L74.8165333,8.65940348 L74.8165333,27.2209952 L80.9101876,27.2209952 Z M113.485402,27.9426121 C115.890792,27.9426121 117.975464,27.2209952 119.859686,25.7376714 C121.26283,24.655246 121.944357,23.8133596 122.866423,21.9692273 L117.253847,20.5259934 C116.612409,21.8489578 115.249355,22.5705748 113.605672,22.5705748 C111.400731,22.5705748 109.797138,21.32779 109.35615,19.2431188 L123.427681,19.2431188 L123.427681,18.4814121 C123.427681,12.1472188 119.298428,7.93778652 113.164684,7.93778652 C107.151209,7.93778652 103.062046,11.9467696 103.062046,17.8399748 C103.062046,23.7331799 107.431838,27.9426121 113.485402,27.9426121 Z M117.213757,15.9958425 L109.31606,15.9958425 C109.716958,14.0715307 111.120102,12.9891052 113.204774,12.9891052 C115.369625,12.9891052 116.812858,14.0715307 117.213757,15.9958425 Z M132.269715,27.9426121 C133.753039,27.9426121 135.035914,27.6619833 136.118339,27.1408155 C136.960226,26.7399172 137.441304,26.2989291 138.28319,25.136324 L138.28319,27.2209952 L144.376844,27.2209952 L144.376844,0.481077971 L138.28319,0.481077971 L138.28319,10.3431764 C136.519238,8.65940348 134.795375,7.93778652 132.389985,7.93778652 C130.064775,7.93778652 127.739565,8.89994246 125.895432,10.5436255 C123.850851,12.4278476 122.848605,14.9535069 122.848605,18.1606934 C122.848605,24.0538986 126.617049,27.9426121 132.269715,27.9426121 Z M133.873309,23.1318324 C131.30756,23.1318324 129.343158,20.9669816 129.343158,18.1606934 C129.343158,15.1940459 131.26747,12.9891052 133.873309,12.9891052 C136.398968,12.9891052 138.28319,15.1940459 138.28319,18.1606934 C138.28319,20.9669816 136.358878,23.1318324 133.873309,23.1318324 Z M149.209896,6.49455261 C151.054028,6.49455261 152.457173,5.13149836 152.457173,3.28736614 C152.457173,1.36305425 151.134208,0 149.249986,0 C147.325674,0 145.96262,1.36305425 145.96262,3.2472763 C145.96262,5.13149836 147.325674,6.49455261 149.209896,6.49455261 Z M179.433768,28 C181.2779,28 182.681045,26.6369457 182.681045,24.7928135 C182.681045,22.8685016 181.35808,21.5054474 179.473858,21.5054474 C177.549546,21.5054474 176.186492,22.8685016 176.186492,24.7527237 C176.186492,26.6369457 177.549546,28 179.433768,28 Z M152.256723,27.2209952 L152.256723,8.65940348 L146.163069,8.65940348 L146.163069,27.2209952 L152.256723,27.2209952 Z M161.980735,27.9426121 C164.626663,27.9426121 166.591065,27.0606359 168.274838,25.136324 L168.274838,27.2209952 L174.368492,27.2209952 L174.368492,8.65940348 L168.274838,8.65940348 L168.274838,10.663895 C166.470796,8.69949331 164.867202,7.93778652 162.501902,7.93778652 C156.929416,7.93778652 152.880343,12.2674883 152.880343,18.2007832 C152.880343,23.8935392 156.688877,27.9426121 161.980735,27.9426121 Z M163.784777,23.1318324 C161.299207,23.1318324 159.374896,20.9268917 159.374896,18.0805137 C159.374896,15.1138663 161.219028,12.9891052 163.824867,12.9891052 C166.470796,12.9891052 168.355018,15.0336866 168.355018,18.0003341 C168.355018,20.8066222 166.310436,23.1318324 163.784777,23.1318324 Z" fill="#303030" fill-rule="nonzero"></path>
    </g>
</svg>