<?xml version="1.0" encoding="UTF-8"?>
<svg width="176px" height="102px" viewBox="0 0 176 102" version="1.1" xmlns="http://www.w3.org/2000/svg" xmlns:xlink="http://www.w3.org/1999/xlink">
    <!-- Generator: Sketch 57 (83077) - https://sketch.com -->
    <title>Aa</title>
    <desc>Created with Sketch.</desc>
    <g id="Page-1" stroke="none" stroke-width="1" fill="none" fill-rule="evenodd">
        <path d="M103.95,100.05 L79.65,100.05 L73.5,83.1 L30.6,83.1 L24.3,100.05 L0,100.05 L38.7,0 L65.4,0 L103.95,100.05 Z M67.65,64.35 L52.05,21.3 L36.45,64.35 L67.65,64.35 Z M175.35,100.05 L156.3,100.05 L156.3,92.55 C151.35,98.4 142.8,101.85 133.35,101.85 C121.8,101.85 108.15,94.05 108.15,77.85 C108.15,60.9 121.8,54.45 133.35,54.45 C142.95,54.45 151.5,57.6 156.3,63.3 L156.3,53.55 C156.3,46.2 150,41.4 140.4,41.4 C132.6,41.4 125.4,44.25 119.25,49.95 L112.05,37.2 C120.9,29.4 132.3,25.8 143.7,25.8 C160.2,25.8 175.35,32.4 175.35,53.25 L175.35,100.05 Z M141,88.95 C147.15,88.95 153.15,86.85 156.3,82.65 L156.3,73.65 C153.15,69.45 147.15,67.35 141,67.35 C133.5,67.35 127.35,71.25 127.35,78.3 C127.35,85.05 133.5,88.95 141,88.95 Z" id="Aa" fill="#2C2C2C" fill-rule="nonzero"></path>
    </g>
</svg>