<svg xmlns="http://www.w3.org/2000/svg" version="1.1" width="1024" height="1024">
<rect x="0" y="0" width="1024" height="1024" fill="#8b7365" />
<g transform="scale(4.000000) translate(0.5 0.5)">
<polygon fill="#000000" fill-opacity="0.501961" points="4,271 -15,171 271,252" />
<polygon fill="#efdbaf" fill-opacity="0.501961" points="271,-3 111,-16 254,180" />
<polygon fill="#fffffc" fill-opacity="0.501961" points="-16,104 -16,0 90,-5" />
<polygon fill="#ffc3c1" fill-opacity="0.501961" points="58,50 177,119 84,213" />
<polygon fill="#000000" fill-opacity="0.501961" points="218,135 271,228 212,271" />
<polygon fill="#0d0800" fill-opacity="0.501961" points="98,5 159,80 35,46" />
<polygon fill="#ffedd8" fill-opacity="0.501961" points="8,78 85,208 -16,126" />
<polygon fill="#362314" fill-opacity="0.501961" points="191,85 81,271 198,221" />
<polygon fill="#00060c" fill-opacity="0.501961" points="-16,264 138,271 -16,132" />
<polygon fill="#e6c393" fill-opacity="0.501961" points="208,143 215,271 183,261" />
<polygon fill="#ffd6cc" fill-opacity="0.501961" points="101,64 135,188 158,105" />
<polygon fill="#311e14" fill-opacity="0.501961" points="170,163 149,75 203,112" />
<polygon fill="#000000" fill-opacity="0.501961" points="27,80 52,26 39,104" />
<polygon fill="#00111f" fill-opacity="0.501961" points="208,162 271,180 225,271" />
<polygon fill="#fff6d1" fill-opacity="0.501961" points="101,-2 -16,-13 27,51" />
<polygon fill="#f7d7ae" fill-opacity="0.501961" points="247,112 202,163 205,66" />
<polygon fill="#060b13" fill-opacity="0.501961" points="133,195 127,267 -16,227" />
<polygon fill="#d2ab83" fill-opacity="0.501961" points="177,217 173,161 150,253" />
<polygon fill="#513430" fill-opacity="0.501961" points="126,106 104,134 78,109" />
<polygon fill="#da9e93" fill-opacity="0.501961" points="40,144 35,188 89,205" />
<polygon fill="#d98c77" fill-opacity="0.501961" points="15,11 -16,104 33,114" />
<polygon fill="#000000" fill-opacity="0.501961" points="-5,145 20,145 3,186" />
<polygon fill="#9bbdba" fill-opacity="0.501961" points="-16,261 -16,185 14,185" />
<polygon fill="#f4a6a4" fill-opacity="0.501961" points="48,142 123,196 173,119" />
<polygon fill="#70583c" fill-opacity="0.501961" points="75,2 155,21 178,66" />
<polygon fill="#f4f7de" fill-opacity="0.501961" points="-16,120 32,108 40,163" />
<polygon fill="#e0a995" fill-opacity="0.501961" points="47,64 140,77 54,111" />
<polygon fill="#282721" fill-opacity="0.501961" points="151,255 195,271 198,204" />
<polygon fill="#9b5351" fill-opacity="0.501961" points="99,177 36,137 92,208" />
<polygon fill="#ccb895" fill-opacity="0.501961" points="185,226 185,251 171,204" />
<polygon fill="#d7c6a6" fill-opacity="0.501961" points="100,12 171,9 90,-16" />
<polygon fill="#3b211e" fill-opacity="0.501961" points="68,134 74,116 38,110" />
<polygon fill="#2d2820" fill-opacity="0.501961" points="28,78 94,31 52,29" />
<polygon fill="#e0b792" fill-opacity="0.501961" points="242,130 164,74 189,39" />
<polygon fill="#fce3b8" fill-opacity="0.501961" points="201,238 214,206 207,264" />
<polygon fill="#161d26" fill-opacity="0.501961" points="202,271 240,155 271,267" />
<polygon fill="#f7edd5" fill-opacity="0.501961" points="18,85 25,-16 52,14" />
<polygon fill="#fec9bb" fill-opacity="0.501961" points="151,103 86,62 146,167" />
<polygon fill="#57402e" fill-opacity="0.501961" points="88,61 114,10 168,91" />
<polygon fill="#f8fae2" fill-opacity="0.501961" points="22,173 20,151 32,155" />
<polygon fill="#af7f6d" fill-opacity="0.501961" points="31,180 87,171 44,117" />
<polygon fill="#000208" fill-opacity="0.501961" points="147,271 174,216 182,263" />
<polygon fill="#ffcdcc" fill-opacity="0.501961" points="82,117 70,153 97,157" />
<polygon fill="#d4897a" fill-opacity="0.501961" points="25,114 -16,25 17,22" />
<polygon fill="#fdc3c2" fill-opacity="0.501961" points="75,186 87,206 52,191" />
<polygon fill="#d9b68f" fill-opacity="0.501961" points="227,97 206,188 202,101" />
<polygon fill="#af8370" fill-opacity="0.501961" points="71,136 87,58 59,51" />
<polygon fill="#281d18" fill-opacity="0.501961" points="89,221 157,199 151,172" />
<polygon fill="#c68d8e" fill-opacity="0.501961" points="75,199 121,199 158,155" />
<polygon fill="#18140e" fill-opacity="0.501961" points="173,185 185,219 184,169" />
<polygon fill="#f5f7e4" fill-opacity="0.501961" points="232,92 237,139 245,122" />
<polygon fill="#664735" fill-opacity="0.501961" points="175,103 120,231 168,207" />
<polygon fill="#594644" fill-opacity="0.501961" points="95,123 91,106 129,119" />
<polygon fill="#161719" fill-opacity="0.501961" points="52,194 -16,270 155,232" />
<polygon fill="#a39985" fill-opacity="0.501961" points="217,-5 271,40 255,180" />
<polygon fill="#261e1b" fill-opacity="0.501961" points="163,114 201,108 150,88" />
<polygon fill="#917169" fill-opacity="0.501961" points="9,113 -16,97 36,100" />
<polygon fill="#775032" fill-opacity="0.501961" points="202,109 172,151 197,209" />
<polygon fill="#1e221a" fill-opacity="0.501961" points="24,209 18,144 0,149" />
<polygon fill="#f0b481" fill-opacity="0.501961" points="140,46 157,71 183,81" />
<polygon fill="#f2efdb" fill-opacity="0.501961" points="-16,146 26,113 18,143" />
<polygon fill="#883e48" fill-opacity="0.501961" points="68,179 118,172 78,189" />
<polygon fill="#ffffde" fill-opacity="0.501961" points="205,129 213,128 207,157" />
<polygon fill="#fef5e3" fill-opacity="0.501961" points="39,22 -12,22 12,-16" />
<polygon fill="#a98e71" fill-opacity="0.501961" points="200,78 223,101 224,130" />
<polygon fill="#2f3d45" fill-opacity="0.501961" points="213,161 219,141 271,195" />
<polygon fill="#be8c6a" fill-opacity="0.501961" points="166,173 170,203 182,149" />
<polygon fill="#050909" fill-opacity="0.501961" points="89,203 117,217 141,200" />
<polygon fill="#c8958b" fill-opacity="0.501961" points="128,108 42,75 43,108" />
<polygon fill="#2d251e" fill-opacity="0.501961" points="37,49 31,93 73,27" />
<polygon fill="#f6e0b8" fill-opacity="0.501961" points="177,204 181,229 174,215" />
<polygon fill="#524932" fill-opacity="0.501961" points="33,162 35,213 19,175" />
<polygon fill="#c0b298" fill-opacity="0.501961" points="30,49 27,109 11,78" />
<polygon fill="#dec4a1" fill-opacity="0.501961" points="192,92 159,1 234,106" />
<polygon fill="#26211e" fill-opacity="0.501961" points="138,64 84,57 75,32" />
<polygon fill="#d2bfa3" fill-opacity="0.501961" points="92,-7 50,7 29,55" />
<polygon fill="#987254" fill-opacity="0.501961" points="183,74 166,32 119,35" />
<polygon fill="#c4a37f" fill-opacity="0.501961" points="155,221 157,236 174,203" />
<polygon fill="#715c33" fill-opacity="0.501961" points="45,109 32,107 40,140" />
<polygon fill="#876b52" fill-opacity="0.501961" points="126,225 157,201 140,227" />
<polygon fill="#936647" fill-opacity="0.501961" points="178,97 131,56 167,72" />
<polygon fill="#fde1c2" fill-opacity="0.501961" points="233,136 218,124 237,155" />
<polygon fill="#cdad85" fill-opacity="0.501961" points="196,271 215,222 202,198" />
<polygon fill="#9e7865" fill-opacity="0.501961" points="171,129 153,145 156,109" />
<polygon fill="#1a1311" fill-opacity="0.501961" points="189,220 181,219 185,244" />
<polygon fill="#9a988c" fill-opacity="0.501961" points="256,88 238,160 271,196" />
<polygon fill="#fbcfc1" fill-opacity="0.501961" points="135,82 107,75 149,145" />
<polygon fill="#a57953" fill-opacity="0.501961" points="189,219 204,202 202,248" />
<polygon fill="#1c1e22" fill-opacity="0.501961" points="216,149 213,271 271,251" />
<polygon fill="#fcdab7" fill-opacity="0.501961" points="171,185 179,214 171,201" />
<polygon fill="#9a7069" fill-opacity="0.501961" points="80,116 104,138 118,124" />
<polygon fill="#77766e" fill-opacity="0.501961" points="216,200 215,184 221,196" />
<polygon fill="#f5dbb7" fill-opacity="0.501961" points="214,250 202,233 210,233" />
<polygon fill="#90826a" fill-opacity="0.501961" points="209,153 244,146 211,143" />
<polygon fill="#b39b78" fill-opacity="0.501961" points="235,102 187,-16 241,-16" />
<polygon fill="#e0565e" fill-opacity="0.501961" points="-16,46 19,41 14,56" />
<polygon fill="#23211a" fill-opacity="0.501961" points="157,206 108,264 137,271" />
<polygon fill="#000103" fill-opacity="0.501961" points="67,119 54,119 72,128" />
<polygon fill="#94633f" fill-opacity="0.501961" points="193,162 197,96 205,128" />
<polygon fill="#2f2617" fill-opacity="0.501961" points="194,195 183,177 193,220" />
<polygon fill="#8a6652" fill-opacity="0.501961" points="70,48 113,71 53,58" />
<polygon fill="#bd938d" fill-opacity="0.501961" points="133,188 109,164 103,202" />
<polygon fill="#574c3b" fill-opacity="0.501961" points="177,230 166,223 174,204" />
<polygon fill="#fbfffd" fill-opacity="0.501961" points="23,114 -16,124 -1,112" />
<polygon fill="#90846f" fill-opacity="0.501961" points="182,232 182,256 188,246" />
<polygon fill="#25221e" fill-opacity="0.501961" points="-10,189 26,200 40,187" />
<polygon fill="#dcbbaf" fill-opacity="0.501961" points="102,158 102,174 75,175" />
<polygon fill="#7a6c57" fill-opacity="0.501961" points="107,7 85,2 109,20" />
<polygon fill="#151613" fill-opacity="0.501961" points="10,193 63,260 -13,271" />
<polygon fill="#c9998b" fill-opacity="0.501961" points="50,60 105,68 73,134" />
<polygon fill="#06040b" fill-opacity="0.501961" points="191,237 185,271 195,271" />
<polygon fill="#613730" fill-opacity="0.501961" points="64,177 78,185 56,158" />
<polygon fill="#d0c2a9" fill-opacity="0.501961" points="21,174 40,145 31,106" />
<polygon fill="#e5deb6" fill-opacity="0.501961" points="10,43 -16,29 19,36" />
<polygon fill="#85a296" fill-opacity="0.501961" points="-12,198 4,195 -2,241" />
<polygon fill="#eae2c6" fill-opacity="0.501961" points="250,137 238,98 216,83" />
<polygon fill="#53463b" fill-opacity="0.501961" points="39,46 81,30 52,31" />
<polygon fill="#645c49" fill-opacity="0.501961" points="40,185 30,221 28,203" />
<polygon fill="#866259" fill-opacity="0.501961" points="91,210 80,191 92,197" />
<polygon fill="#171716" fill-opacity="0.501961" points="27,230 81,204 39,190" />
<polygon fill="#ffffeb" fill-opacity="0.501961" points="213,203 212,210 208,194" />
<polygon fill="#9c5e5b" fill-opacity="0.501961" points="152,155 120,196 141,181" />
<polygon fill="#c6b193" fill-opacity="0.501961" points="81,-16 171,36 191,-16" />
<polygon fill="#87644f" fill-opacity="0.501961" points="153,92 132,67 111,68" />
<polygon fill="#c3b59c" fill-opacity="0.501961" points="249,134 233,92 247,45" />
<polygon fill="#413a2e" fill-opacity="0.501961" points="53,55 132,26 83,11" />
<polygon fill="#1d140d" fill-opacity="0.501961" points="31,168 25,173 34,192" />
<polygon fill="#823938" fill-opacity="0.501961" points="88,157 78,159 91,160" />
<polygon fill="#2e2218" fill-opacity="0.501961" points="35,54 29,93 44,103" />
<polygon fill="#a5947c" fill-opacity="0.501961" points="70,21 61,0 62,30" />
<polygon fill="#b89480" fill-opacity="0.501961" points="31,177 50,193 39,156" />
<polygon fill="#da494a" fill-opacity="0.501961" points="-13,34 14,24 -2,23" />
<polygon fill="#f2f6d7" fill-opacity="0.501961" points="210,219 213,211 213,225" />
<polygon fill="#806b53" fill-opacity="0.501961" points="26,77 27,95 18,103" />
<polygon fill="#816f56" fill-opacity="0.501961" points="165,46 145,16 98,6" />
<polygon fill="#131420" fill-opacity="0.501961" points="100,115 119,119 109,121" />
<polygon fill="#cc948c" fill-opacity="0.501961" points="119,110 130,121 94,159" />
<polygon fill="#d2a79f" fill-opacity="0.501961" points="92,209 50,185 50,158" />
<polygon fill="#373f48" fill-opacity="0.501961" points="224,148 262,188 253,216" />
<polygon fill="#769387" fill-opacity="0.501961" points="20,61 18,50 6,61" />
<polygon fill="#8c5a3e" fill-opacity="0.501961" points="159,219 175,155 158,180" />
<polygon fill="#f2abac" fill-opacity="0.501961" points="162,127 110,145 128,179" />
<polygon fill="#75634b" fill-opacity="0.501961" points="143,262 150,239 161,240" />
<polygon fill="#81574d" fill-opacity="0.501961" points="93,105 117,106 91,123" />
<polygon fill="#e9b8a9" fill-opacity="0.501961" points="127,75 107,106 84,74" />
<polygon fill="#75583e" fill-opacity="0.501961" points="105,26 132,26 164,90" />
<polygon fill="#46352b" fill-opacity="0.501961" points="152,203 167,170 115,199" />
<polygon fill="#ffefbe" fill-opacity="0.501961" points="205,126 209,141 211,115" />
<polygon fill="#4c362c" fill-opacity="0.501961" points="180,143 159,137 146,177" />
<polygon fill="#ffc5be" fill-opacity="0.501961" points="74,125 99,137 90,158" />
<polygon fill="#f4debe" fill-opacity="0.501961" points="177,231 181,230 179,216" />
<polygon fill="#e1ad96" fill-opacity="0.501961" points="24,78 -16,104 -2,51" />
<polygon fill="#f2e6d1" fill-opacity="0.501961" points="58,23 -16,21 59,-16" />
<polygon fill="#998268" fill-opacity="0.501961" points="167,98 183,97 173,86" />
<polygon fill="#847562" fill-opacity="0.501961" points="212,221 206,230 209,205" />
<polygon fill="#1c1b1f" fill-opacity="0.501961" points="135,221 10,220 103,271" />
<polygon fill="#a28a74" fill-opacity="0.501961" points="236,125 233,114 228,132" />
<polygon fill="#ae8b75" fill-opacity="0.501961" points="65,57 43,73 40,116" />
<polygon fill="#ad7767" fill-opacity="0.501961" points="36,133 71,136 66,167" />
<polygon fill="#d5be9f" fill-opacity="0.501961" points="88,11 60,-9 92,-16" />
<polygon fill="#c59f7e" fill-opacity="0.501961" points="219,93 223,130 162,54" />
<polygon fill="#be9c79" fill-opacity="0.501961" points="186,210 186,198 192,220" />
<polygon fill="#6a3811" fill-opacity="0.501961" points="186,93 178,84 167,81" />
<polygon fill="#fcf8e5" fill-opacity="0.501961" points="36,26 27,65 23,24" />
<polygon fill="#090e08" fill-opacity="0.501961" points="33,190 18,210 27,218" />
<polygon fill="#deb28a" fill-opacity="0.501961" points="194,93 172,65 175,84" />
<polygon fill="#946f52" fill-opacity="0.501961" points="198,182 198,216 190,191" />
<polygon fill="#000000" fill-opacity="0.501961" points="208,265 211,244 214,266" />
<polygon fill="#dccaa8" fill-opacity="0.501961" points="201,208 206,199 210,227" />
<polygon fill="#c89490" fill-opacity="0.501961" points="109,201 148,166 93,180" />
<polygon fill="#deb695" fill-opacity="0.501961" points="163,66 143,46 149,59" />
<polygon fill="#948e7e" fill-opacity="0.501961" points="249,110 270,32 249,26" />
<polygon fill="#8f7063" fill-opacity="0.501961" points="98,172 118,181 111,171" />
<polygon fill="#836949" fill-opacity="0.501961" points="224,126 214,110 222,115" />
<polygon fill="#a4796d" fill-opacity="0.501961" points="23,111 -15,113 23,98" />
<polygon fill="#6f492c" fill-opacity="0.501961" points="158,49 147,49 168,70" />
<polygon fill="#21231d" fill-opacity="0.501961" points="230,167 209,183 217,147" />
<polygon fill="#815b4f" fill-opacity="0.501961" points="73,136 41,128 49,117" />
<polygon fill="#5e5134" fill-opacity="0.501961" points="211,149 211,163 209,156" />
<polygon fill="#fdd7b0" fill-opacity="0.501961" points="211,196 204,183 206,166" />
<polygon fill="#1f1c18" fill-opacity="0.501961" points="185,98 186,129 170,99" />
<polygon fill="#9e8168" fill-opacity="0.501961" points="156,171 164,160 161,175" />
<polygon fill="#6194aa" fill-opacity="0.501961" points="8,193 -1,195 4,204" />
<polygon fill="#cab69a" fill-opacity="0.501961" points="167,1 67,-13 115,11" />
<polygon fill="#665747" fill-opacity="0.501961" points="34,194 23,183 47,192" />
<polygon fill="#785f44" fill-opacity="0.501961" points="140,207 146,226 126,216" />
<polygon fill="#c09392" fill-opacity="0.501961" points="98,203 81,189 132,186" />
<polygon fill="#a89486" fill-opacity="0.501961" points="191,221 192,232 187,242" />
<polygon fill="#976645" fill-opacity="0.501961" points="204,134 203,155 187,171" />
<polygon fill="#502c27" fill-opacity="0.501961" points="98,202 85,197 90,203" />
<polygon fill="#b37260" fill-opacity="0.501961" points="-2,86 15,79 6,75" />
<polygon fill="#ab7b72" fill-opacity="0.501961" points="41,101 68,118 94,114" />
<polygon fill="#e1c1ae" fill-opacity="0.501961" points="149,89 154,101 150,97" />
<polygon fill="#2c1c12" fill-opacity="0.501961" points="179,161 192,146 183,150" />
<polygon fill="#3d3129" fill-opacity="0.501961" points="137,51 99,67 70,17" />
<polygon fill="#b0a994" fill-opacity="0.501961" points="24,172 31,165 27,163" />
<polygon fill="#ab8466" fill-opacity="0.501961" points="150,233 167,197 165,217" />
<polygon fill="#62422b" fill-opacity="0.501961" points="198,131 190,98 200,107" />
<polygon fill="#584337" fill-opacity="0.501961" points="157,102 190,119 159,117" />
<polygon fill="#af8f72" fill-opacity="0.501961" points="173,167 173,177 187,159" />
<polygon fill="#212623" fill-opacity="0.501961" points="-10,148 0,191 15,145" />
<polygon fill="#ffcfc5" fill-opacity="0.501961" points="153,134 125,148 142,98" />
<polygon fill="#918975" fill-opacity="0.501961" points="226,148 232,153 215,150" />
<polygon fill="#ccb8a1" fill-opacity="0.501961" points="243,64 240,21 249,39" />
<polygon fill="#684a27" fill-opacity="0.501961" points="206,197 206,205 210,207" />
<polygon fill="#191c20" fill-opacity="0.501961" points="213,270 271,256 218,187" />
<polygon fill="#8c664f" fill-opacity="0.501961" points="135,90 146,85 152,101" />
<polygon fill="#352f26" fill-opacity="0.501961" points="174,190 186,170 178,207" />
<polygon fill="#cbc4bd" fill-opacity="0.501961" points="15,184 8,188 9,185" />
<polygon fill="#e2f1fe" fill-opacity="0.501961" points="212,253 220,262 214,268" />
<polygon fill="#cca482" fill-opacity="0.501961" points="175,94 186,94 169,85" />
<polygon fill="#6a4f3e" fill-opacity="0.501961" points="161,74 180,97 147,85" />
<polygon fill="#ffe8c0" fill-opacity="0.501961" points="195,68 192,58 209,73" />
<polygon fill="#352e24" fill-opacity="0.501961" points="153,244 155,231 139,226" />
<polygon fill="#d1a599" fill-opacity="0.501961" points="135,118 105,112 126,105" />
<polygon fill="#b49f7f" fill-opacity="0.501961" points="208,72 241,99 240,-16" />
<polygon fill="#e6caae" fill-opacity="0.501961" points="247,128 228,145 219,135" />
<polygon fill="#ebcaa5" fill-opacity="0.501961" points="209,97 198,96 189,67" />
<polygon fill="#d8d1bd" fill-opacity="0.501961" points="36,157 20,170 23,136" />
<polygon fill="#cec0a9" fill-opacity="0.501961" points="30,137 25,99 35,123" />
<polygon fill="#a39174" fill-opacity="0.501961" points="38,116 14,86 36,100" />
<polygon fill="#c6bb9f" fill-opacity="0.501961" points="53,8 40,19 42,29" />
<polygon fill="#c4aa8b" fill-opacity="0.501961" points="223,129 211,163 212,124" />
<polygon fill="#e6ddc9" fill-opacity="0.501961" points="-5,119 -5,143 36,145" />
<polygon fill="#c2847d" fill-opacity="0.501961" points="93,147 94,157 108,154" />
<polygon fill="#e39494" fill-opacity="0.501961" points="75,124 80,165 67,153" />
<polygon fill="#b4916f" fill-opacity="0.501961" points="182,46 155,51 167,36" />
<polygon fill="#b48770" fill-opacity="0.501961" points="91,89 65,60 83,63" />
<polygon fill="#a18873" fill-opacity="0.501961" points="191,247 199,234 195,231" />
<polygon fill="#885d39" fill-opacity="0.501961" points="187,79 181,79 188,85" />
<polygon fill="#c79366" fill-opacity="0.501961" points="203,156 209,198 199,179" />
<polygon fill="#c7b9a1" fill-opacity="0.501961" points="246,156 241,126 249,136" />
<polygon fill="#5c4329" fill-opacity="0.501961" points="35,119 41,126 41,136" />
<polygon fill="#d0968b" fill-opacity="0.501961" points="156,141 148,161 136,153" />
<polygon fill="#9e7565" fill-opacity="0.501961" points="152,104 170,129 161,133" />
<polygon fill="#57422f" fill-opacity="0.501961" points="178,195 200,161 192,192" />
<polygon fill="#a69177" fill-opacity="0.501961" points="126,3 152,19 126,12" />
<polygon fill="#1c1a0d" fill-opacity="0.501961" points="138,199 152,193 136,208" />
<polygon fill="#241817" fill-opacity="0.501961" points="167,140 179,119 192,119" />
<polygon fill="#dbbfa3" fill-opacity="0.501961" points="145,40 143,51 146,47" />
<polygon fill="#7e7569" fill-opacity="0.501961" points="164,146 175,144 176,147" />
<polygon fill="#b08173" fill-opacity="0.501961" points="54,154 83,178 41,113" />
<polygon fill="#d8cbb1" fill-opacity="0.501961" points="214,215 206,220 213,229" />
<polygon fill="#b0afab" fill-opacity="0.501961" points="99,119 103,119 106,127" />
<polygon fill="#d0c1a6" fill-opacity="0.501961" points="165,226 166,220 160,226" />
<polygon fill="#1b1512" fill-opacity="0.501961" points="183,201 191,230 181,216" />
<polygon fill="#928c7a" fill-opacity="0.501961" points="248,127 271,146 258,193" />
<polygon fill="#4b4825" fill-opacity="0.501961" points="211,139 211,144 213,142" />
<polygon fill="#af917f" fill-opacity="0.501961" points="42,192 59,190 42,163" />
<polygon fill="#5d4830" fill-opacity="0.501961" points="132,216 135,235 140,209" />
<polygon fill="#fede80" fill-opacity="0.501961" points="-16,227 0,218 -5,246" />
<polygon fill="#d2bb9e" fill-opacity="0.501961" points="127,4 132,-16 185,38" />
<polygon fill="#19181d" fill-opacity="0.501961" points="135,237 77,203 17,271" />
<polygon fill="#533b37" fill-opacity="0.501961" points="54,109 66,118 47,123" />
<polygon fill="#a5805a" fill-opacity="0.501961" points="204,202 196,236 205,225" />
<polygon fill="#785550" fill-opacity="0.501961" points="166,123 172,133 177,116" />
<polygon fill="#28261f" fill-opacity="0.501961" points="176,227 172,210 167,240" />
<polygon fill="#0c0d0e" fill-opacity="0.501961" points="140,271 164,238 180,252" />
<polygon fill="#0b0600" fill-opacity="0.501961" points="38,187 28,181 31,179" />
<polygon fill="#9e7250" fill-opacity="0.501961" points="167,211 159,230 162,192" />
<polygon fill="#e5b68e" fill-opacity="0.501961" points="181,75 170,76 157,64" />
<polygon fill="#ffdcb0" fill-opacity="0.501961" points="208,174 204,162 207,157" />
<polygon fill="#3e3b38" fill-opacity="0.501961" points="221,148 215,149 223,140" />
<polygon fill="#1e1e16" fill-opacity="0.501961" points="8,185 16,164 22,185" />
<polygon fill="#ffffee" fill-opacity="0.501961" points="235,148 233,150 237,157" />
<polygon fill="#bea18f" fill-opacity="0.501961" points="171,211 168,220 171,219" />
<polygon fill="#d5746c" fill-opacity="0.501961" points="19,67 -16,60 -1,69" />
<polygon fill="#996f52" fill-opacity="0.501961" points="177,72 186,73 172,60" />
<polygon fill="#422202" fill-opacity="0.501961" points="167,205 168,212 166,211" />
<polygon fill="#774c28" fill-opacity="0.501961" points="200,141 197,161 203,167" />
<polygon fill="#352110" fill-opacity="0.501961" points="177,145 165,163 168,150" />
<polygon fill="#463d36" fill-opacity="0.501961" points="139,236 135,271 111,271" />
<polygon fill="#544637" fill-opacity="0.501961" points="133,31 95,40 110,10" />
<polygon fill="#926964" fill-opacity="0.501961" points="93,127 98,135 122,119" />
<polygon fill="#787368" fill-opacity="0.501961" points="163,238 159,229 169,223" />
<polygon fill="#ffffe6" fill-opacity="0.501961" points="232,107 240,108 238,121" />
<polygon fill="#5e3a19" fill-opacity="0.501961" points="192,100 189,90 183,90" />
<polygon fill="#010407" fill-opacity="0.501961" points="134,251 146,246 141,240" />
<polygon fill="#6a5d4e" fill-opacity="0.501961" points="69,23 56,27 71,32" />
<polygon fill="#726e61" fill-opacity="0.501961" points="36,195 30,202 30,215" />
<polygon fill="#daac83" fill-opacity="0.501961" points="205,239 198,255 200,217" />
<polygon fill="#515145" fill-opacity="0.501961" points="15,160 10,183 9,165" />
<polygon fill="#23282f" fill-opacity="0.501961" points="221,164 256,188 259,271" />
<polygon fill="#a57656" fill-opacity="0.501961" points="196,94 185,89 202,110" />
<polygon fill="#f1aca9" fill-opacity="0.501961" points="127,136 162,147 87,147" />
<polygon fill="#0c0800" fill-opacity="0.501961" points="190,208 194,212 193,218" />
<polygon fill="#efb4ae" fill-opacity="0.501961" points="73,187 60,195 86,201" />
<polygon fill="#8b816d" fill-opacity="0.501961" points="21,171 21,180 28,188" />
<polygon fill="#bc9984" fill-opacity="0.501961" points="126,76 140,90 134,92" />
<polygon fill="#a88c6f" fill-opacity="0.501961" points="145,15 174,39 139,24" />
<polygon fill="#131816" fill-opacity="0.501961" points="69,122 54,118 62,126" />
<polygon fill="#4f4c3e" fill-opacity="0.501961" points="184,243 192,263 185,262" />
<polygon fill="#e0d5cf" fill-opacity="0.501961" points="9,186 4,188 4,186" />
<polygon fill="#bdaa8c" fill-opacity="0.501961" points="230,96 198,60 190,8" />
<polygon fill="#a3937c" fill-opacity="0.501961" points="116,13 97,13 92,6" />
<polygon fill="#201614" fill-opacity="0.501961" points="44,67 37,92 29,79" />
<polygon fill="#3a2d23" fill-opacity="0.501961" points="174,185 188,157 181,203" />
<polygon fill="#ffd5ca" fill-opacity="0.501961" points="154,116 110,97 141,96" />
<polygon fill="#753938" fill-opacity="0.501961" points="73,181 63,171 86,179" />
<polygon fill="#ecd7c1" fill-opacity="0.501961" points="40,-16 75,-16 80,16" />
<polygon fill="#3b1e17" fill-opacity="0.501961" points="168,135 158,149 161,135" />
<polygon fill="#c28c67" fill-opacity="0.501961" points="204,125 205,153 198,135" />
<polygon fill="#121410" fill-opacity="0.501961" points="38,192 33,204 72,202" />
<polygon fill="#080c0f" fill-opacity="0.501961" points="93,218 123,203 94,203" />
<polygon fill="#eaccb1" fill-opacity="0.501961" points="6,81 16,82 -2,92" />
<polygon fill="#66401f" fill-opacity="0.501961" points="197,221 194,227 199,237" />
<polygon fill="#2b1a0f" fill-opacity="0.501961" points="148,173 158,165 157,157" />
<polygon fill="#806350" fill-opacity="0.501961" points="134,71 157,92 104,65" />
<polygon fill="#645143" fill-opacity="0.501961" points="60,50 92,64 70,45" />
<polygon fill="#d8b391" fill-opacity="0.501961" points="190,85 168,41 183,49" />
<polygon fill="#8c8679" fill-opacity="0.501961" points="183,118 173,117 178,119" />
<polygon fill="#7e6851" fill-opacity="0.501961" points="168,46 154,31 119,33" />
<polygon fill="#676658" fill-opacity="0.501961" points="210,192 210,187 220,199" />
<polygon fill="#ecece2" fill-opacity="0.501961" points="216,185 214,182 214,184" />
<polygon fill="#141613" fill-opacity="0.501961" points="34,189 -1,233 12,271" />
<polygon fill="#d4ab87" fill-opacity="0.501961" points="166,216 175,204 171,198" />
<polygon fill="#78483c" fill-opacity="0.501961" points="50,149 54,160 62,165" />
<polygon fill="#eedaba" fill-opacity="0.501961" points="205,78 221,97 215,82" />
<polygon fill="#262319" fill-opacity="0.501961" points="19,156 22,188 10,178" />
<polygon fill="#584136" fill-opacity="0.501961" points="142,196 136,180 165,167" />
<polygon fill="#2c211c" fill-opacity="0.501961" points="160,89 174,114 192,117" />
<polygon fill="#e4cca8" fill-opacity="0.501961" points="228,133 221,108 228,97" />
<polygon fill="#a17d6b" fill-opacity="0.501961" points="63,57 54,57 44,71" />
<polygon fill="#ac7a55" fill-opacity="0.501961" points="160,69 142,55 152,58" />
<polygon fill="#322a21" fill-opacity="0.501961" points="32,65 64,42 29,89" />
<polygon fill="#2e2d28" fill-opacity="0.501961" points="213,198 216,215 223,206" />
<polygon fill="#a3907b" fill-opacity="0.501961" points="33,124 29,133 31,116" />
<polygon fill="#aa9575" fill-opacity="0.501961" points="228,126 232,136 230,116" />
<polygon fill="#9d8971" fill-opacity="0.501961" points="234,137 241,156 241,141" />
<polygon fill="#ab7d73" fill-opacity="0.501961" points="84,161 83,175 37,158" />
<polygon fill="#6c473c" fill-opacity="0.501961" points="109,175 98,178 102,174" />
<polygon fill="#df9b9b" fill-opacity="0.501961" points="125,184 85,126 141,168" />
<polygon fill="#f4e5cd" fill-opacity="0.501961" points="30,-3 54,30 -16,-2" />
<polygon fill="#e2d6bd" fill-opacity="0.501961" points="-16,46 -12,58 13,62" />
<polygon fill="#a59784" fill-opacity="0.501961" points="25,71 27,85 30,67" />
<polygon fill="#b0a389" fill-opacity="0.501961" points="182,233 179,240 180,232" />
<polygon fill="#9d8b81" fill-opacity="0.501961" points="157,84 166,93 164,88" />
<polygon fill="#9a7561" fill-opacity="0.501961" points="37,187 33,172 48,187" />
<polygon fill="#7b6a55" fill-opacity="0.501961" points="271,38 258,27 249,32" />
<polygon fill="#d8d0b2" fill-opacity="0.501961" points="26,67 41,41 32,40" />
<polygon fill="#bbab91" fill-opacity="0.501961" points="210,174 205,173 214,182" />
<polygon fill="#473830" fill-opacity="0.501961" points="114,66 123,52 146,74" />
<polygon fill="#705a39" fill-opacity="0.501961" points="43,132 39,102 36,121" />
<polygon fill="#d7b0a6" fill-opacity="0.501961" points="83,168 95,176 113,165" />
<polygon fill="#c76675" fill-opacity="0.501961" points="88,184 103,179 74,179" />
<polygon fill="#fdf6db" fill-opacity="0.501961" points="239,115 235,125 240,137" />
<polygon fill="#66523f" fill-opacity="0.501961" points="133,35 113,39 84,17" />
<polygon fill="#e2d5bc" fill-opacity="0.501961" points="35,120 38,143 22,155" />
<polygon fill="#bc9987" fill-opacity="0.501961" points="43,133 33,173 57,180" />
<polygon fill="#955e59" fill-opacity="0.501961" points="155,149 133,182 150,170" />
<polygon fill="#d39f99" fill-opacity="0.501961" points="76,85 75,115 100,97" />
<polygon fill="#615b54" fill-opacity="0.501961" points="20,200 13,196 11,190" />
<polygon fill="#372614" fill-opacity="0.501961" points="34,166 31,164 27,173" />
<polygon fill="#fdc8c1" fill-opacity="0.501961" points="138,144 119,118 146,137" />
<polygon fill="#f6f4ed" fill-opacity="0.501961" points="33,118 7,117 18,113" />
<polygon fill="#e8b4a3" fill-opacity="0.501961" points="158,134 153,112 143,147" />
<polygon fill="#594231" fill-opacity="0.501961" points="187,117 200,118 177,157" />
<polygon fill="#c0b29e" fill-opacity="0.501961" points="27,139 30,131 33,150" />
<polygon fill="#bda78a" fill-opacity="0.501961" points="96,-16 71,17 99,-4" />
<polygon fill="#1f221a" fill-opacity="0.501961" points="211,177 218,197 211,187" />
<polygon fill="#ad7e79" fill-opacity="0.501961" points="58,164 76,188 65,183" />
<polygon fill="#d0d0c1" fill-opacity="0.501961" points="184,252 171,271 181,264" />
<polygon fill="#2f1804" fill-opacity="0.501961" points="172,96 168,91 181,96" />
<polygon fill="#6f533e" fill-opacity="0.501961" points="134,80 136,72 149,95" />
<polygon fill="#c8ae8c" fill-opacity="0.501961" points="212,95 223,95 236,116" />
<polygon fill="#deb791" fill-opacity="0.501961" points="199,196 203,173 207,207" />
<polygon fill="#848485" fill-opacity="0.501961" points="54,124 62,129 56,121" />
<polygon fill="#7b614b" fill-opacity="0.501961" points="157,271 139,271 148,242" />
<polygon fill="#232c34" fill-opacity="0.501961" points="106,115 114,123 104,121" />
<polygon fill="#6e5c4e" fill-opacity="0.501961" points="152,217 158,218 143,224" />
<polygon fill="#4c5157" fill-opacity="0.501961" points="239,162 227,162 224,144" />
<polygon fill="#3b2918" fill-opacity="0.501961" points="33,94 41,88 42,104" />
<polygon fill="#926f6b" fill-opacity="0.501961" points="105,202 122,197 134,183" />
<polygon fill="#f9e0b8" fill-opacity="0.501961" points="213,229 208,249 206,237" />
<polygon fill="#774e36" fill-opacity="0.501961" points="170,201 168,169 158,183" />
<polygon fill="#5a3b31" fill-opacity="0.501961" points="96,112 102,107 87,110" />
<polygon fill="#b8a893" fill-opacity="0.501961" points="36,100 31,95 37,110" />
<polygon fill="#4c3a27" fill-opacity="0.501961" points="192,249 196,259 196,237" />
<polygon fill="#393025" fill-opacity="0.501961" points="119,20 83,17 103,25" />
<polygon fill="#605142" fill-opacity="0.501961" points="40,48 45,37 59,30" />
<polygon fill="#c5bca3" fill-opacity="0.501961" points="31,117 16,120 28,122" />
<polygon fill="#7e4c47" fill-opacity="0.501961" points="70,124 70,131 52,134" />
<polygon fill="#c8b69f" fill-opacity="0.501961" points="70,10 72,17 52,11" />
<polygon fill="#9d8469" fill-opacity="0.501961" points="191,231 190,220 196,230" />
<polygon fill="#665f4e" fill-opacity="0.501961" points="27,68 37,60 33,56" />
<polygon fill="#352116" fill-opacity="0.501961" points="153,182 156,195 158,179" />
<polygon fill="#9f866a" fill-opacity="0.501961" points="135,37 132,42 144,48" />
<polygon fill="#675135" fill-opacity="0.501961" points="91,4 86,8 102,7" />
<polygon fill="#d0c3b1" fill-opacity="0.501961" points="210,229 209,239 214,249" />
<polygon fill="#5b4a39" fill-opacity="0.501961" points="133,212 146,229 121,218" />
<polygon fill="#6a706c" fill-opacity="0.501961" points="178,207 181,207 182,200" />
<polygon fill="#d86d6d" fill-opacity="0.501961" points="11,43 -8,39 -16,74" />
<polygon fill="#e8b184" fill-opacity="0.501961" points="205,122 210,114 198,93" />
<polygon fill="#7a7874" fill-opacity="0.501961" points="191,249 185,271 178,271" />
<polygon fill="#332c24" fill-opacity="0.501961" points="114,67 82,27 62,38" />
<polygon fill="#d2aea5" fill-opacity="0.501961" points="73,187 66,198 49,165" />
<polygon fill="#1b1c1e" fill-opacity="0.501961" points="228,192 212,237 224,271" />
<polygon fill="#895b38" fill-opacity="0.501961" points="171,71 165,58 161,59" />
<polygon fill="#a88a6f" fill-opacity="0.501961" points="164,48 141,34 155,50" />
<polygon fill="#7b6c50" fill-opacity="0.501961" points="28,71 25,82 24,75" />
</g>
</svg>