<svg xmlns="http://www.w3.org/2000/svg" version="1.1" width="1024" height="1024">
<rect x="0" y="0" width="1024" height="1024" fill="#847d73" />
<g transform="scale(4.000000) translate(0.5 0.5)">
<polygon fill="#ffffff" fill-opacity="0.501961" points="-16,188 195,70 169,235" />
<polygon fill="#000000" fill-opacity="0.501961" points="12,-16 163,74 -16,161" />
<polygon fill="#ffffff" fill-opacity="0.501961" points="90,-13 171,7 224,186" />
<polygon fill="#1a0003" fill-opacity="0.501961" points="254,271 271,3 175,-16" />
<polygon fill="#e8ebc5" fill-opacity="0.501961" points="7,271 271,132 -16,140" />
<polygon fill="#110003" fill-opacity="0.501961" points="166,207 219,164 259,271" />
<polygon fill="#0d041b" fill-opacity="0.501961" points="68,140 -16,21 105,-16" />
<polygon fill="#0c0007" fill-opacity="0.501961" points="66,123 126,127 147,81" />
<polygon fill="#ffffee" fill-opacity="0.501961" points="188,11 138,5 154,196" />
<polygon fill="#0e091a" fill-opacity="0.501961" points="178,58 227,-16 237,157" />
<polygon fill="#bdb28f" fill-opacity="0.501961" points="3,271 178,248 -16,108" />
<polygon fill="#ac8559" fill-opacity="0.501961" points="214,171 271,45 271,208" />
<polygon fill="#f9fff8" fill-opacity="0.501961" points="148,215 183,120 72,132" />
<polygon fill="#452c2d" fill-opacity="0.501961" points="271,236 187,271 196,157" />
<polygon fill="#261d2b" fill-opacity="0.501961" points="-16,125 151,68 60,-16" />
<polygon fill="#c7c0a4" fill-opacity="0.501961" points="241,179 182,160 183,65" />
<polygon fill="#f3ffdc" fill-opacity="0.501961" points="95,13 124,-16 173,67" />
<polygon fill="#312530" fill-opacity="0.501961" points="20,144 -16,-16 134,111" />
<polygon fill="#b79a80" fill-opacity="0.501961" points="255,46 228,10 271,16" />
<polygon fill="#a48561" fill-opacity="0.501961" points="102,271 80,209 227,234" />
<polygon fill="#523d44" fill-opacity="0.501961" points="120,136 148,71 73,80" />
<polygon fill="#c6ccb9" fill-opacity="0.501961" points="109,159 -12,242 -2,142" />
<polygon fill="#ac9b81" fill-opacity="0.501961" points="173,171 152,269 181,222" />
<polygon fill="#6c4526" fill-opacity="0.501961" points="216,133 271,132 230,154" />
<polygon fill="#f6ffeb" fill-opacity="0.501961" points="104,177 182,49 168,159" />
<polygon fill="#885f53" fill-opacity="0.501961" points="13,34 8,-16 31,15" />
<polygon fill="#261e2c" fill-opacity="0.501961" points="267,115 200,-16 183,57" />
<polygon fill="#c6c3a5" fill-opacity="0.501961" points="90,253 49,130 42,264" />
<polygon fill="#f6dcc7" fill-opacity="0.501961" points="118,74 125,86 117,88" />
<polygon fill="#191425" fill-opacity="0.501961" points="234,179 248,208 193,235" />
<polygon fill="#c3c4ae" fill-opacity="0.501961" points="106,119 2,165 46,224" />
<polygon fill="#66484c" fill-opacity="0.501961" points="199,205 168,196 215,162" />
<polygon fill="#10121e" fill-opacity="0.501961" points="98,-10 52,0 57,77" />
<polygon fill="#2b2027" fill-opacity="0.501961" points="169,2 253,22 233,45" />
<polygon fill="#a9a188" fill-opacity="0.501961" points="119,44 101,0 156,66" />
<polygon fill="#614534" fill-opacity="0.501961" points="154,265 260,207 246,271" />
<polygon fill="#c7b69a" fill-opacity="0.501961" points="238,109 271,123 239,119" />
<polygon fill="#c7c6b1" fill-opacity="0.501961" points="238,170 181,134 202,106" />
<polygon fill="#faffe6" fill-opacity="0.501961" points="112,3 176,18 149,51" />
<polygon fill="#d3dbbe" fill-opacity="0.501961" points="183,36 188,142 133,42" />
<polygon fill="#9f8359" fill-opacity="0.501961" points="101,-1 180,5 178,-16" />
<polygon fill="#231d29" fill-opacity="0.501961" points="93,64 -8,146 54,121" />
<polygon fill="#ebe1bc" fill-opacity="0.501961" points="234,14 251,18 263,13" />
<polygon fill="#ccd5bd" fill-opacity="0.501961" points="175,205 59,172 146,225" />
<polygon fill="#a9a18e" fill-opacity="0.501961" points="144,90 116,137 135,129" />
<polygon fill="#241f29" fill-opacity="0.501961" points="-16,76 17,120 47,-16" />
<polygon fill="#b78a75" fill-opacity="0.501961" points="6,115 -16,146 16,126" />
<polygon fill="#ada49f" fill-opacity="0.501961" points="118,75 127,82 99,77" />
<polygon fill="#241c29" fill-opacity="0.501961" points="271,13 271,-14 172,5" />
<polygon fill="#b0ad97" fill-opacity="0.501961" points="34,204 137,220 116,190" />
<polygon fill="#503e41" fill-opacity="0.501961" points="118,37 79,81 90,8" />
<polygon fill="#a37e70" fill-opacity="0.501961" points="205,170 196,146 173,191" />
<polygon fill="#f8fff0" fill-opacity="0.501961" points="132,164 84,137 105,124" />
<polygon fill="#181825" fill-opacity="0.501961" points="240,222 198,231 177,205" />
<polygon fill="#241d28" fill-opacity="0.501961" points="73,53 132,49 145,87" />
<polygon fill="#ab9a81" fill-opacity="0.501961" points="99,-2 111,1 93,26" />
<polygon fill="#2e222c" fill-opacity="0.501961" points="204,100 186,62 263,50" />
<polygon fill="#7a5d57" fill-opacity="0.501961" points="251,41 241,108 264,57" />
<polygon fill="#ad9075" fill-opacity="0.501961" points="22,145 54,130 70,139" />
<polygon fill="#a89d7c" fill-opacity="0.501961" points="31,219 -16,264 51,257" />
<polygon fill="#9d9081" fill-opacity="0.501961" points="96,118 84,126 128,132" />
<polygon fill="#967f6c" fill-opacity="0.501961" points="199,100 182,39 180,70" />
<polygon fill="#eaf4de" fill-opacity="0.501961" points="162,53 193,106 137,126" />
<polygon fill="#d3d9c1" fill-opacity="0.501961" points="23,143 -16,142 -16,219" />
<polygon fill="#987e66" fill-opacity="0.501961" points="185,45 192,16 179,10" />
<polygon fill="#94745d" fill-opacity="0.501961" points="230,231 131,230 159,261" />
<polygon fill="#795b3a" fill-opacity="0.501961" points="230,137 249,221 271,157" />
<polygon fill="#3e3233" fill-opacity="0.501961" points="14,64 -16,11 12,4" />
<polygon fill="#a79e8b" fill-opacity="0.501961" points="197,142 211,140 188,114" />
<polygon fill="#dce9d5" fill-opacity="0.501961" points="175,154 56,185 160,203" />
<polygon fill="#47352f" fill-opacity="0.501961" points="185,244 236,271 271,243" />
<polygon fill="#9f8c76" fill-opacity="0.501961" points="150,77 148,58 135,49" />
<polygon fill="#a99774" fill-opacity="0.501961" points="83,271 85,201 193,265" />
<polygon fill="#b5ac96" fill-opacity="0.501961" points="152,237 168,195 186,226" />
<polygon fill="#ffd0ff" fill-opacity="0.501961" points="44,3 51,-16 59,-7" />
<polygon fill="#1c1c28" fill-opacity="0.501961" points="235,42 235,137 209,107" />
<polygon fill="#bea480" fill-opacity="0.501961" points="250,48 254,16 271,-3" />
<polygon fill="#c0ae9a" fill-opacity="0.501961" points="230,17 253,17 227,10" />
<polygon fill="#d7dbc2" fill-opacity="0.501961" points="169,101 206,111 218,135" />
<polygon fill="#8a6c4b" fill-opacity="0.501961" points="250,150 219,128 228,155" />
<polygon fill="#bcbeb1" fill-opacity="0.501961" points="188,116 163,206 189,169" />
<polygon fill="#a4a28b" fill-opacity="0.501961" points="169,56 163,47 169,35" />
<polygon fill="#40333a" fill-opacity="0.501961" points="147,87 63,101 120,126" />
<polygon fill="#fefff5" fill-opacity="0.501961" points="173,127 124,169 152,100" />
<polygon fill="#201e29" fill-opacity="0.501961" points="73,104 26,144 82,-9" />
<polygon fill="#af877d" fill-opacity="0.501961" points="235,36 238,32 232,28" />
<polygon fill="#4b3a41" fill-opacity="0.501961" points="173,191 183,218 234,181" />
<polygon fill="#b99584" fill-opacity="0.501961" points="243,100 246,113 239,103" />
<polygon fill="#372a33" fill-opacity="0.501961" points="185,57 201,101 222,-12" />
<polygon fill="#877361" fill-opacity="0.501961" points="106,27 96,19 110,18" />
<polygon fill="#5a3737" fill-opacity="0.501961" points="244,115 271,100 258,12" />
<polygon fill="#17111a" fill-opacity="0.501961" points="113,72 109,89 104,86" />
<polygon fill="#915b4d" fill-opacity="0.501961" points="22,8 24,-16 -16,1" />
<polygon fill="#967463" fill-opacity="0.501961" points="4,139 27,145 22,130" />
<polygon fill="#6b494d" fill-opacity="0.501961" points="135,96 93,92 126,85" />
<polygon fill="#6e533f" fill-opacity="0.501961" points="251,202 221,236 235,237" />
<polygon fill="#17121c" fill-opacity="0.501961" points="241,208 203,232 228,226" />
<polygon fill="#262126" fill-opacity="0.501961" points="249,20 206,28 177,4" />
<polygon fill="#a58d66" fill-opacity="0.501961" points="141,4 191,1 158,-16" />
<polygon fill="#e5f1cb" fill-opacity="0.501961" points="175,8 182,40 114,0" />
<polygon fill="#372e36" fill-opacity="0.501961" points="101,117 92,-14 62,133" />
<polygon fill="#553834" fill-opacity="0.501961" points="42,144 46,129 54,124" />
<polygon fill="#d0c0aa" fill-opacity="0.501961" points="207,154 235,168 196,163" />
<polygon fill="#cbcdb9" fill-opacity="0.501961" points="131,211 39,156 79,129" />
<polygon fill="#2a222c" fill-opacity="0.501961" points="214,82 252,104 233,40" />
<polygon fill="#c9d4c0" fill-opacity="0.501961" points="106,129 126,140 133,133" />
<polygon fill="#a08890" fill-opacity="0.501961" points="205,75 202,83 206,82" />
<polygon fill="#a08a71" fill-opacity="0.501961" points="248,64 244,73 259,70" />
<polygon fill="#967a6d" fill-opacity="0.501961" points="224,182 247,184 207,163" />
<polygon fill="#161520" fill-opacity="0.501961" points="52,95 58,130 76,125" />
<polygon fill="#17181e" fill-opacity="0.501961" points="-16,24 -16,6 15,10" />
<polygon fill="#b7b39f" fill-opacity="0.501961" points="177,76 198,99 179,48" />
<polygon fill="#2f2128" fill-opacity="0.501961" points="145,86 123,47 143,66" />
<polygon fill="#785b57" fill-opacity="0.501961" points="197,189 212,168 172,190" />
<polygon fill="#7d5b4e" fill-opacity="0.501961" points="234,228 195,232 163,266" />
<polygon fill="#6e5856" fill-opacity="0.501961" points="227,8 230,16 218,10" />
<polygon fill="#c0bea5" fill-opacity="0.501961" points="18,139 78,196 39,239" />
<polygon fill="#c9cbb5" fill-opacity="0.501961" points="11,212 0,261 -16,208" />
<polygon fill="#312831" fill-opacity="0.501961" points="57,11 35,90 23,-13" />
<polygon fill="#7e6d64" fill-opacity="0.501961" points="134,116 140,97 125,117" />
<polygon fill="#e5eedc" fill-opacity="0.501961" points="95,163 134,156 137,211" />
<polygon fill="#cdd9c7" fill-opacity="0.501961" points="102,10 115,18 114,-12" />
<polygon fill="#98867b" fill-opacity="0.501961" points="142,86 145,97 149,73" />
<polygon fill="#3a2f36" fill-opacity="0.501961" points="44,103 28,143 12,126" />
<polygon fill="#402f36" fill-opacity="0.501961" points="105,118 118,106 118,78" />
<polygon fill="#42323b" fill-opacity="0.501961" points="208,215 208,173 240,186" />
<polygon fill="#503a3b" fill-opacity="0.501961" points="198,34 194,9 181,61" />
<polygon fill="#2e202d" fill-opacity="0.501961" points="264,56 256,37 251,66" />
<polygon fill="#685452" fill-opacity="0.501961" points="76,129 113,119 86,119" />
<polygon fill="#c1c3ad" fill-opacity="0.501961" points="168,225 147,229 168,183" />
<polygon fill="#9a7e6e" fill-opacity="0.501961" points="192,144 187,160 201,156" />
<polygon fill="#69463a" fill-opacity="0.501961" points="167,5 182,9 201,-7" />
<polygon fill="#3f2f37" fill-opacity="0.501961" points="112,38 93,20 104,81" />
<polygon fill="#bdb796" fill-opacity="0.501961" points="91,233 26,271 79,193" />
<polygon fill="#d8dfcd" fill-opacity="0.501961" points="185,109 176,170 164,75" />
<polygon fill="#f2f8e3" fill-opacity="0.501961" points="170,22 118,5 154,56" />
<polygon fill="#1d1925" fill-opacity="0.501961" points="53,-16 45,30 98,11" />
<polygon fill="#211c28" fill-opacity="0.501961" points="-16,16 -1,98 29,99" />
<polygon fill="#cccec0" fill-opacity="0.501961" points="144,128 125,125 138,116" />
<polygon fill="#6e544b" fill-opacity="0.501961" points="14,27 23,-3 23,28" />
<polygon fill="#4a2f34" fill-opacity="0.501961" points="251,65 249,36 236,26" />
<polygon fill="#d9dcc7" fill-opacity="0.501961" points="107,124 93,124 117,136" />
<polygon fill="#7d5c3d" fill-opacity="0.501961" points="238,118 271,126 230,148" />
<polygon fill="#bab098" fill-opacity="0.501961" points="42,143 77,145 53,132" />
<polygon fill="#b5a689" fill-opacity="0.501961" points="244,120 268,117 236,112" />
<polygon fill="#c1c4b1" fill-opacity="0.501961" points="118,187 131,212 69,190" />
<polygon fill="#cfcfbc" fill-opacity="0.501961" points="122,42 142,48 128,30" />
<polygon fill="#c7c7a5" fill-opacity="0.501961" points="159,4 180,9 184,30" />
<polygon fill="#27212a" fill-opacity="0.501961" points="201,231 187,223 213,203" />
<polygon fill="#4e3e3e" fill-opacity="0.501961" points="125,80 113,129 131,114" />
<polygon fill="#694a37" fill-opacity="0.501961" points="260,183 238,177 260,217" />
<polygon fill="#c3b28f" fill-opacity="0.501961" points="170,2 145,-1 174,-8" />
<polygon fill="#b5b5b8" fill-opacity="0.501961" points="103,77 102,80 109,76" />
<polygon fill="#5e4147" fill-opacity="0.501961" points="89,78 94,93 126,98" />
<polygon fill="#d0d8c5" fill-opacity="0.501961" points="156,91 143,96 136,122" />
<polygon fill="#b1a682" fill-opacity="0.501961" points="119,231 138,241 118,271" />
<polygon fill="#2e1f24" fill-opacity="0.501961" points="99,92 104,75 104,87" />
<polygon fill="#afa589" fill-opacity="0.501961" points="35,155 16,145 44,143" />
<polygon fill="#9c8578" fill-opacity="0.501961" points="174,187 174,210 168,193" />
<polygon fill="#b1a68d" fill-opacity="0.501961" points="103,13 98,20 91,13" />
<polygon fill="#221d27" fill-opacity="0.501961" points="122,46 146,88 108,51" />
<polygon fill="#6e4e47" fill-opacity="0.501961" points="196,168 232,189 210,165" />
<polygon fill="#9a8474" fill-opacity="0.501961" points="194,76 190,88 200,104" />
<polygon fill="#f3f9eb" fill-opacity="0.501961" points="154,175 176,158 88,132" />
<polygon fill="#b7af8e" fill-opacity="0.501961" points="15,224 59,261 35,203" />
<polygon fill="#8b7968" fill-opacity="0.501961" points="190,120 196,120 196,127" />
<polygon fill="#cbc9b6" fill-opacity="0.501961" points="154,64 144,49 150,77" />
<polygon fill="#96846d" fill-opacity="0.501961" points="87,221 133,222 167,245" />
<polygon fill="#c3b39d" fill-opacity="0.501961" points="-6,133 0,132 6,118" />
<polygon fill="#c2b6a4" fill-opacity="0.501961" points="180,55 179,44 187,34" />
<polygon fill="#dbe5ce" fill-opacity="0.501961" points="62,193 102,184 118,158" />
<polygon fill="#b2a78e" fill-opacity="0.501961" points="237,169 214,162 216,173" />
<polygon fill="#99888f" fill-opacity="0.501961" points="247,91 244,92 240,88" />
<polygon fill="#2c252d" fill-opacity="0.501961" points="238,-16 204,3 267,16" />
<polygon fill="#a59179" fill-opacity="0.501961" points="120,44 139,52 123,38" />
<polygon fill="#f6ffed" fill-opacity="0.501961" points="171,55 165,67 177,91" />
<polygon fill="#cbcab6" fill-opacity="0.501961" points="195,104 213,123 216,163" />
<polygon fill="#845b4e" fill-opacity="0.501961" points="253,74 271,91 254,103" />
<polygon fill="#f3ffe7" fill-opacity="0.501961" points="179,38 173,27 174,55" />
<polygon fill="#967a59" fill-opacity="0.501961" points="140,251 143,226 166,271" />
<polygon fill="#a39184" fill-opacity="0.501961" points="177,188 175,180 196,169" />
<polygon fill="#5a3e3e" fill-opacity="0.501961" points="224,131 221,140 217,123" />
<polygon fill="#48393d" fill-opacity="0.501961" points="13,8 8,52 -6,49" />
<polygon fill="#473a3c" fill-opacity="0.501961" points="118,130 114,89 127,116" />
<polygon fill="#dfe5cf" fill-opacity="0.501961" points="11,145 -14,192 -16,159" />
<polygon fill="#442921" fill-opacity="0.501961" points="251,70 246,77 257,73" />
<polygon fill="#30262d" fill-opacity="0.501961" points="214,44 203,94 218,131" />
<polygon fill="#332b34" fill-opacity="0.501961" points="73,66 97,118 120,120" />
<polygon fill="#b6a392" fill-opacity="0.501961" points="252,48 249,50 252,41" />
<polygon fill="#cbc7a5" fill-opacity="0.501961" points="50,249 72,247 70,223" />
<polygon fill="#aea68c" fill-opacity="0.501961" points="127,213 122,228 70,203" />
<polygon fill="#d4dac5" fill-opacity="0.501961" points="128,205 143,221 175,177" />
<polygon fill="#978d78" fill-opacity="0.501961" points="143,52 146,65 127,46" />
<polygon fill="#947167" fill-opacity="0.501961" points="244,101 237,111 243,114" />
<polygon fill="#594338" fill-opacity="0.501961" points="236,215 212,271 271,199" />
<polygon fill="#aa9a9e" fill-opacity="0.501961" points="250,82 248,79 244,78" />
<polygon fill="#b4a082" fill-opacity="0.501961" points="232,163 241,187 226,168" />
<polygon fill="#856a47" fill-opacity="0.501961" points="225,148 238,169 271,138" />
<polygon fill="#27212a" fill-opacity="0.501961" points="236,43 174,4 221,10" />
<polygon fill="#6b4940" fill-opacity="0.501961" points="233,17 250,40 253,20" />
<polygon fill="#c3c0b3" fill-opacity="0.501961" points="191,165 175,181 162,168" />
<polygon fill="#655044" fill-opacity="0.501961" points="185,28 194,17 186,17" />
<polygon fill="#674745" fill-opacity="0.501961" points="224,177 230,188 237,182" />
<polygon fill="#9e8774" fill-opacity="0.501961" points="173,207 172,220 196,233" />
<polygon fill="#caccb5" fill-opacity="0.501961" points="90,154 44,181 67,205" />
<polygon fill="#27222b" fill-opacity="0.501961" points="184,215 208,233 241,204" />
<polygon fill="#ebdac9" fill-opacity="0.501961" points="121,78 122,82 117,84" />
<polygon fill="#b9a88d" fill-opacity="0.501961" points="263,19 238,17 250,13" />
<polygon fill="#baae99" fill-opacity="0.501961" points="249,69 245,73 246,75" />
<polygon fill="#dde5cb" fill-opacity="0.501961" points="151,59 172,93 159,20" />
<polygon fill="#b7b39a" fill-opacity="0.501961" points="-15,160 10,141 -13,144" />
<polygon fill="#36272f" fill-opacity="0.501961" points="230,113 240,110 231,92" />
<polygon fill="#28212c" fill-opacity="0.501961" points="249,78 186,63 222,43" />
<polygon fill="#2d2029" fill-opacity="0.501961" points="256,90 231,76 233,87" />
<polygon fill="#cbcbd6" fill-opacity="0.501961" points="106,81 108,82 107,77" />
<polygon fill="#775d56" fill-opacity="0.501961" points="95,12 111,-9 101,-16" />
<polygon fill="#2d2128" fill-opacity="0.501961" points="115,82 89,78 109,88" />
<polygon fill="#5f484a" fill-opacity="0.501961" points="99,28 91,14 89,31" />
<polygon fill="#282029" fill-opacity="0.501961" points="136,55 92,75 145,75" />
<polygon fill="#b9af8b" fill-opacity="0.501961" points="84,202 58,271 85,256" />
<polygon fill="#815e51" fill-opacity="0.501961" points="14,118 12,133 3,124" />
<polygon fill="#b6a3a1" fill-opacity="0.501961" points="115,76 112,75 115,82" />
<polygon fill="#322933" fill-opacity="0.501961" points="39,41 39,121 12,125" />
<polygon fill="#2c262b" fill-opacity="0.501961" points="117,54 98,57 112,78" />
<polygon fill="#3c343b" fill-opacity="0.501961" points="66,70 115,68 87,55" />
<polygon fill="#c9cfb8" fill-opacity="0.501961" points="191,83 194,107 174,65" />
<polygon fill="#9b7864" fill-opacity="0.501961" points="43,141 57,131 51,127" />
<polygon fill="#521917" fill-opacity="0.501961" points="9,135 -11,142 -4,144" />
<polygon fill="#c8cec0" fill-opacity="0.501961" points="184,165 184,111 174,145" />
<polygon fill="#665145" fill-opacity="0.501961" points="177,220 179,214 182,216" />
<polygon fill="#181922" fill-opacity="0.501961" points="233,135 213,93 219,126" />
<polygon fill="#1c1a23" fill-opacity="0.501961" points="44,112 59,98 44,139" />
<polygon fill="#ffdfff" fill-opacity="0.501961" points="53,-16 45,1 58,-5" />
<polygon fill="#3d2a2f" fill-opacity="0.501961" points="253,58 248,41 240,69" />
<polygon fill="#ab9e7d" fill-opacity="0.501961" points="10,249 42,239 48,271" />
<polygon fill="#644645" fill-opacity="0.501961" points="237,46 255,62 230,24" />
<polygon fill="#42312a" fill-opacity="0.501961" points="206,252 219,271 271,250" />
<polygon fill="#7a5e52" fill-opacity="0.501961" points="9,19 21,16 22,5" />
<polygon fill="#766d4f" fill-opacity="0.501961" points="146,4 144,1 153,2" />
<polygon fill="#23212a" fill-opacity="0.501961" points="87,19 16,20 83,38" />
<polygon fill="#b5b2a2" fill-opacity="0.501961" points="115,2 122,-8 97,7" />
<polygon fill="#624a3f" fill-opacity="0.501961" points="179,266 197,242 222,235" />
<polygon fill="#bebdb0" fill-opacity="0.501961" points="152,90 142,102 149,80" />
<polygon fill="#382831" fill-opacity="0.501961" points="229,79 236,48 247,69" />
<polygon fill="#d8cbb7" fill-opacity="0.501961" points="215,161 195,162 211,146" />
<polygon fill="#342930" fill-opacity="0.501961" points="37,120 35,106 6,136" />
<polygon fill="#83736f" fill-opacity="0.501961" points="106,118 94,128 93,120" />
<polygon fill="#aa8e67" fill-opacity="0.501961" points="91,229 116,246 85,271" />
<polygon fill="#422d32" fill-opacity="0.501961" points="5,114 9,121 14,113" />
<polygon fill="#3e2e37" fill-opacity="0.501961" points="140,84 115,66 135,99" />
<polygon fill="#f7fbee" fill-opacity="0.501961" points="144,105 147,168 175,119" />
<polygon fill="#3a2c33" fill-opacity="0.501961" points="185,43 216,44 197,24" />
<polygon fill="#6e5a57" fill-opacity="0.501961" points="238,215 226,231 234,226" />
<polygon fill="#7e6874" fill-opacity="0.501961" points="103,93 93,87 97,93" />
<polygon fill="#beb299" fill-opacity="0.501961" points="229,12 238,17 248,12" />
<polygon fill="#d7d8cb" fill-opacity="0.501961" points="107,-1 135,2 119,5" />
<polygon fill="#312528" fill-opacity="0.501961" points="230,135 233,113 239,120" />
<polygon fill="#8d897f" fill-opacity="0.501961" points="168,-2 109,0 152,-16" />
<polygon fill="#58373a" fill-opacity="0.501961" points="29,21 29,-16 22,-1" />
<polygon fill="#c6c6b1" fill-opacity="0.501961" points="64,148 101,175 75,131" />
<polygon fill="#98795c" fill-opacity="0.501961" points="193,158 197,152 196,170" />
<polygon fill="#a09475" fill-opacity="0.501961" points="176,11 167,5 181,9" />
<polygon fill="#ad937c" fill-opacity="0.501961" points="11,124 4,136 -16,132" />
<polygon fill="#beb4a5" fill-opacity="0.501961" points="110,17 120,26 106,27" />
<polygon fill="#927661" fill-opacity="0.501961" points="170,259 203,232 177,227" />
<polygon fill="#372c2e" fill-opacity="0.501961" points="182,216 191,226 209,222" />
<polygon fill="#402b2e" fill-opacity="0.501961" points="196,77 208,73 193,84" />
<polygon fill="#906c62" fill-opacity="0.501961" points="219,234 216,231 230,227" />
<polygon fill="#24212a" fill-opacity="0.501961" points="37,80 37,107 98,76" />
<polygon fill="#312d37" fill-opacity="0.501961" points="8,91 25,44 7,68" />
<polygon fill="#d0d8c9" fill-opacity="0.501961" points="140,116 141,132 130,131" />
<polygon fill="#f2f9e6" fill-opacity="0.501961" points="112,8 133,4 160,47" />
<polygon fill="#4b353d" fill-opacity="0.501961" points="185,59 190,73 193,63" />
<polygon fill="#b0b097" fill-opacity="0.501961" points="151,233 169,224 141,223" />
<polygon fill="#49373e" fill-opacity="0.501961" points="120,37 92,49 89,28" />
<polygon fill="#c2c3ac" fill-opacity="0.501961" points="53,158 18,224 11,144" />
<polygon fill="#6c5358" fill-opacity="0.501961" points="130,88 119,92 127,96" />
<polygon fill="#cfbaa3" fill-opacity="0.501961" points="199,148 213,163 204,167" />
<polygon fill="#6e5843" fill-opacity="0.501961" points="149,237 141,231 146,232" />
<polygon fill="#9e8770" fill-opacity="0.501961" points="174,245 140,235 178,231" />
<polygon fill="#4e3840" fill-opacity="0.501961" points="209,89 218,82 211,76" />
<polygon fill="#bebbad" fill-opacity="0.501961" points="143,98 151,95 139,96" />
<polygon fill="#11161b" fill-opacity="0.501961" points="106,86 104,78 109,85" />
<polygon fill="#ac9787" fill-opacity="0.501961" points="253,46 251,40 251,52" />
<polygon fill="#d1d7c5" fill-opacity="0.501961" points="75,137 86,129 107,174" />
<polygon fill="#97786e" fill-opacity="0.501961" points="250,67 244,66 250,63" />
<polygon fill="#1c1a26" fill-opacity="0.501961" points="90,-16 45,5 54,67" />
<polygon fill="#89694b" fill-opacity="0.501961" points="234,143 218,127 239,166" />
<polygon fill="#715a51" fill-opacity="0.501961" points="103,18 118,35 99,23" />
<polygon fill="#68484f" fill-opacity="0.501961" points="91,80 105,89 98,79" />
<polygon fill="#b69a81" fill-opacity="0.501961" points="240,109 244,105 241,100" />
<polygon fill="#523532" fill-opacity="0.501961" points="253,70 249,90 248,78" />
<polygon fill="#a79787" fill-opacity="0.501961" points="63,139 72,131 66,142" />
<polygon fill="#bfb9a1" fill-opacity="0.501961" points="61,199 27,243 99,196" />
<polygon fill="#948370" fill-opacity="0.501961" points="38,145 41,147 42,135" />
<polygon fill="#f6fef0" fill-opacity="0.501961" points="90,134 112,131 103,153" />
<polygon fill="#c0bda5" fill-opacity="0.501961" points="49,133 47,166 20,197" />
<polygon fill="#99856f" fill-opacity="0.501961" points="118,223 97,217 96,231" />
<polygon fill="#3c2e30" fill-opacity="0.501961" points="99,4 96,-16 79,30" />
<polygon fill="#5f4644" fill-opacity="0.501961" points="206,107 211,114 211,108" />
<polygon fill="#744b45" fill-opacity="0.501961" points="256,113 271,99 241,111" />
<polygon fill="#c9c9b2" fill-opacity="0.501961" points="201,107 219,138 197,128" />
<polygon fill="#aca998" fill-opacity="0.501961" points="167,51 172,53 167,39" />
<polygon fill="#372c35" fill-opacity="0.501961" points="210,187 238,188 207,215" />
<polygon fill="#816966" fill-opacity="0.501961" points="184,46 187,54 184,59" />
<polygon fill="#f1f5d9" fill-opacity="0.501961" points="171,12 130,44 174,28" />
<polygon fill="#2a232e" fill-opacity="0.501961" points="48,38 24,-13 55,12" />
<polygon fill="#c5c9b7" fill-opacity="0.501961" points="155,199 162,223 136,223" />
<polygon fill="#eaf2e0" fill-opacity="0.501961" points="122,184 149,165 94,142" />
<polygon fill="#674f46" fill-opacity="0.501961" points="144,64 141,82 145,74" />
<polygon fill="#4e4240" fill-opacity="0.501961" points="109,127 134,100 124,124" />
<polygon fill="#cbc0b1" fill-opacity="0.501961" points="95,125 109,128 104,124" />
<polygon fill="#a49b8f" fill-opacity="0.501961" points="135,108 128,120 139,113" />
<polygon fill="#b2a695" fill-opacity="0.501961" points="186,162 189,141 197,148" />
<polygon fill="#372d3a" fill-opacity="0.501961" points="82,77 91,124 70,114" />
<polygon fill="#b09e86" fill-opacity="0.501961" points="199,105 193,99 200,97" />
<polygon fill="#7b6d54" fill-opacity="0.501961" points="118,219 112,225 112,230" />
<polygon fill="#583233" fill-opacity="0.501961" points="118,83 117,93 103,91" />
<polygon fill="#aaa183" fill-opacity="0.501961" points="90,242 93,207 79,213" />
<polygon fill="#e9f0d5" fill-opacity="0.501961" points="172,93 184,103 184,82" />
<polygon fill="#867c79" fill-opacity="0.501961" points="249,58 248,54 251,58" />
<polygon fill="#b6a284" fill-opacity="0.501961" points="114,221 102,241 98,236" />
<polygon fill="#a9a284" fill-opacity="0.501961" points="36,220 18,223 8,252" />
<polygon fill="#79615e" fill-opacity="0.501961" points="184,178 179,190 198,185" />
<polygon fill="#4d3e3e" fill-opacity="0.501961" points="74,126 82,121 84,129" />
<polygon fill="#988b73" fill-opacity="0.501961" points="26,144 20,150 22,136" />
<polygon fill="#4e3a3e" fill-opacity="0.501961" points="212,171 226,187 200,181" />
<polygon fill="#b39882" fill-opacity="0.501961" points="236,116 246,115 239,112" />
<polygon fill="#d9e2cf" fill-opacity="0.501961" points="130,211 134,179 165,197" />
<polygon fill="#1f1c26" fill-opacity="0.501961" points="67,135 73,113 39,106" />
<polygon fill="#2f2a2e" fill-opacity="0.501961" points="14,8 -6,7 -10,45" />
<polygon fill="#463333" fill-opacity="0.501961" points="178,192 174,196 192,205" />
<polygon fill="#886a5c" fill-opacity="0.501961" points="252,28 242,25 250,37" />
<polygon fill="#e0e6c9" fill-opacity="0.501961" points="161,28 136,8 146,4" />
<polygon fill="#352b30" fill-opacity="0.501961" points="233,-16 229,9 179,9" />
<polygon fill="#8f7c53" fill-opacity="0.501961" points="239,180 237,170 234,174" />
<polygon fill="#322b2f" fill-opacity="0.501961" points="33,47 43,25 59,90" />
<polygon fill="#7d6156" fill-opacity="0.501961" points="189,32 184,27 189,38" />
<polygon fill="#fbfff3" fill-opacity="0.501961" points="169,129 133,134 127,148" />
<polygon fill="#907565" fill-opacity="0.501961" points="118,38 128,47 114,43" />
<polygon fill="#815a4d" fill-opacity="0.501961" points="13,5 49,-16 -16,0" />
<polygon fill="#34282a" fill-opacity="0.501961" points="253,56 253,67 250,61" />
<polygon fill="#dadfc6" fill-opacity="0.501961" points="188,94 168,112 196,112" />
<polygon fill="#24202b" fill-opacity="0.501961" points="247,100 217,84 209,19" />
<polygon fill="#d7e1cc" fill-opacity="0.501961" points="117,4 108,8 129,33" />
<polygon fill="#705c5a" fill-opacity="0.501961" points="225,23 242,34 231,31" />
<polygon fill="#252029" fill-opacity="0.501961" points="190,28 238,24 222,13" />
<polygon fill="#b2a289" fill-opacity="0.501961" points="254,70 266,75 271,43" />
<polygon fill="#846543" fill-opacity="0.501961" points="271,124 235,159 241,119" />
<polygon fill="#cbcbb7" fill-opacity="0.501961" points="174,60 180,56 181,61" />
<polygon fill="#d7dfd2" fill-opacity="0.501961" points="178,128 180,159 168,172" />
<polygon fill="#a07eae" fill-opacity="0.501961" points="49,1 50,-16 70,-16" />
<polygon fill="#2a242d" fill-opacity="0.501961" points="117,78 124,47 114,55" />
<polygon fill="#d8e2ce" fill-opacity="0.501961" points="109,127 96,127 87,134" />
<polygon fill="#342226" fill-opacity="0.501961" points="208,106 197,88 202,76" />
<polygon fill="#483c30" fill-opacity="0.501961" points="259,268 271,241 232,226" />
<polygon fill="#341e21" fill-opacity="0.501961" points="238,57 249,54 249,49" />
<polygon fill="#bbb6a2" fill-opacity="0.501961" points="207,146 216,138 183,120" />
<polygon fill="#61403c" fill-opacity="0.501961" points="10,139 21,135 16,131" />
<polygon fill="#483026" fill-opacity="0.501961" points="238,19 253,20 247,24" />
<polygon fill="#b6af97" fill-opacity="0.501961" points="105,207 68,206 82,194" />
<polygon fill="#ccd3c3" fill-opacity="0.501961" points="114,138 126,128 121,138" />
<polygon fill="#83695d" fill-opacity="0.501961" points="63,135 58,135 61,130" />
<polygon fill="#d7e0c5" fill-opacity="0.501961" points="72,169 75,188 96,189" />
<polygon fill="#94776e" fill-opacity="0.501961" points="196,176 181,185 196,166" />
<polygon fill="#3b292e" fill-opacity="0.501961" points="136,59 124,48 130,48" />
<polygon fill="#e6eedb" fill-opacity="0.501961" points="151,82 174,127 164,79" />
<polygon fill="#b4aca1" fill-opacity="0.501961" points="131,128 122,126 135,120" />
<polygon fill="#c0bfac" fill-opacity="0.501961" points="165,207 175,180 163,186" />
<polygon fill="#9f8877" fill-opacity="0.501961" points="122,86 118,88 121,90" />
<polygon fill="#d8d1c0" fill-opacity="0.501961" points="216,146 213,155 192,143" />
<polygon fill="#94775b" fill-opacity="0.501961" points="209,271 169,266 171,239" />
<polygon fill="#2f2427" fill-opacity="0.501961" points="107,82 110,86 94,84" />
<polygon fill="#614437" fill-opacity="0.501961" points="179,7 161,2 186,2" />
<polygon fill="#b4b498" fill-opacity="0.501961" points="-16,199 16,200 10,207" />
<polygon fill="#c7ccb6" fill-opacity="0.501961" points="0,194 31,155 -16,162" />
<polygon fill="#34262c" fill-opacity="0.501961" points="221,203 236,185 247,204" />
<polygon fill="#2a1d1d" fill-opacity="0.501961" points="59,133 58,121 62,120" />
<polygon fill="#3e303d" fill-opacity="0.501961" points="34,60 34,81 25,93" />
<polygon fill="#382822" fill-opacity="0.501961" points="27,141 28,132 35,138" />
<polygon fill="#b6af8b" fill-opacity="0.501961" points="58,223 45,250 31,249" />
<polygon fill="#b2b094" fill-opacity="0.501961" points="-16,237 12,241 -6,267" />
<polygon fill="#d3d2bf" fill-opacity="0.501961" points="74,166 42,156 62,148" />
<polygon fill="#231c23" fill-opacity="0.501961" points="208,93 216,127 220,104" />
<polygon fill="#927f6a" fill-opacity="0.501961" points="188,19 188,14 183,19" />
<polygon fill="#382d36" fill-opacity="0.501961" points="93,88 112,107 101,119" />
<polygon fill="#6c523c" fill-opacity="0.501961" points="182,244 192,245 191,254" />
<polygon fill="#2d2a2e" fill-opacity="0.501961" points="89,47 81,19 67,82" />
<polygon fill="#bbaaa7" fill-opacity="0.501961" points="116,76 113,75 111,79" />
<polygon fill="#755943" fill-opacity="0.501961" points="241,183 247,207 249,186" />
<polygon fill="#554448" fill-opacity="0.501961" points="193,212 209,175 187,196" />
<polygon fill="#402226" fill-opacity="0.501961" points="250,97 246,91 253,97" />
<polygon fill="#f9fff3" fill-opacity="0.501961" points="108,0 82,-16 162,-16" />
<polygon fill="#a9997e" fill-opacity="0.501961" points="145,5 127,-6 144,-2" />
<polygon fill="#cccfb6" fill-opacity="0.501961" points="161,41 172,32 164,46" />
<polygon fill="#714c4a" fill-opacity="0.501961" points="113,85 117,81 112,92" />
<polygon fill="#d9dfd0" fill-opacity="0.501961" points="118,167 92,148 99,174" />
<polygon fill="#ccc9ae" fill-opacity="0.501961" points="162,5 184,13 179,17" />
<polygon fill="#aca38f" fill-opacity="0.501961" points="162,227 178,213 163,237" />
<polygon fill="#afa188" fill-opacity="0.501961" points="104,6 109,-7 98,-16" />
</g>
</svg>