<svg xmlns="http://www.w3.org/2000/svg" version="1.1" width="1024" height="1024">
<rect x="0" y="0" width="1024" height="1024" fill="#b5afa3" />
<g transform="scale(4.000000) translate(0.5 0.5)">
<polygon fill="#fff9e6" fill-opacity="0.501961" points="110,193 271,87 224,230" />
<polygon fill="#343930" fill-opacity="0.501961" points="181,76 271,107 245,45" />
<polygon fill="#ffffff" fill-opacity="0.501961" points="104,155 81,53 136,34" />
<polygon fill="#000000" fill-opacity="0.501961" points="23,29 37,49 -16,47" />
<polygon fill="#000000" fill-opacity="0.501961" points="135,77 133,103 160,72" />
<polygon fill="#756862" fill-opacity="0.501961" points="102,15 6,95 44,127" />
<polygon fill="#ffffff" fill-opacity="0.501961" points="122,135 60,91 64,138" />
<polygon fill="#8d8980" fill-opacity="0.501961" points="57,113 1,240 179,271" />
<polygon fill="#000000" fill-opacity="0.501961" points="92,90 73,107 102,106" />
<polygon fill="#e5ded8" fill-opacity="0.501961" points="271,-1 246,59 147,-16" />
<polygon fill="#e7dccf" fill-opacity="0.501961" points="220,186 271,137 131,31" />
<polygon fill="#805043" fill-opacity="0.501961" points="151,46 179,55 159,-16" />
<polygon fill="#fffcf3" fill-opacity="0.501961" points="64,104 146,45 79,50" />
<polygon fill="#a09381" fill-opacity="0.501961" points="271,245 194,271 212,172" />
<polygon fill="#5f5d54" fill-opacity="0.501961" points="210,99 271,59 186,52" />
<polygon fill="#816660" fill-opacity="0.501961" points="163,145 126,106 115,149" />
<polygon fill="#e5ddce" fill-opacity="0.501961" points="193,205 62,106 188,271" />
<polygon fill="#555d57" fill-opacity="0.501961" points="83,50 130,32 64,33" />
<polygon fill="#fdf2e9" fill-opacity="0.501961" points="169,63 138,106 168,101" />
<polygon fill="#c6c6c0" fill-opacity="0.501961" points="238,109 257,105 210,67" />
<polygon fill="#250c05" fill-opacity="0.501961" points="244,80 211,73 265,66" />
<polygon fill="#989286" fill-opacity="0.501961" points="157,132 246,49 214,21" />
<polygon fill="#403628" fill-opacity="0.501961" points="146,94 117,82 160,69" />
<polygon fill="#4b4b44" fill-opacity="0.501961" points="55,108 44,123 63,138" />
<polygon fill="#2f2a1c" fill-opacity="0.501961" points="107,103 84,91 74,100" />
<polygon fill="#fbfefe" fill-opacity="0.501961" points="34,63 -8,76 -16,101" />
<polygon fill="#ded7d0" fill-opacity="0.501961" points="171,6 185,55 235,-16" />
<polygon fill="#d9dfe1" fill-opacity="0.501961" points="-16,203 35,194 32,174" />
<polygon fill="#e8dfcf" fill-opacity="0.501961" points="153,208 214,95 271,170" />
<polygon fill="#f1ebe1" fill-opacity="0.501961" points="125,88 81,152 64,128" />
<polygon fill="#010f08" fill-opacity="0.501961" points="-11,42 39,49 20,36" />
<polygon fill="#d3c3b9" fill-opacity="0.501961" points="113,95 148,70 143,-16" />
<polygon fill="#c8c7c3" fill-opacity="0.501961" points="55,216 62,237 -16,260" />
<polygon fill="#7d776f" fill-opacity="0.501961" points="34,0 23,22 58,33" />
<polygon fill="#847c69" fill-opacity="0.501961" points="249,271 271,204 231,225" />
<polygon fill="#9e998e" fill-opacity="0.501961" points="118,166 -16,141 142,271" />
<polygon fill="#f4f2ea" fill-opacity="0.501961" points="58,117 65,83 100,141" />
<polygon fill="#4f4847" fill-opacity="0.501961" points="57,75 76,66 73,80" />
<polygon fill="#c1b4a3" fill-opacity="0.501961" points="215,102 171,163 177,48" />
<polygon fill="#c6bbab" fill-opacity="0.501961" points="249,207 229,151 161,271" />
<polygon fill="#f0ebe0" fill-opacity="0.501961" points="116,93 66,93 123,32" />
<polygon fill="#b39d91" fill-opacity="0.501961" points="69,33 80,67 3,64" />
<polygon fill="#d8d3ce" fill-opacity="0.501961" points="21,-16 -16,7 17,33" />
<polygon fill="#3d4b42" fill-opacity="0.501961" points="206,89 196,64 233,97" />
<polygon fill="#918a80" fill-opacity="0.501961" points="168,266 5,258 144,227" />
<polygon fill="#ccc6c1" fill-opacity="0.501961" points="41,18 147,1 45,-16" />
<polygon fill="#a7968c" fill-opacity="0.501961" points="150,40 162,10 72,29" />
<polygon fill="#aca197" fill-opacity="0.501961" points="132,137 118,76 168,141" />
<polygon fill="#909188" fill-opacity="0.501961" points="7,64 56,59 13,43" />
<polygon fill="#8f8881" fill-opacity="0.501961" points="90,188 -16,254 1,211" />
<polygon fill="#34503b" fill-opacity="0.501961" points="227,77 248,96 271,84" />
<polygon fill="#7f635e" fill-opacity="0.501961" points="145,141 113,120 132,153" />
<polygon fill="#918f84" fill-opacity="0.501961" points="-16,150 -8,180 49,146" />
<polygon fill="#000000" fill-opacity="0.501961" points="150,88 137,80 147,72" />
<polygon fill="#988e77" fill-opacity="0.501961" points="171,138 146,155 184,91" />
<polygon fill="#75756a" fill-opacity="0.501961" points="203,78 269,53 183,58" />
<polygon fill="#eae6dd" fill-opacity="0.501961" points="233,98 271,155 187,143" />
<polygon fill="#ded7ce" fill-opacity="0.501961" points="121,64 151,70 135,20" />
<polygon fill="#0f1108" fill-opacity="0.501961" points="90,97 84,107 95,108" />
<polygon fill="#d7d0c5" fill-opacity="0.501961" points="175,80 140,94 143,131" />
<polygon fill="#bebfba" fill-opacity="0.501961" points="72,175 -5,212 16,170" />
<polygon fill="#f3ece6" fill-opacity="0.501961" points="126,114 104,112 92,55" />
<polygon fill="#bfb6ab" fill-opacity="0.501961" points="150,162 118,177 64,126" />
<polygon fill="#a3a094" fill-opacity="0.501961" points="261,65 223,57 241,33" />
<polygon fill="#958b7f" fill-opacity="0.501961" points="118,81 135,71 131,101" />
<polygon fill="#44443d" fill-opacity="0.501961" points="70,40 85,49 81,31" />
<polygon fill="#f2efe6" fill-opacity="0.501961" points="120,143 62,122 102,105" />
<polygon fill="#c7ac9e" fill-opacity="0.501961" points="33,29 56,63 86,50" />
<polygon fill="#70524d" fill-opacity="0.501961" points="125,128 137,117 131,107" />
<polygon fill="#837c6f" fill-opacity="0.501961" points="118,173 111,184 88,161" />
<polygon fill="#7f8581" fill-opacity="0.501961" points="0,30 -13,43 31,28" />
<polygon fill="#e6e0ce" fill-opacity="0.501961" points="127,168 200,209 169,233" />
<polygon fill="#b8b1a6" fill-opacity="0.501961" points="176,125 142,108 123,140" />
<polygon fill="#fef1df" fill-opacity="0.501961" points="244,196 271,166 271,138" />
<polygon fill="#887d6e" fill-opacity="0.501961" points="235,189 248,184 228,201" />
<polygon fill="#0a0400" fill-opacity="0.501961" points="34,48 35,42 21,50" />
<polygon fill="#f2ece1" fill-opacity="0.501961" points="252,2 234,5 271,35" />
<polygon fill="#4e4031" fill-opacity="0.501961" points="84,109 81,95 73,97" />
<polygon fill="#d8ccba" fill-opacity="0.501961" points="159,154 201,83 188,131" />
<polygon fill="#e9e3d8" fill-opacity="0.501961" points="271,114 238,115 224,207" />
<polygon fill="#d0c5b0" fill-opacity="0.501961" points="219,202 209,172 165,200" />
<polygon fill="#9d9c91" fill-opacity="0.501961" points="59,136 8,82 -11,93" />
<polygon fill="#c7bfb7" fill-opacity="0.501961" points="271,43 149,-16 213,47" />
<polygon fill="#675a51" fill-opacity="0.501961" points="111,149 127,137 145,141" />
<polygon fill="#aa9e8e" fill-opacity="0.501961" points="223,181 235,175 242,159" />
<polygon fill="#d9ddd6" fill-opacity="0.501961" points="23,52 -11,60 -16,47" />
<polygon fill="#b08f79" fill-opacity="0.501961" points="143,41 175,-16 149,3" />
<polygon fill="#d9d4ca" fill-opacity="0.501961" points="135,25 128,-1 150,-10" />
<polygon fill="#837767" fill-opacity="0.501961" points="247,160 248,168 254,158" />
<polygon fill="#f4f2ec" fill-opacity="0.501961" points="100,75 73,62 94,45" />
<polygon fill="#b5b6ac" fill-opacity="0.501961" points="233,115 243,95 225,75" />
<polygon fill="#b6b2ad" fill-opacity="0.501961" points="58,39 66,6 141,2" />
<polygon fill="#e5e3d7" fill-opacity="0.501961" points="178,11 198,33 185,42" />
<polygon fill="#b69592" fill-opacity="0.501961" points="129,120 106,126 139,94" />
<polygon fill="#826b63" fill-opacity="0.501961" points="70,66 65,87 36,79" />
<polygon fill="#e4dfd3" fill-opacity="0.501961" points="88,90 112,104 132,37" />
<polygon fill="#94958e" fill-opacity="0.501961" points="113,43 71,27 127,20" />
<polygon fill="#737269" fill-opacity="0.501961" points="56,104 64,141 37,114" />
<polygon fill="#b7ad9e" fill-opacity="0.501961" points="202,87 217,95 190,131" />
<polygon fill="#544e3f" fill-opacity="0.501961" points="151,77 150,88 158,77" />
<polygon fill="#5e5d55" fill-opacity="0.501961" points="209,76 253,68 199,62" />
<polygon fill="#876054" fill-opacity="0.501961" points="174,48 159,19 164,55" />
<polygon fill="#cabeb9" fill-opacity="0.501961" points="135,37 191,66 152,71" />
<polygon fill="#eae6de" fill-opacity="0.501961" points="61,129 63,89 102,134" />
<polygon fill="#a8a69b" fill-opacity="0.501961" points="50,129 27,197 91,182" />
<polygon fill="#a2978e" fill-opacity="0.501961" points="21,20 28,39 52,52" />
<polygon fill="#090700" fill-opacity="0.501961" points="233,78 222,74 244,72" />
<polygon fill="#cfc8bb" fill-opacity="0.501961" points="129,209 181,219 116,178" />
<polygon fill="#bbb3a1" fill-opacity="0.501961" points="180,257 205,191 218,271" />
<polygon fill="#e3e2dd" fill-opacity="0.501961" points="15,66 40,62 -2,84" />
<polygon fill="#f6f0e8" fill-opacity="0.501961" points="138,101 154,85 160,95" />
<polygon fill="#d9d1c7" fill-opacity="0.501961" points="244,104 210,93 226,157" />
<polygon fill="#9a9182" fill-opacity="0.501961" points="238,236 208,254 268,259" />
<polygon fill="#6d5e53" fill-opacity="0.501961" points="104,106 96,95 97,104" />
<polygon fill="#ebe2d0" fill-opacity="0.501961" points="118,177 153,205 220,167" />
<polygon fill="#797a73" fill-opacity="0.501961" points="110,35 73,29 98,49" />
<polygon fill="#b2aa9f" fill-opacity="0.501961" points="183,102 168,14 200,83" />
<polygon fill="#c4bdb3" fill-opacity="0.501961" points="94,161 69,140 86,124" />
<polygon fill="#9a937c" fill-opacity="0.501961" points="223,192 214,194 229,176" />
<polygon fill="#d7cac2" fill-opacity="0.501961" points="109,118 117,57 126,114" />
<polygon fill="#a1917c" fill-opacity="0.501961" points="178,149 159,155 191,129" />
<polygon fill="#878074" fill-opacity="0.501961" points="154,252 153,232 129,212" />
<polygon fill="#f3e9da" fill-opacity="0.501961" points="224,120 180,183 205,111" />
<polygon fill="#f2f0ea" fill-opacity="0.501961" points="134,36 89,52 58,107" />
<polygon fill="#ab8476" fill-opacity="0.501961" points="35,41 59,88 59,65" />
<polygon fill="#2a2117" fill-opacity="0.501961" points="159,71 141,75 134,85" />
<polygon fill="#afafab" fill-opacity="0.501961" points="206,75 220,75 236,90" />
<polygon fill="#cdc3af" fill-opacity="0.501961" points="183,173 170,210 149,218" />
<polygon fill="#f7f6f1" fill-opacity="0.501961" points="110,127 95,135 107,84" />
<polygon fill="#d8cdc1" fill-opacity="0.501961" points="232,206 191,215 225,192" />
<polygon fill="#9b9b93" fill-opacity="0.501961" points="31,103 65,86 55,113" />
<polygon fill="#b99c96" fill-opacity="0.501961" points="134,36 156,50 145,7" />
<polygon fill="#121813" fill-opacity="0.501961" points="3,44 21,31 20,39" />
<polygon fill="#d7cbc2" fill-opacity="0.501961" points="183,59 160,101 156,55" />
<polygon fill="#ada292" fill-opacity="0.501961" points="257,185 219,226 271,218" />
<polygon fill="#e8ddcf" fill-opacity="0.501961" points="231,156 223,170 247,201" />
<polygon fill="#aa9b91" fill-opacity="0.501961" points="271,80 245,79 258,72" />
<polygon fill="#432e23" fill-opacity="0.501961" points="139,78 131,91 136,99" />
<polygon fill="#edebe4" fill-opacity="0.501961" points="73,45 87,58 96,57" />
<polygon fill="#ada89e" fill-opacity="0.501961" points="103,-7 127,37 108,38" />
<polygon fill="#9f9482" fill-opacity="0.501961" points="125,158 162,145 187,115" />
<polygon fill="#b0b0ab" fill-opacity="0.501961" points="-16,149 18,111 64,137" />
<polygon fill="#bab4ab" fill-opacity="0.501961" points="206,253 142,222 175,271" />
<polygon fill="#9f9a8f" fill-opacity="0.501961" points="112,177 148,244 48,241" />
<polygon fill="#d7cab4" fill-opacity="0.501961" points="146,166 180,169 190,142" />
<polygon fill="#ddd9d3" fill-opacity="0.501961" points="59,105 70,78 94,85" />
<polygon fill="#bbb9b3" fill-opacity="0.501961" points="72,216 7,242 5,271" />
<polygon fill="#615645" fill-opacity="0.501961" points="241,188 249,182 245,182" />
<polygon fill="#958e83" fill-opacity="0.501961" points="12,219 107,204 48,186" />
<polygon fill="#aea69e" fill-opacity="0.501961" points="214,17 180,59 214,44" />
<polygon fill="#ede6d7" fill-opacity="0.501961" points="171,228 196,213 182,184" />
<polygon fill="#aaaea8" fill-opacity="0.501961" points="7,50 17,52 20,45" />
<polygon fill="#3e4442" fill-opacity="0.501961" points="66,71 72,73 62,82" />
<polygon fill="#d8d2ca" fill-opacity="0.501961" points="271,0 231,17 172,1" />
<polygon fill="#dad1c8" fill-opacity="0.501961" points="30,29 33,36 45,30" />
<polygon fill="#707163" fill-opacity="0.501961" points="86,100 78,96 87,109" />
<polygon fill="#111212" fill-opacity="0.501961" points="89,100 81,93 89,94" />
<polygon fill="#89847a" fill-opacity="0.501961" points="41,15 23,24 54,31" />
<polygon fill="#989084" fill-opacity="0.501961" points="148,71 119,91 123,78" />
<polygon fill="#9f9b91" fill-opacity="0.501961" points="20,16 47,-16 29,34" />
<polygon fill="#aca49a" fill-opacity="0.501961" points="124,99 140,97 147,128" />
<polygon fill="#958d84" fill-opacity="0.501961" points="34,265 145,264 85,228" />
<polygon fill="#a09688" fill-opacity="0.501961" points="206,197 212,211 211,197" />
<polygon fill="#7c7b6f" fill-opacity="0.501961" points="258,64 192,66 216,51" />
<polygon fill="#9f968b" fill-opacity="0.501961" points="166,8 177,51 178,29" />
<polygon fill="#eeede4" fill-opacity="0.501961" points="59,101 108,116 58,118" />
<polygon fill="#c9c2b9" fill-opacity="0.501961" points="78,130 132,165 108,171" />
<polygon fill="#2a3f35" fill-opacity="0.501961" points="-5,31 -16,54 13,43" />
<polygon fill="#c0b6a8" fill-opacity="0.501961" points="151,108 181,91 155,126" />
<polygon fill="#6d3e38" fill-opacity="0.501961" points="129,125 127,121 123,135" />
<polygon fill="#484945" fill-opacity="0.501961" points="15,42 32,50 24,50" />
<polygon fill="#cccdca" fill-opacity="0.501961" points="2,205 -16,188 37,183" />
<polygon fill="#b9a9a5" fill-opacity="0.501961" points="121,127 122,140 111,150" />
<polygon fill="#dbd9d3" fill-opacity="0.501961" points="70,-16 46,13 49,-13" />
<polygon fill="#b6ada5" fill-opacity="0.501961" points="77,47 78,69 68,60" />
<polygon fill="#87857d" fill-opacity="0.501961" points="36,51 43,61 18,60" />
<polygon fill="#86806b" fill-opacity="0.501961" points="235,234 271,232 231,222" />
<polygon fill="#867b6a" fill-opacity="0.501961" points="176,108 172,117 161,115" />
<polygon fill="#f3e7d7" fill-opacity="0.501961" points="271,106 248,177 271,150" />
<polygon fill="#cac1b8" fill-opacity="0.501961" points="110,14 78,-14 98,21" />
<polygon fill="#999a8f" fill-opacity="0.501961" points="131,32 102,44 137,15" />
<polygon fill="#a09d93" fill-opacity="0.501961" points="-6,97 42,64 20,91" />
<polygon fill="#36443d" fill-opacity="0.501961" points="226,87 207,77 202,82" />
<polygon fill="#e3ddd1" fill-opacity="0.501961" points="21,-16 7,8 -16,6" />
<polygon fill="#584e40" fill-opacity="0.501961" points="78,94 83,103 75,104" />
<polygon fill="#cbc2b9" fill-opacity="0.501961" points="206,98 258,101 234,110" />
<polygon fill="#d1c4b5" fill-opacity="0.501961" points="139,26 123,16 151,18" />
<polygon fill="#9e9b8f" fill-opacity="0.501961" points="92,169 -16,167 24,141" />
<polygon fill="#f2e5de" fill-opacity="0.501961" points="151,90 171,70 160,72" />
<polygon fill="#585951" fill-opacity="0.501961" points="82,48 90,46 81,30" />
<polygon fill="#928977" fill-opacity="0.501961" points="271,130 250,159 271,146" />
<polygon fill="#ded6c6" fill-opacity="0.501961" points="201,170 223,138 221,188" />
<polygon fill="#a39a87" fill-opacity="0.501961" points="195,182 205,178 195,186" />
<polygon fill="#c6bcaf" fill-opacity="0.501961" points="233,235 216,222 210,234" />
<polygon fill="#b8ada7" fill-opacity="0.501961" points="133,66 161,69 118,78" />
<polygon fill="#6a675d" fill-opacity="0.501961" points="48,110 43,119 66,139" />
<polygon fill="#828175" fill-opacity="0.501961" points="221,97 215,92 235,95" />
<polygon fill="#8b8378" fill-opacity="0.501961" points="58,59 12,98 43,96" />
<polygon fill="#a77f7c" fill-opacity="0.501961" points="110,124 119,129 133,108" />
<polygon fill="#bfb2a2" fill-opacity="0.501961" points="114,184 165,145 127,157" />
<polygon fill="#b9bab3" fill-opacity="0.501961" points="11,36 -7,14 25,23" />
<polygon fill="#e4e0d5" fill-opacity="0.501961" points="122,56 137,71 133,28" />
<polygon fill="#e5e1dc" fill-opacity="0.501961" points="117,131 110,145 89,139" />
<polygon fill="#9e9f99" fill-opacity="0.501961" points="64,38 61,22 41,13" />
<polygon fill="#48463b" fill-opacity="0.501961" points="142,93 153,85 141,89" />
<polygon fill="#958c7a" fill-opacity="0.501961" points="176,195 166,200 171,200" />
<polygon fill="#c8c0b5" fill-opacity="0.501961" points="145,129 167,121 160,111" />
<polygon fill="#f0ede4" fill-opacity="0.501961" points="93,45 83,54 117,78" />
<polygon fill="#dfdbd0" fill-opacity="0.501961" points="189,15 204,31 207,14" />
<polygon fill="#a9a7a2" fill-opacity="0.501961" points="74,216 10,262 45,252" />
<polygon fill="#8e876a" fill-opacity="0.501961" points="228,182 223,181 224,176" />
<polygon fill="#d0cbc0" fill-opacity="0.501961" points="151,40 134,42 117,79" />
<polygon fill="#938c80" fill-opacity="0.501961" points="83,157 64,144 59,128" />
<polygon fill="#a8a49b" fill-opacity="0.501961" points="5,57 -16,79 33,62" />
<polygon fill="#e3ddd4" fill-opacity="0.501961" points="119,90 74,73 83,92" />
<polygon fill="#857a6a" fill-opacity="0.501961" points="249,195 271,161 271,184" />
<polygon fill="#f3ebdd" fill-opacity="0.501961" points="207,120 218,137 196,182" />
<polygon fill="#cabab3" fill-opacity="0.501961" points="141,117 126,137 131,124" />
<polygon fill="#9a8e85" fill-opacity="0.501961" points="154,52 150,41 181,56" />
<polygon fill="#fbf5eb" fill-opacity="0.501961" points="247,13 265,11 260,30" />
<polygon fill="#9d9283" fill-opacity="0.501961" points="200,214 211,225 206,213" />
<polygon fill="#835e59" fill-opacity="0.501961" points="121,132 124,122 130,143" />
<polygon fill="#8f8e82" fill-opacity="0.501961" points="185,61 227,55 194,47" />
<polygon fill="#716954" fill-opacity="0.501961" points="99,98 93,95 95,106" />
<polygon fill="#886961" fill-opacity="0.501961" points="166,51 167,27 153,42" />
<polygon fill="#a19d96" fill-opacity="0.501961" points="-6,230 -8,250 50,223" />
<polygon fill="#c6c4bd" fill-opacity="0.501961" points="2,91 22,74 -16,92" />
<polygon fill="#9e928c" fill-opacity="0.501961" points="143,130 128,139 143,140" />
<polygon fill="#a69b92" fill-opacity="0.501961" points="138,66 128,81 129,98" />
<polygon fill="#e3d8c3" fill-opacity="0.501961" points="179,146 190,155 205,123" />
<polygon fill="#9b7d74" fill-opacity="0.501961" points="170,17 155,44 145,23" />
<polygon fill="#918d82" fill-opacity="0.501961" points="-16,147 21,158 -16,178" />
<polygon fill="#efeadd" fill-opacity="0.501961" points="253,130 261,142 243,168" />
<polygon fill="#c2b8a9" fill-opacity="0.501961" points="213,215 242,214 252,181" />
<polygon fill="#0f0b08" fill-opacity="0.501961" points="20,39 27,48 34,45" />
<polygon fill="#ab9c8f" fill-opacity="0.501961" points="143,156 159,145 112,149" />
<polygon fill="#4b5a4c" fill-opacity="0.501961" points="237,88 247,98 269,98" />
<polygon fill="#968e7a" fill-opacity="0.501961" points="173,133 169,119 157,145" />
<polygon fill="#50362f" fill-opacity="0.501961" points="247,73 263,76 271,52" />
<polygon fill="#e4dcd2" fill-opacity="0.501961" points="70,113 78,109 70,87" />
<polygon fill="#919189" fill-opacity="0.501961" points="95,18 114,44 82,29" />
<polygon fill="#c2baaf" fill-opacity="0.501961" points="171,13 163,-6 193,18" />
<polygon fill="#ede7d5" fill-opacity="0.501961" points="176,193 157,167 133,185" />
<polygon fill="#71483d" fill-opacity="0.501961" points="173,52 171,36 168,43" />
<polygon fill="#d8c7b4" fill-opacity="0.501961" points="147,160 168,140 168,149" />
<polygon fill="#cec6b6" fill-opacity="0.501961" points="175,133 199,110 198,79" />
<polygon fill="#060a06" fill-opacity="0.501961" points="87,101 90,95 90,108" />
<polygon fill="#a6a8a0" fill-opacity="0.501961" points="216,78 230,79 243,103" />
<polygon fill="#b7b0a5" fill-opacity="0.501961" points="66,141 83,153 62,125" />
<polygon fill="#f2e6da" fill-opacity="0.501961" points="238,169 226,186 231,194" />
<polygon fill="#71785d" fill-opacity="0.501961" points="142,87 143,80 139,89" />
<polygon fill="#b7ad9d" fill-opacity="0.501961" points="238,158 244,153 236,169" />
<polygon fill="#c4b0a1" fill-opacity="0.501961" points="39,51 34,38 39,31" />
<polygon fill="#ceabac" fill-opacity="0.501961" points="118,122 109,124 114,116" />
<polygon fill="#bab5ae" fill-opacity="0.501961" points="62,40 68,-3 93,7" />
<polygon fill="#c4b9b1" fill-opacity="0.501961" points="210,12 219,19 192,49" />
<polygon fill="#9d9385" fill-opacity="0.501961" points="228,200 240,183 235,199" />
<polygon fill="#a7a597" fill-opacity="0.501961" points="119,239 139,229 112,195" />
<polygon fill="#b19783" fill-opacity="0.501961" points="167,4 160,-16 136,25" />
<polygon fill="#7d786c" fill-opacity="0.501961" points="100,164 108,174 90,163" />
<polygon fill="#e7ddc8" fill-opacity="0.501961" points="154,167 213,169 195,183" />
<polygon fill="#dad4ca" fill-opacity="0.501961" points="62,136 79,124 89,136" />
<polygon fill="#ebe6da" fill-opacity="0.501961" points="229,174 234,114 251,139" />
<polygon fill="#968c7e" fill-opacity="0.501961" points="249,271 253,256 197,248" />
<polygon fill="#8c8274" fill-opacity="0.501961" points="222,164 225,164 226,160" />
<polygon fill="#cfc6be" fill-opacity="0.501961" points="93,88 68,98 79,89" />
<polygon fill="#a9a8a3" fill-opacity="0.501961" points="13,213 38,193 -12,214" />
<polygon fill="#e0dacf" fill-opacity="0.501961" points="235,29 235,40 226,26" />
<polygon fill="#f1ebe9" fill-opacity="0.501961" points="113,114 98,95 115,91" />
<polygon fill="#7f574f" fill-opacity="0.501961" points="56,73 50,67 66,75" />
<polygon fill="#b1a995" fill-opacity="0.501961" points="209,181 219,177 206,187" />
<polygon fill="#efeee4" fill-opacity="0.501961" points="118,130 94,110 64,124" />
<polygon fill="#aba49a" fill-opacity="0.501961" points="-9,147 46,139 88,162" />
<polygon fill="#a6a39c" fill-opacity="0.501961" points="93,15 67,33 102,24" />
<polygon fill="#70685c" fill-opacity="0.501961" points="86,107 100,100 94,107" />
<polygon fill="#fff8e5" fill-opacity="0.501961" points="142,6 151,-16 156,-12" />
<polygon fill="#e1ddcb" fill-opacity="0.501961" points="171,204 162,226 186,231" />
<polygon fill="#d6cac3" fill-opacity="0.501961" points="136,104 144,115 146,92" />
<polygon fill="#8f8778" fill-opacity="0.501961" points="236,243 221,236 245,260" />
<polygon fill="#494435" fill-opacity="0.501961" points="150,88 152,78 155,78" />
<polygon fill="#7c8281" fill-opacity="0.501961" points="28,34 31,32 34,44" />
<polygon fill="#9e988e" fill-opacity="0.501961" points="111,6 122,38 131,30" />
<polygon fill="#898887" fill-opacity="0.501961" points="5,38 -6,31 19,31" />
<polygon fill="#12170f" fill-opacity="0.501961" points="148,73 143,87 148,86" />
<polygon fill="#c2bdb3" fill-opacity="0.501961" points="145,-2 136,17 78,-16" />
<polygon fill="#a9a89c" fill-opacity="0.501961" points="61,209 80,223 42,223" />
<polygon fill="#b0a797" fill-opacity="0.501961" points="204,91 212,95 195,124" />
<polygon fill="#bdb2a7" fill-opacity="0.501961" points="183,56 172,80 208,96" />
<polygon fill="#ad9582" fill-opacity="0.501961" points="41,54 37,32 45,40" />
<polygon fill="#857f73" fill-opacity="0.501961" points="152,232 145,245 141,230" />
<polygon fill="#d3c7b8" fill-opacity="0.501961" points="248,175 236,190 237,173" />
<polygon fill="#a19b92" fill-opacity="0.501961" points="4,89 11,111 50,128" />
<polygon fill="#f0f1f0" fill-opacity="0.501961" points="0,81 -16,77 15,74" />
<polygon fill="#c0b2a1" fill-opacity="0.501961" points="157,165 166,153 174,154" />
<polygon fill="#ac8981" fill-opacity="0.501961" points="136,33 143,25 138,26" />
<polygon fill="#a99f90" fill-opacity="0.501961" points="227,230 245,252 264,256" />
<polygon fill="#d0c7be" fill-opacity="0.501961" points="151,66 117,74 159,47" />
<polygon fill="#808179" fill-opacity="0.501961" points="102,47 109,38 78,27" />
<polygon fill="#696c63" fill-opacity="0.501961" points="197,75 204,87 204,78" />
<polygon fill="#835a5c" fill-opacity="0.501961" points="115,125 120,125 125,134" />
<polygon fill="#5f605a" fill-opacity="0.501961" points="20,44 27,50 18,49" />
<polygon fill="#b0a892" fill-opacity="0.501961" points="185,226 205,224 212,237" />
<polygon fill="#635f4d" fill-opacity="0.501961" points="92,104 92,94 99,97" />
<polygon fill="#afa9a0" fill-opacity="0.501961" points="217,49 247,48 239,37" />
<polygon fill="#522123" fill-opacity="0.501961" points="249,82 242,71 238,77" />
<polygon fill="#f9f7ee" fill-opacity="0.501961" points="99,48 125,41 95,66" />
<polygon fill="#f2ded7" fill-opacity="0.501961" points="132,32 137,18 137,27" />
<polygon fill="#09140c" fill-opacity="0.501961" points="11,40 -15,46 -16,38" />
<polygon fill="#706d65" fill-opacity="0.501961" points="222,67 201,75 186,59" />
<polygon fill="#d5c9bd" fill-opacity="0.501961" points="162,84 162,104 181,87" />
<polygon fill="#4f584c" fill-opacity="0.501961" points="218,86 227,89 226,96" />
<polygon fill="#a69f94" fill-opacity="0.501961" points="134,245 184,256 160,264" />
<polygon fill="#9f9f9a" fill-opacity="0.501961" points="7,178 -16,147 -16,215" />
<polygon fill="#f2e0d3" fill-opacity="0.501961" points="51,32 43,30 48,33" />
<polygon fill="#e9e3dc" fill-opacity="0.501961" points="109,117 82,110 118,107" />
<polygon fill="#a4a79d" fill-opacity="0.501961" points="230,98 222,75 251,101" />
<polygon fill="#e2d9ca" fill-opacity="0.501961" points="212,195 216,211 219,201" />
<polygon fill="#b89e99" fill-opacity="0.501961" points="137,23 133,38 156,35" />
<polygon fill="#ccc7bd" fill-opacity="0.501961" points="125,174 135,207 117,184" />
<polygon fill="#7f7c71" fill-opacity="0.501961" points="41,80 49,71 61,96" />
<polygon fill="#f7e8e2" fill-opacity="0.501961" points="144,4 134,17 141,13" />
<polygon fill="#313428" fill-opacity="0.501961" points="220,74 224,71 231,78" />
<polygon fill="#c1bfbc" fill-opacity="0.501961" points="13,120 -4,116 -16,87" />
<polygon fill="#c1c3bc" fill-opacity="0.501961" points="22,54 31,50 19,50" />
<polygon fill="#bcaa9e" fill-opacity="0.501961" points="53,71 56,77 48,68" />
<polygon fill="#5e5f58" fill-opacity="0.501961" points="72,66 68,67 72,77" />
<polygon fill="#cac0b2" fill-opacity="0.501961" points="210,221 232,198 203,211" />
<polygon fill="#9c998c" fill-opacity="0.501961" points="151,126 137,126 157,120" />
<polygon fill="#cbc4bd" fill-opacity="0.501961" points="92,145 101,158 120,137" />
<polygon fill="#e7ddcc" fill-opacity="0.501961" points="183,206 207,179 169,203" />
<polygon fill="#949082" fill-opacity="0.501961" points="181,56 175,35 172,51" />
<polygon fill="#bbb9b0" fill-opacity="0.501961" points="-5,141 50,136 34,126" />
<polygon fill="#ebeae7" fill-opacity="0.501961" points="59,102 61,122 74,86" />
<polygon fill="#716155" fill-opacity="0.501961" points="123,133 127,145 137,148" />
<polygon fill="#dcd2c3" fill-opacity="0.501961" points="242,191 241,200 255,184" />
<polygon fill="#a99c8c" fill-opacity="0.501961" points="158,156 172,145 183,148" />
<polygon fill="#dad2be" fill-opacity="0.501961" points="191,157 177,146 166,173" />
<polygon fill="#dfd4bf" fill-opacity="0.501961" points="148,164 136,172 177,173" />
<polygon fill="#5f7360" fill-opacity="0.501961" points="234,80 257,86 271,111" />
<polygon fill="#989184" fill-opacity="0.501961" points="75,152 102,162 86,163" />
<polygon fill="#cfcac2" fill-opacity="0.501961" points="81,12 72,21 72,12" />
<polygon fill="#8f9288" fill-opacity="0.501961" points="213,78 205,73 196,73" />
<polygon fill="#aaa091" fill-opacity="0.501961" points="241,226 228,215 271,201" />
<polygon fill="#b8ae9f" fill-opacity="0.501961" points="224,211 249,214 216,224" />
<polygon fill="#99837b" fill-opacity="0.501961" points="123,124 135,115 132,107" />
<polygon fill="#837d70" fill-opacity="0.501961" points="137,221 129,217 127,211" />
<polygon fill="#b1a893" fill-opacity="0.501961" points="203,164 207,163 209,159" />
<polygon fill="#89837b" fill-opacity="0.501961" points="40,105 55,118 58,106" />
<polygon fill="#9d978c" fill-opacity="0.501961" points="103,200 38,178 109,246" />
<polygon fill="#867d6c" fill-opacity="0.501961" points="255,208 271,227 257,258" />
<polygon fill="#6f7367" fill-opacity="0.501961" points="70,40 66,38 77,36" />
<polygon fill="#91897f" fill-opacity="0.501961" points="35,198 23,224 69,196" />
<polygon fill="#d2cfc9" fill-opacity="0.501961" points="41,61 22,74 9,68" />
<polygon fill="#845452" fill-opacity="0.501961" points="59,83 58,79 54,76" />
<polygon fill="#dfd9cf" fill-opacity="0.501961" points="94,94 103,87 68,79" />
<polygon fill="#c3bbad" fill-opacity="0.501961" points="151,213 119,196 153,228" />
<polygon fill="#301f15" fill-opacity="0.501961" points="33,44 38,48 33,46" />
<polygon fill="#50685d" fill-opacity="0.501961" points="11,47 20,43 4,45" />
<polygon fill="#b1a69d" fill-opacity="0.501961" points="129,101 120,116 141,97" />
<polygon fill="#ebe5d7" fill-opacity="0.501961" points="143,102 144,94 171,96" />
<polygon fill="#a9a69d" fill-opacity="0.501961" points="42,175 29,196 86,178" />
<polygon fill="#ece1d1" fill-opacity="0.501961" points="237,162 226,162 217,180" />
<polygon fill="#a9a49b" fill-opacity="0.501961" points="218,52 213,30 191,50" />
<polygon fill="#d3cac0" fill-opacity="0.501961" points="223,124 228,106 245,101" />
<polygon fill="#415243" fill-opacity="0.501961" points="245,88 241,92 233,84" />
<polygon fill="#9d9385" fill-opacity="0.501961" points="222,194 217,195 222,185" />
<polygon fill="#a5a39e" fill-opacity="0.501961" points="-16,116 22,127 -16,137" />
<polygon fill="#a09b93" fill-opacity="0.501961" points="67,231 7,268 62,271" />
<polygon fill="#8f8677" fill-opacity="0.501961" points="212,234 215,241 219,241" />
<polygon fill="#948d82" fill-opacity="0.501961" points="3,99 21,103 29,80" />
<polygon fill="#8b8279" fill-opacity="0.501961" points="36,7 50,30 34,23" />
<polygon fill="#d6d0c7" fill-opacity="0.501961" points="229,-16 269,13 174,0" />
<polygon fill="#857d6d" fill-opacity="0.501961" points="129,84 123,88 128,77" />
<polygon fill="#8a8070" fill-opacity="0.501961" points="248,188 242,187 247,180" />
<polygon fill="#dacfc3" fill-opacity="0.501961" points="210,99 222,102 195,129" />
<polygon fill="#b1a796" fill-opacity="0.501961" points="187,76 193,92 172,109" />
<polygon fill="#a29c8f" fill-opacity="0.501961" points="112,245 96,168 122,193" />
<polygon fill="#f8ebdc" fill-opacity="0.501961" points="246,172 244,160 240,178" />
<polygon fill="#a29c90" fill-opacity="0.501961" points="11,67 -16,71 16,54" />
<polygon fill="#ddd4bc" fill-opacity="0.501961" points="223,190 227,182 232,196" />
<polygon fill="#d6c9b7" fill-opacity="0.501961" points="184,121 184,135 164,149" />
<polygon fill="#a0958f" fill-opacity="0.501961" points="156,131 141,131 161,125" />
<polygon fill="#836b59" fill-opacity="0.501961" points="162,23 150,24 161,26" />
<polygon fill="#7e786c" fill-opacity="0.501961" points="106,172 110,181 113,175" />
<polygon fill="#ece1d0" fill-opacity="0.501961" points="204,182 218,176 213,167" />
<polygon fill="#b5ab9c" fill-opacity="0.501961" points="131,166 117,174 103,169" />
<polygon fill="#6c6259" fill-opacity="0.501961" points="134,141 146,144 150,140" />
<polygon fill="#a69b85" fill-opacity="0.501961" points="145,166 139,168 150,159" />
<polygon fill="#b8ae9e" fill-opacity="0.501961" points="219,245 228,255 220,232" />
<polygon fill="#b1a59a" fill-opacity="0.501961" points="187,71 199,75 172,87" />
<polygon fill="#eeece4" fill-opacity="0.501961" points="77,83 84,64 109,85" />
<polygon fill="#5c5953" fill-opacity="0.501961" points="50,122 59,119 55,130" />
<polygon fill="#0f1208" fill-opacity="0.501961" points="149,82 147,87 141,84" />
<polygon fill="#ada18b" fill-opacity="0.501961" points="180,140 193,132 199,117" />
<polygon fill="#bab5ac" fill-opacity="0.501961" points="172,6 195,26 191,15" />
<polygon fill="#8e7b74" fill-opacity="0.501961" points="145,30 143,36 154,30" />
<polygon fill="#beb7ac" fill-opacity="0.501961" points="124,66 135,74 127,59" />
<polygon fill="#8b897c" fill-opacity="0.501961" points="74,152 61,128 54,133" />
<polygon fill="#9f9686" fill-opacity="0.501961" points="232,173 236,169 235,167" />
<polygon fill="#c3bdb5" fill-opacity="0.501961" points="20,3 -5,19 22,27" />
</g>
</svg>