<svg width="216px" height="216px" viewBox="0 0 216 216" version="1.1" xmlns="http://www.w3.org/2000/svg" xmlns:xlink="http://www.w3.org/1999/xlink">
    <g id="Page-1" stroke="none" stroke-width="1" fill="none" fill-rule="evenodd">
        <g id="Social">
            <g id="insta" transform="translate(120.000000, 120.000000)">
                <rect id="Rectangle" fill="#D0006F" x="0" y="0" width="96" height="96"></rect>
                <g id="instagram" transform="translate(28.000000, 28.000000)" fill="#FFFFFF" fill-rule="nonzero">
                    <path d="M20.0534521,9.79955457 C14.3875278,9.79955457 9.81737194,14.3697105 9.81737194,20.0356347 C9.81737194,25.701559 14.3875278,30.2717149 20.0534521,30.2717149 C25.7193764,30.2717149 30.2895323,25.701559 30.2895323,20.0356347 C30.2895323,14.3697105 25.7193764,9.79955457 20.0534521,9.79955457 Z M20.0534521,26.6904232 C16.3919822,26.6904232 13.3986637,23.7060134 13.3986637,20.0356347 C13.3986637,16.3652561 16.3830735,13.3808463 20.0534521,13.3808463 C23.7238307,13.3808463 26.7082405,16.3652561 26.7082405,20.0356347 C26.7082405,23.7060134 23.714922,26.6904232 20.0534521,26.6904232 L20.0534521,26.6904232 Z M33.0957684,9.38084633 C33.0957684,10.7082405 32.0267261,11.7683742 30.7082405,11.7683742 C29.3808463,11.7683742 28.3207127,10.6993318 28.3207127,9.38084633 C28.3207127,8.0623608 29.389755,6.99331849 30.7082405,6.99331849 C32.0267261,6.99331849 33.0957684,8.0623608 33.0957684,9.38084633 Z M39.8752784,11.8040089 C39.7238307,8.60579065 38.9933185,5.77282851 36.6503341,3.43875278 C34.3162584,1.10467706 31.4832962,0.374164811 28.285078,0.213808463 C24.9888641,0.0267260579 15.1091314,0.0267260579 11.8129176,0.213808463 C8.62360802,0.365256125 5.79064588,1.09576837 3.44766147,3.4298441 C1.10467706,5.76391982 0.383073497,8.59688196 0.222717149,11.7951002 C0.0356347439,15.091314 0.0356347439,24.9710468 0.222717149,28.2672606 C0.374164811,31.4654788 1.10467706,34.298441 3.44766147,36.6325167 C5.79064588,38.9665924 8.61469933,39.6971047 11.8129176,39.857461 C15.1091314,40.0445434 24.9888641,40.0445434 28.285078,39.857461 C31.4832962,39.7060134 34.3162584,38.9755011 36.6503341,36.6325167 C38.9844098,34.298441 39.714922,31.4654788 39.8752784,28.2672606 C40.0623608,24.9710468 40.0623608,15.1002227 39.8752784,11.8040089 Z M35.6169265,31.8040089 C34.922049,33.5501114 33.5768374,34.8953229 31.8218263,35.5991091 C29.1937639,36.6414254 22.9576837,36.4008909 20.0534521,36.4008909 C17.1492205,36.4008909 10.9042316,36.6325167 8.28507795,35.5991091 C6.5389755,34.9042316 5.19376392,33.55902 4.48997773,31.8040089 C3.44766147,29.1759465 3.68819599,22.9398664 3.68819599,20.0356347 C3.68819599,17.1314031 3.45657016,10.8864143 4.48997773,8.26726058 C5.18485523,6.52115813 6.53006682,5.17594655 8.28507795,4.47216036 C10.9131403,3.4298441 17.1492205,3.67037862 20.0534521,3.67037862 C22.9576837,3.67037862 29.2026726,3.43875278 31.8218263,4.47216036 C33.5679287,5.16703786 34.9131403,6.51224944 35.6169265,8.26726058 C36.6592428,10.8953229 36.4187082,17.1314031 36.4187082,20.0356347 C36.4187082,22.9398664 36.6592428,29.1848552 35.6169265,31.8040089 Z" id="Shape"></path>
                </g>
            </g>
            <g id="twitter" transform="translate(0.000000, 120.000000)">
                <rect id="Rectangle" fill="#D0006F" x="0" y="0" width="96" height="96"></rect>
                <g transform="translate(23.000000, 28.000000)" fill="#FFFFFF" fill-rule="nonzero" id="Path">
                    <path d="M44.1701923,9.96480769 C44.2014423,10.4021154 44.2014423,10.8395192 44.2014423,11.2768269 C44.2014423,24.6152885 34.0492308,39.9843269 15.4939423,39.9843269 C9.77740385,39.9843269 4.46701923,38.3286538 0,35.4549038 C0.812211538,35.5485577 1.59307692,35.5798077 2.43653846,35.5798077 C7.15336538,35.5798077 11.4954808,33.9867308 14.9628846,31.2690385 C10.5271154,31.1752885 6.80980769,28.2701923 5.52903846,24.2717308 C6.15384615,24.3653846 6.77855769,24.4278846 7.43461538,24.4278846 C8.34048077,24.4278846 9.24644231,24.3028846 10.0898077,24.0843269 C5.46663462,23.1471154 1.99913462,19.08625 1.99913462,14.1819231 L1.99913462,14.0570192 C3.34230769,14.8067308 4.90432692,15.2752885 6.55980769,15.3376923 C3.84211538,13.5258654 2.06163462,10.4333654 2.06163462,6.93471154 C2.06163462,5.06048077 2.56134615,3.34240385 3.43605769,1.84298077 C8.40288462,7.96557692 15.86875,11.9639423 24.2403846,12.4013462 C24.0842308,11.6516346 23.9904808,10.8707692 23.9904808,10.0898077 C23.9904808,4.52942308 28.48875,0 34.0802885,0 C36.9853846,0 39.6093269,1.21826923 41.4524038,3.18625 C43.7326923,2.74894231 45.9193269,1.90548077 47.8561538,0.749711538 C47.1063462,3.09259615 45.5132692,5.06057692 43.4203846,6.31 C45.4508654,6.09144231 47.4188462,5.52903846 49.2305769,4.74817308 C47.8563462,6.74730769 46.1381731,8.52778846 44.1701923,9.96480769 Z"></path>
                </g>
            </g>
            <g id="fb" transform="translate(120.000000, 0.000000)">
                <rect id="Rectangle" fill="#D0006F" x="0" y="0" width="96" height="96"></rect>
                <g id="facebook-f" transform="translate(36.000000, 26.000000)" fill="#FFFFFF" fill-rule="nonzero">
                    <path d="M21.9153409,24.5454545 L23.1272727,16.6482955 L15.5497159,16.6482955 L15.5497159,11.5235795 C15.5497159,9.36306818 16.6082386,7.25710227 20.0019886,7.25710227 L23.446875,7.25710227 L23.446875,0.533522727 C23.446875,0.533522727 20.3207386,0 17.3318182,0 C11.0914773,0 7.0125,3.78238636 7.0125,10.6295455 L7.0125,16.6482955 L0.0758522727,16.6482955 L0.0758522727,24.5454545 L7.0125,24.5454545 L7.0125,43.6363636 L15.5497159,43.6363636 L15.5497159,24.5454545 L21.9153409,24.5454545 Z" id="Path"></path>
                </g>
            </g>
            <g id="search">
                <g id="Search">
                    <rect id="Rectangle" fill="#D0006F" x="0" y="0" width="96" height="96"></rect>
                    <path d="M67.3762183,62.5185185 L59.6023392,54.7446394 C59.251462,54.3937622 58.7758285,54.1988304 58.2768031,54.1988304 L57.005848,54.1988304 C59.1578947,51.4463938 60.4366472,47.9844055 60.4366472,44.2183236 C60.4366472,35.2592593 53.1773879,28 44.2183236,28 C35.2592593,28 28,35.2592593 28,44.2183236 C28,53.1773879 35.2592593,60.4366472 44.2183236,60.4366472 C47.9844055,60.4366472 51.4463938,59.1578947 54.1988304,57.005848 L54.1988304,58.2768031 C54.1988304,58.7758285 54.3937622,59.251462 54.7446394,59.6023392 L62.5185185,67.3762183 C63.251462,68.1091618 64.4366472,68.1091618 65.1617934,67.3762183 L67.3684211,65.1695906 C68.1013645,64.4366472 68.1013645,63.251462 67.3762183,62.5185185 Z M44.2183236,54.1988304 C38.705653,54.1988304 34.2378168,49.7387914 34.2378168,44.2183236 C34.2378168,38.705653 38.6978558,34.2378168 44.2183236,34.2378168 C49.7309942,34.2378168 54.1988304,38.6978558 54.1988304,44.2183236 C54.1988304,49.7309942 49.7387914,54.1988304 44.2183236,54.1988304 Z" id="Shape" fill="#FFFFFF" fill-rule="nonzero"></path>
                </g>
            </g>
        </g>
    </g>
</svg>