<svg width="122px" height="401px" viewBox="0 0 122 401" version="1.1" xmlns="http://www.w3.org/2000/svg" xmlns:xlink="http://www.w3.org/1999/xlink">
    <g id="Page-1" stroke="none" stroke-width="1" fill="none" fill-rule="evenodd" stroke-linecap="round" stroke-linejoin="round">
        <g id="Group" transform="translate(1.000000, 1.000000)" stroke-width="2">
            <g id="time-5884_284e2ea8-4545-42a2-98ff-ed84cd5e85a2" transform="translate(20.000000, 0.000000)" stroke="#2C2C2C">
                <circle id="Oval" cx="40" cy="40" r="40"></circle>
                <polyline id="Shape" points="40 10.6666667 40 41.3333333 57.6 50.6666667"></polyline>
            </g>
            <g id="pin-627_2db24d88-81f9-47e4-adf2-0cb210ec8bf4" transform="translate(20.000000, 120.000000)" stroke="#2C2C2C">
                <path d="M40,0 C17.90861,0 0,18.2930886 0,40.8587571 C0,77.6316384 40,120.533333 40,120.533333 C40,120.533333 80,77.6316384 80,40.8587571 C80,18.2930886 62.09139,0 40,0 Z" id="Shape"></path>
                <circle id="Oval" cx="40" cy="40" r="16"></circle>
            </g>
            <g id="ticket-2339_2707a9e5-5548-4f59-b014-d62fa8eb80fc" transform="translate(0.000000, 279.000000)">
                <path d="M106,33.4 C100.509531,37.8059312 92.5827659,37.3728838 87.604941,32.395059 C82.6271162,27.4172341 82.1940688,19.4904691 86.6,14 L72.6,0 L0,72.6 L14,86.6 C19.4904691,82.1940688 27.4172341,82.6271162 32.395059,87.604941 C37.3728838,92.5827659 37.8059312,100.509531 33.4,106 L47.4,120 L120,47.4 L106,33.4 Z" id="Shape" stroke="#2C2C2C"></path>
                <path d="M57.4886778,88.033576 C55.1749404,90.3014924 51.4719884,90.3014924 49.158251,88.033576 L32.4973974,71.3727225 C30.2294811,69.058985 30.2294811,65.3560331 32.4973974,63.0422957 L63.0422957,32.4973974 C65.3560331,30.2294811 69.058985,30.2294811 71.3727225,32.4973974 L88.033576,49.158251 C90.3014924,51.4719884 90.3014924,55.1749404 88.033576,57.4886778 L57.4886778,88.033576 Z" id="Shape" stroke="#292929"></path>
            </g>
        </g>
    </g>
</svg>